<svg width="1024" height="330" xmlns="http://www.w3.org/2000/svg" stroke="null" style="vector-effect: non-scaling-stroke;">
 <!-- Created with Method Draw - http://github.com/duopixel/Method-Draw/ -->

 <g stroke="null">
  <title stroke="null">background</title>
  <rect stroke="null" fill="none" id="canvas_background" height="332" width="1026" y="-1" x="-1"/>
 </g>
 <g stroke="null">
  <title stroke="null">Layer 1</title>
  <g stroke="null" id="svg_7">
   <path stroke="null" id="svg_4" fill="#FF6666" d="m1029.1676,240.832l0,130.21811l-1030.3923,0l0,-130.21811c145.02003,-15.97231 322.89494,-25.38142 515.19543,-25.38142c192.30049,0 370.1754,9.40911 515.19686,25.38142z" clip-rule="evenodd" fill-rule="evenodd"/>
   <path stroke="null" id="svg_5" fill="#DB4646" d="m395.97639,371.05011l-57.46688,0l-19.48909,-5.34356l-32.85417,5.34356l-287.39095,0l0,-130.21811c145.02003,-15.97231 322.89494,-25.38142 515.19543,-25.38142c40.92101,0 87.20036,3.02024 110.57582,8.8864l-208.25672,4.70459l122.17482,5.86613l-84.3745,3.42687l-104.62856,7.31814l-158.50389,4.995l-45.10149,10.04802l29.79287,6.447l14.54365,10.74501l106.1592,12.19716l38.50733,-5.75015l37.09404,6.44686l82.13685,4.99485l-96.67978,6.44757l-45.04281,14.34574l-87.20108,0l-109.04446,20.21236l49.45872,8.59558l16.72191,12.19702l146.1385,-2.14872l67.53523,15.6241zm-6.71223,-56.57118l-15.66212,-2.90402l-24.37586,2.14872l18.90016,2.14943l21.13781,-1.39413zm22.90389,0.69671l17.42819,-3.25202l14.54365,2.49743l-24.37657,2.14872l-7.59527,-1.39413zm52.34397,-16.49516l33.7966,2.49813l23.61089,-3.25273l33.4431,4.29814l56.3477,-3.60143l-38.56601,-2.14872l-23.61018,2.84614l-35.56339,-6.04098l-24.37657,4.00803l-25.08214,1.39342zm487.81553,-4.53038l-11.12742,-3.07767l-19.31377,3.13625l12.42264,2.43954l18.01856,-2.49813zm-64.7108,-35.60338l-8.77313,-0.87121l-15.24922,0.87121l9.83221,0.63897l14.19015,-0.63897zm98.80151,2.32329l-2.99832,-0.81311l-5.30252,0.87121l3.41336,0.69692l4.88748,-0.75502zm-77.13344,47.62653l-21.43192,-5.92451l-37.26793,6.09886l23.96511,4.64615l34.73474,-4.8205zm-764.31162,-27.00779l-21.43263,-5.92423l-37.27007,6.09851l23.96368,4.64678l34.73903,-4.82107zm270.49229,61.21718l48.69303,-6.44686l87.96604,7.89887l-74.89508,10.0483l-61.764,-11.50031zm-152.6747,-12.13843l14.54293,-1.39413l10.18642,1.80072l-13.83665,0l-10.89271,-0.40659zm291.15924,40.48261l73.77589,-18.586l42.15755,10.74501l9.06724,4.64615l37.79746,3.19484l-162.79815,0zm-367.87907,-28.28559l20.72563,4.99485l9.47942,-1.1033l-17.42819,-3.60143l-12.77686,-0.29012zm16.72191,-72.95001l25.78915,4.64643l22.72714,-2.84592l-10.71596,-3.94951l-37.80032,2.149zm203.36924,-6.96978l14.3669,-1.80051l11.06946,2.90409l-17.25216,0.52271l-8.1842,-1.62629zm270.72772,-29.09863l-5.82848,-0.34843l-5.35834,0.63883l7.53659,0.17428l3.65022,-0.46469zm-37.32947,-9.17681l7.18381,-0.52271l3.82698,0.81311l-11.01078,-0.2904zm-70.71388,10.91929l21.8441,-0.75509l11.24621,0.75509l-17.07541,2.84599l-16.0149,-2.84599zm-209.0224,20.03794l16.01562,0l12.01118,4.995l13.07097,1.80051l-18.54666,0.3485l-1.05979,0l-10.18642,-5.34349l-11.30489,-1.80051zm434.0003,17.9471l-17.83966,-3.60108l-14.19015,3.94951l-16.0149,0.69699l25.84711,3.25259l22.1976,-4.298zm-129.00441,19.74753l-24.72936,-2.14872l18.19387,-0.7553l6.53548,2.90402zm47.63325,4.99485l-21.07842,4.99485l31.62049,2.90402l27.25682,-5.74945l-37.79889,-2.14943zm-58.64403,-49.0784l135.30661,10.33849l27.61462,9.29293l154.14523,12.89401l-35.62207,1.45201l-45.04639,10.04823l-86.55061,7.95676l-63.94512,26.54346l-93.08537,12.89373l81.42841,0l59.64442,10.0483l74.89365,-20.0966l123.58954,-6.44686l-46.51335,13.64903l-24.73079,17.94717l-90.90855,15.39186l205.13817,0l0,-130.21811l-375.35842,8.3056z" clip-rule="evenodd" fill-rule="evenodd"/>
   <path stroke="null" id="svg_6" fill="#A62A38" d="m188.24921,239.78665l-139.60301,9.29293l64.70865,10.04802l13.83665,4.995l-41.45126,5.75001l-41.45112,3.60101l34.91564,12.19709l-64.00208,1.80029l98.85847,13.30102l42.15755,-12.89443l58.87946,8.59629l37.09404,2.14872l-87.96533,14.34644l-47.98675,-4.29814l-76.30808,10.68713l-41.15673,0l0,-87.47038l189.47391,7.89901zm805.53246,131.26345l-21.43192,-8.53841l-33.44667,3.25273l-19.66441,-3.60073l-36.68114,8.88641l111.22415,0zm35.38592,-35.42987l-39.74387,8.945l39.74387,6.09816l0,-15.04315zm0,-58.83594l-25.20308,1.80051l-15.59986,5.75001l-18.19745,6.09879l-4.00015,5.34286l-46.51335,11.50031l54.163,1.39413l24.73079,10.04759l18.54809,-6.44686l12.12925,2.84614l0,-38.33346l-0.05725,0zm-207.72861,-26.83351l23.96511,5.34349l59.29378,-2.84599l42.1554,9.69952l-43.62952,0l73.77733,8.59601l16.71618,-3.60101l-42.1554,-7.20202l43.27888,-4.298l34.32685,4.995l0,-24.7426l-207.72861,14.05562zm202.31159,116.51035l-7.42067,-2.32307l-11.65696,1.21977l9.83221,2.49743l9.24542,-1.39413zm-37.97636,-9.69888l-27.44288,-4.29814l-12.53714,4.64615l39.98001,-0.348zm-901.85946,-93.80127l-7.4772,-2.32321l-11.5995,1.21963l9.83271,2.4975l9.24399,-1.39391zm-37.977,-9.6415l-27.43787,-4.29793l-12.54129,4.64643l39.97915,-0.3485zm786.33526,73.35646l-3.06273,-0.81318l-5.29537,0.87106l3.41336,0.69742l4.94473,-0.7553zm-11.95035,-7.66664l-11.12742,-3.07837l-19.31377,3.19414l12.42264,2.38166l18.01856,-2.49743zm-29.38212,13.76479l-8.77313,-0.81248l-15.24922,0.87106l9.83221,0.69671l14.19015,-0.7553zm-496.53142,-30.31784l19.25366,2.32307l14.71969,-0.87106l-6.88898,-2.84614l-27.08436,1.39413zm-265.54642,26.13616l-10.00953,-2.84614l-8.89078,0.17435l9.30296,3.42708l9.59735,-0.7553zm21.25545,3.25273l18.01712,2.49743l18.19387,-2.14872l23.25739,4.99485l-23.43414,-7.72522l-16.36848,1.97507l-6.53563,-2.49743l-13.13015,2.90402zm71.59764,-78.35138l16.0149,4.12372l15.07319,-4.995l-11.24621,-1.62622l-19.84188,2.4975zm-19.96067,-4.995l6.1827,1.10358l-12.54143,-0.52278l6.35873,-0.5808zm-102.97984,88.4577l65.17958,21.49002l57.40742,-3.94944l42.86455,16.55304l-165.45156,0l0,-34.09362z" clip-rule="evenodd" fill-rule="evenodd"/>
  </g>
  <g stroke="null" id="svg_17">
   <path stroke="null" id="svg_11" fill="#FF6198" d="m-1.97937,184.11973l34.34607,-12.68101l56.63595,-1.11626l19.58391,-23.17399l24.70093,-6.07243l14.52693,-65.05638l15.23241,-2.18803l4.3515,-35.27446l18.87915,-6.60836l2.17575,-35.27434c4.29289,-0.84837 3.58742,-0.58046 7.99825,-0.58046l29.05315,2.18791l6.58658,50.76824l15.99721,2.76825l11.64499,54.02778l20.34871,0l13.05594,53.49217l44.99103,14.86904l8.70444,24.82586l63.16327,19.28905l5.05841,14.33288l37.75687,7.14419l-454.79144,1.91995l0,-57.59961z" clip-rule="evenodd" fill-rule="evenodd"/>
   <path stroke="null" id="svg_12" fill="#A13A67" d="m-1.97937,199.43484l29.28823,-18.48536l-5.82235,25.62955l-17.76114,19.02151l38.11006,-21.78965l-11.64477,-6.3405l33.0522,-16.83349l21.05447,-2.23253l-13.05594,16.0743l18.17296,-9.6448l12.35046,-17.3691l19.64324,-11.87732l10.174,-4.42001l-4.35222,27.86208l-15.23169,7.99238l-7.64587,12.94909l-1.11718,0.58011l-22.87827,6.3405c-1.64611,0.84873 -1.5875,0.53615 -3.23432,1.38434l-15.70279,17.90525l19.2316,-15.71722l52.63618,-5.80489l-10.9388,-5.75985l2.52885,-11.87732l22.52518,-10.76052l5.41079,-29.20192l13.82074,-5.80489l15.23169,33.93505l18.52605,11.83228l9.05682,19.60217l-4.76392,-28.13016l-1.05857,-0.26808l-17.99641,-14.10985l-7.29206,-42.19496l-14.88003,-17.90525l-3.64603,-21.52212l5.82249,-2.76814l12.70356,25.36202l0,-2.76868l-3.64674,-24.78137l3.64674,-30.58588l9.40991,-4.95627l4.3515,23.4418l8.35134,-54.2957l17.40816,11.29672l11.99808,55.41191l-12.35046,15.18161l-9.82162,51.2591l10.88019,-38.31056l23.58303,-1.65187l15.23241,18.75344l9.05753,37.77495l-2.17647,-46.57156l9.82162,3.57237l14.11523,54.29586l-20.70181,22.32526l-5.47011,28.97888l9.05753,-22.59388l26.87668,-14.86849l2.17647,-11.02914l30.4641,5.53682l10.17471,33.48844l15.99649,14.33288l-9.05682,-23.30803l57.34149,15.44969l5.4694,13.4847l16.70268,6.02793l-429.20848,1.74087l0,-42.2845z" clip-rule="evenodd" fill-rule="evenodd"/>
   <path stroke="null" id="svg_13" fill="#4A1330" d="m-1.97937,214.57141l12.58569,-11.29667l12.11523,-2.27702l-1.23505,5.58132l-17.76114,19.02097l3.99922,9.6448l0.29406,-8.79607l41.05059,-14.91354l3.64631,-14.02031l22.46635,-7.90338l-3.94051,4.86717l-5.46961,14.60096l13.05615,-15.18161l15.99721,-0.26808l9.46852,-13.21662l23.52442,-5.58132l-0.64686,4.19698l-15.29102,7.99292l-7.58654,12.94854l-27.22978,8.26046l-15.64418,17.94975l-24.70093,8.52853l39.58031,-7.99238l9.46852,-11.02914l33.75846,-6.60804l7.99825,8.52799l17.40816,4.95616l13.40903,14.33343l-10.88019,-20.09328l-9.05682,-4.15248l-5.05769,-7.99238l-5.47011,-2.90272l2.88194,-10.89455l17.46748,-8.26046l3.58742,18.48536l6.17487,-24.82586l-2.52885,-12.36843l18.87843,-5.67086l7.64587,16.96752l18.52534,11.83282l9.05753,19.55712l-10.82158,22.4148l12.23324,-19.11051l12.35046,-6.60858l-5.05841,-17.10156l-8.70372,-8.52799l-3.64674,-14.60096l-11.23257,-8.84111l-7.29277,-25.89763l-13.05665,-19.55712l10.17471,4.37606l1.47028,-37.46238l5.70456,-12.54697l0.05933,5.0902l-1.82337,17.3691l11.64499,-18.17278l-0.3531,-25.09394l11.64499,0.26786l10.87947,42.86483l-6.17487,7.59081l-9.82162,51.25965l9.40991,-21.52212l23.28926,-0.53561l14.52693,19.55712l6.17487,24.82586l-24.34783,29.5145l15.58479,-4.95616l3.29365,36.92622l6.52797,-4.68809l9.05753,-22.59334l15.99649,-8.88561l17.81986,8.88561l-1.82337,-10.22545l19.93772,-1.65187l11.05674,29.15688l17.93709,5.84939l4.76392,4.28652l3.64603,7.85888l2.94055,-13.26166l28.64144,3.88494l10.88019,13.30562l-405.03648,1.69692l0,-27.14793z" clip-rule="evenodd" fill-rule="evenodd"/>
   <path stroke="null" id="svg_14" fill="#FF6198" d="m1027.22839,136.70053l-34.17303,-2.18803l-7.94106,18.75344l-10.17114,0l-12.35118,33.62193l-25.40283,10.49352l-2.94484,15.4041l-7.94106,-2.76814l-2.17289,-32.50621l-6.52583,-4.95616l-1.47242,-52.91152l-17.46891,-9.37672l-1.40809,-12.72551l-18.17653,0l-5.0534,29.78257l-76.98759,18.21728l-1.47242,15.40465l5.11773,9.37672l-13.11598,9.95737l-5.0534,19.8252l-30.52771,-0.53615l-23.93756,18.17333l-15.99363,1.11626l-15.23241,11.5642l-57.4001,17.63717l387.8063,1.38434l0,-112.74366z" clip-rule="evenodd" fill-rule="evenodd"/>
   <path stroke="null" id="svg_15" fill="#A13A67" d="m652.30148,248.10434l45.34412,-14.28838l-1.47028,4.15302l14.52622,-13.12762l15.99578,-3.17025l-4.70317,13.79727l23.22994,-16.52091l9.41349,-16.29788l28.34052,0.84873l-0.75765,21.78965l11.9938,-45.49979l13.0588,-6.92061l2.52313,13.5292l4.41726,-16.25283l-10.17829,-7.99292l3.64531,-10.18041l32.28604,-7.18869l0.70762,36.12253l-10.17114,3.84044l-0.70762,33.84551l5.46797,-31.61298l28.64073,-2.23253l-10.52137,-3.84044l-2.53028,-34.20258l25.05259,-9.91233l3.64531,14.33288l4.70317,-33.62247l10.17829,-1.65187l18.52677,9.91233l-2.58746,66.44126l3.99555,-10.22545l5.82535,4.42055l1.11504,41.92743l4.35293,-9.37672l7.99825,1.07176l2.53028,21.2535l6.52583,-36.97072l18.16939,-11.29667l0,19.28905l14.88146,-47.3747l5.82535,-0.31258l4.70317,37.77495l15.93931,6.87612l6.17559,23.7096l-2.18004,-28.93384l-10.46419,-9.6448l-6.94039,-36.65814l9.8209,-16.52091l28.58355,2.18748l0,106.04662l-374.92691,-1.33984z" clip-rule="evenodd" fill-rule="evenodd"/>
   <path stroke="null" id="svg_16" fill="#4A1330" d="m841.56043,199.83641l20.87835,-7.59026l5.81821,14.60096l2.18004,-31.12187l-4.0027,-17.10156l8.70587,-4.68809l5.81821,15.98476l5.06055,-36.92622l19.99919,6.87612l-1.12218,57.064l-15.58193,23.17399l22.1149,-15.71722l4.35293,10.18041l1.82266,27.86262l3.70249,-14.10985l7.58368,1.96445l7.29777,10.98409l7.58368,-7.6798l1.47242,-20.40585l15.63911,-6.87612l0,5.98343l-7.69804,20.49485l18.877,-29.24642l10.52852,5.53682l3.28793,18.75344l15.64626,5.75985l6.46864,12.41293l0.41457,-13.03808l5.41079,-7.09969l0.7648,-24.78137l-12.76574,-14.60096l-3.58813,-25.36148l10.17829,-9.6448l18.81982,5.22424l0,92.74046l-356.45947,-1.2503l25.4064,-10.22545l-1.47028,5.49232l15.29102,-14.33288l14.76423,-1.87545l-2.76615,8.21596l-8.99892,6.74208l32.8793,-12.10036l3.58098,-8.30495l13.8236,-5.49232l2.88051,-6.92061l16.58975,1.11626l-0.52893,14.7795l-9.3563,3.8399l-4.17424,13.08258l6.41146,-9.24268l0.52893,-0.26808l10.87876,-2.76814l5.64666,-23.26353l8.87741,-1.3838l7.11908,-27.90712l1.64396,9.01964l8.70587,2.94667l3.2379,12.99358l-1.58678,-41.21274l8.87741,0l5.64666,22.05773l-4.17424,1.56233l-0.70762,33.84551l10.64289,12.94909l1.12218,-31.70252z" clip-rule="evenodd" fill-rule="evenodd"/>
  </g>
  <g stroke="null" id="svg_33">
   <path stroke="null" id="svg_21" fill="#A13A67" d="m-0.45796,187.16333l83.4725,23.44739l2.39864,29.83745l-8.24808,18.06074l21.17542,19.22243l8.30637,38.33961l49.54533,-1.10906l38.89862,35.17096l25.97199,2.11286l24.74352,22.39109l5.67384,2.05959l-251.93815,0l0,-189.53307z" clip-rule="evenodd" fill-rule="evenodd"/>
   <path stroke="null" id="svg_22" fill="#4A1330" d="m235.21864,376.6964l-11.99106,-12.88577l-25.91369,-6.12615l5.43995,18.95865l32.46481,0l0,0.05327zm-39.24981,0l-28.72111,-24.29279l-15.32598,-31.42146l-45.97723,1.58465l1.17017,42.08911l-19.47917,-87.87509l-21.23357,-13.30809l-4.09468,26.08796l-7.0779,-31.42146l16.4958,-15.42031l-5.90816,-19.69802l-52.52863,-13.83611l-1.16989,69.76152l16.49566,7.44572l1.16989,65.3781l-8.83281,-61.15301l-21.40917,-1.95433l0,88.03361l196.42679,0z" clip-rule="evenodd" fill-rule="evenodd"/>
   <path stroke="null" id="svg_23" fill="#30071D" d="m10.65611,315.49012l-11.11407,-4.80593l0,66.01157l12.92741,0l-1.81334,-61.20564zm217.89411,61.20564l-4.09489,-4.59413l-24.04113,-3.6436l2.33963,8.23773l25.79639,0zm-56.09645,0l-6.25893,-2.7457l-5.90844,-16.00115l-22.40318,-10.66765l-4.73827,-13.30809l-26.90755,2.11222l0.81827,28.51724l15.20939,7.44637l1.22776,4.59413l48.96096,0l0,0.05263zm-62.35609,0l-10.00262,-3.01012l-9.12535,-44.99333l-14.448,-2.64044l-11.52363,-53.91845l-2.74934,17.42727l-14.0973,5.70319l-5.32307,25.03152l2.63232,-79.58344l-14.44828,0l-9.12528,42.61732l6.727,3.01012l1.16989,65.3781l-15.09173,24.97825l95.40541,0z" clip-rule="evenodd" fill-rule="evenodd"/>
   <path stroke="null" id="svg_24" fill="#A13A67" d="m399.59011,376.6964l-1.69625,-9.1889l-15.15038,-2.58781l-4.32878,-41.71942l-18.77678,-7.81541l-2.16404,-41.71942c-4.27049,-0.95117 -3.56881,-0.63412 -7.95589,-0.63412l-28.8967,2.58781l-6.49282,59.99132l-15.91036,3.27455l-6.90231,37.81139l108.27431,0z" clip-rule="evenodd" fill-rule="evenodd"/>
   <path stroke="null" id="svg_25" fill="#4A1330" d="m385.72649,376.69576l0.23389,-1.53138l-5.79043,-3.27391l-2.04745,4.80529l7.60398,0zm-15.50087,0l0.93557,-7.3931l-3.6264,-36.17412l-9.35924,-5.86236l-4.32878,27.72523l-8.30637,-64.21641l-17.31442,13.36071l-11.93277,65.53663l4.85486,7.07668l49.07755,0l0,-0.05327z" clip-rule="evenodd" fill-rule="evenodd"/>
   <path stroke="null" id="svg_26" fill="#30071D" d="m360.223,376.69576l-0.2929,-9.71648l-5.73214,-14.78683l-0.05901,5.96762l1.63796,18.48306l4.44608,0l0,0.05263zm-5.38165,0l-10.47041,-19.48622l0.35048,-29.67892l-11.52328,0.31706l-10.41211,48.84809l32.05532,0z" clip-rule="evenodd" fill-rule="evenodd"/>
   <path stroke="null" id="svg_27" fill="#A13A67" d="m1023.20783,155.00259l-11.93632,2.48204l-14.73734,81.53743l-25.79923,0l-16.61417,80.74578l-57.14363,22.44436l-10.18035,34.48421l136.41105,0l0,-221.69382z" clip-rule="evenodd" fill-rule="evenodd"/>
   <path stroke="null" id="svg_28" fill="#4A1330" d="m1023.20783,237.12099l-4.5641,-0.36969l-19.36542,28.30608l-11.51688,56.9812l2.74415,-70.28929l-12.45529,5.38613l-17.9578,81.96074l26.26133,33.69221l0.64694,3.90803l36.15021,0l0,-139.57541l0.05687,0zm-50.01312,139.57541l-25.50776,-16.7938l-2.74415,-16.63463l-38.72373,8.34363l-6.44092,25.13742l73.41656,0l0,-0.05263z" clip-rule="evenodd" fill-rule="evenodd"/>
   <path stroke="null" id="svg_29" fill="#30071D" d="m1023.20783,263.84242l-2.22517,-0.05263l-18.42701,29.5204l-7.83432,37.44171l28.4865,41.08595l0,-107.99542zm0,110.52996l-17.43172,-6.60109l-0.70381,8.92511l18.13553,0l0,-2.32402zm-50.01312,2.32402l-11.64485,-7.65752l-13.04535,7.65752l24.6902,0zm-33.40606,0l1.46449,-9.71712l-25.33003,-2.53518l-3.91716,12.2523l27.7827,0z" clip-rule="evenodd" fill-rule="evenodd"/>
   <path stroke="null" id="svg_30" fill="#A13A67" d="m920.72182,376.6964l-17.60945,-29.83745l-15.91036,-4.43624l-4.91245,-22.60225l-70.25297,4.96446l-16.31558,51.85885l125.0008,0l0,0.05263zm-210.93237,0l-0.99458,-10.50912l-12.22495,-2.21812l-11.58228,-104.24592l-34.80444,7.71015l-6.61012,109.26301l66.21637,0zm-151.79461,0l-1.93014,-33.69221l-20.76593,3.85476l-4.73827,29.83745l27.43435,0z" clip-rule="evenodd" fill-rule="evenodd"/>
   <path stroke="null" id="svg_31" fill="#4A1330" d="m911.53675,376.69576l-7.30824,-17.11021l-14.68047,-4.38297l-3.80341,21.49318l25.79212,0zm-30.06474,0l-5.85086,-35.85706l-0.58295,-2.21812l-19.53604,-6.60109l-20.76593,10.45585l-18.95309,-3.32654l-3.39108,37.54697l69.07995,0zm-203.79617,0l-3.10032,-90.46225l-19.53746,0l-5.03046,90.46225l27.66824,0z" clip-rule="evenodd" fill-rule="evenodd"/>
   <path stroke="null" id="svg_32" fill="#30071D" d="m833.21486,376.69576l-5.90773,-5.54466l-4.50722,5.54466l10.41496,0zm-165.36605,0l-4.27049,-38.07518l-12.10836,10.98406l-1.46236,27.09112l17.84121,0z" clip-rule="evenodd" fill-rule="evenodd"/>
  </g>
  <g stroke="null" id="svg_46">
   <path stroke="null" id="svg_37" fill="#FF6198" d="m125.33747,283.02583l9.7768,-16.71434l18.07066,-10.11486l0.98863,-2.89878l7.79948,-19.79817l19.00448,-5.6742l12.85283,28.12439l19.33398,7.27784l10.87491,24.36218l-26.1449,1.48028l-19.33331,6.10587l-38.94279,-0.74006l-27.13339,-5.36581l-10.87536,0l10.87536,-9.49818l9.11767,-1.11021l3.73496,4.56406z" clip-rule="evenodd" fill-rule="evenodd"/>
   <path stroke="null" id="svg_38" fill="#A13A67" d="m116.00004,282.2237l5.43772,1.35689l2.03226,3.26885l10.87531,-9.00473l4.83346,-10.85508l16.53271,-3.51554l5.82216,16.96102l0.10988,-17.39278l-3.73496,-4.99574l3.89971,-8.32629l13.40168,-0.80183l13.01771,10.67l6.64603,21.15501l2.52664,-12.76704l11.20467,8.75805l2.36176,11.59521l-13.07245,0.74006l-19.33331,6.10595l-38.94279,-0.74006l-27.13339,-5.36589l-5.4377,0l8.9529,-6.84609z" clip-rule="evenodd" fill-rule="evenodd"/>
   <path stroke="null" id="svg_39" fill="#4A1330" d="m128.35842,292.21564l16.80734,-13.19872l4.66865,-10.11501l5.98697,2.15872l8.95292,19.42805l0.98863,-27.81603l13.73131,2.89878l12.52306,25.349l-13.45628,4.2556l-38.94279,-0.74006l-11.25981,-2.22034z" clip-rule="evenodd" fill-rule="evenodd"/>
   <path stroke="null" id="svg_40" fill="#FF6198" d="m917.26086,283.95067l-7.19609,-12.45858l-13.40422,-7.46292l-0.76767,-2.15865l-5.76755,-14.679l-14.05841,-4.19399l-9.55918,20.84663l-14.33877,5.4275l-8.07057,18.07123l19.38538,1.11021l14.33877,4.50237l28.89116,-0.55514l20.09965,-3.94723l8.07724,0l-8.07724,-7.09285l-6.75551,-0.80175l-2.797,3.39216z" clip-rule="evenodd" fill-rule="evenodd"/>
   <path stroke="null" id="svg_41" fill="#A13A67" d="m924.18325,283.3956l-4.01192,0.92513l-1.48194,2.4671l-8.07724,-6.66109l-3.62475,-8.0796l-12.19597,-2.6521l-4.33901,12.58204l-0.0534,-12.89042l2.75027,-3.63885l-2.91048,-6.22933l-9.94636,-0.55507l-9.66599,7.89453l-4.8864,15.66582l-1.92252,-9.43649l-8.23745,6.47602l-1.81571,8.63466l9.71939,0.55514l14.33877,4.50237l28.89116,-0.55514l20.09965,-3.94723l4.06532,0l-6.69543,-5.05751z" clip-rule="evenodd" fill-rule="evenodd"/>
   <path stroke="null" id="svg_42" fill="#4A1330" d="m915.06465,290.73536l-12.46966,-9.80656l-3.45786,-7.46284l-4.4525,1.60358l-6.64871,14.37054l-0.71427,-20.59987l-10.21337,2.15872l-9.28549,18.81129l9.99976,3.14547l28.89116,-0.55514l8.35093,-1.6652z" clip-rule="evenodd" fill-rule="evenodd"/>
   <path stroke="null" id="svg_43" fill="#FF6198" d="m262.1578,261.87037l4.8884,-8.32629l9.0632,-5.05743l0.49398,-1.48028l3.89977,-9.86818l9.50244,-2.89881l6.42641,14.12389l9.66666,3.63892l5.43779,12.15028l-13.07245,0.74006l-9.66732,3.08386l-19.4982,-0.37007l-13.5671,-2.71379l-5.43712,0l5.43712,-4.74905l4.5593,-0.55507l1.86711,2.28195z" clip-rule="evenodd" fill-rule="evenodd"/>
   <path stroke="null" id="svg_44" fill="#A13A67" d="m257.48902,261.50038l2.74626,0.67837l0.98863,1.60366l5.43779,-4.50237l2.41716,-5.42758l8.29353,-1.78858l2.91114,8.51136l0.05474,-8.69635l-1.86711,-2.4671l1.92185,-4.19399l6.70144,-0.37007l6.53589,5.30412l3.29565,10.5467l1.26365,-6.35264l5.602,4.37899l1.20825,5.79764l-6.53589,0.36999l-9.66732,3.08386l-19.4982,-0.37007l-13.5671,-2.71379l-2.69086,0l4.44849,-3.39216z" clip-rule="evenodd" fill-rule="evenodd"/>
   <path stroke="null" id="svg_45" fill="#4A1330" d="m263.69582,266.49619l8.40367,-6.59932l2.30702,-5.05743l3.02062,1.04852l4.44916,9.7448l0.49465,-13.93886l6.86566,1.48028l6.26153,12.64366l-6.70144,2.15865l-19.4982,-0.37007l-5.60267,-1.11021z" clip-rule="evenodd" fill-rule="evenodd"/>
  </g>
  <g stroke="null" id="svg_57">
   <path stroke="null" id="svg_50" fill="#1A1A1A" d="m609.09469,120.07555l-3.9452,0l0,218.23802l3.9452,0l0,-218.23802z"/>
   <path stroke="null" id="svg_51" fill="white" d="m605.1495,127.29734c-31.2377,-10.17941 -58.20829,18.43293 -79.54357,1.65067c-28.33937,-22.35335 -55.79313,-12.65543 -86.9504,-1.65067c5.63567,25.58599 5.63567,52.06614 0,79.37193c32.12332,-15.20054 58.12796,-18.77707 84.37409,-0.20647c21.01336,14.85665 54.66593,-16.09455 82.11988,0.20647c-2.33463,-25.65503 -2.33463,-52.13519 0,-79.37193z" clip-rule="evenodd" fill-rule="evenodd"/>
   <path stroke="null" id="svg_52" fill="#B2BFDE" d="m559.0175,131.3556c-10.86886,2.95754 -20.85221,4.95219 -29.94964,-0.06871c2.57632,27.64943 2.09324,53.37292 0,78.20274c8.77552,2.75098 19.08078,0.13709 29.94964,-2.75182c-2.89823,-24.69164 -3.78375,-49.72735 0,-75.38221z" clip-rule="evenodd" fill-rule="evenodd"/>
   <path stroke="null" id="svg_53" fill="#B2BFDE" d="m477.21963,116.29273c-12.39841,1.78826 -25.19946,6.32775 -38.56411,11.07357c5.63567,25.58599 5.63567,52.06614 0,79.37151c14.41122,-6.80933 27.53429,-11.2797 40.01332,-12.51777c3.9449,-27.78694 3.46193,-60.52607 -1.44921,-77.92732z" clip-rule="evenodd" fill-rule="evenodd"/>
   <path stroke="null" id="svg_54" fill="#FF9999" d="m605.1495,127.29734c-31.2377,-10.17941 -58.20829,18.43293 -79.54357,1.65067c-28.33937,-22.35335 -55.79313,-12.65543 -86.9504,-1.65067c2.89835,13.13684 4.34752,26.48016 4.26701,40.09849c28.74193,-11.21107 53.05587,-11.89886 77.69182,5.50238c21.25446,14.99399 54.3444,-13.34323 82.84434,-2.47605c-0.16145,-14.16861 0.40215,-28.54361 1.6908,-43.12482z" clip-rule="evenodd" fill-rule="evenodd"/>
   <path stroke="null" id="svg_55" fill="#C25959" d="m559.0175,131.3556c-10.86886,2.95754 -20.85221,4.95219 -29.94964,-0.06871c1.52974,15.81928 1.93229,30.95078 1.6907,45.73846c7.80987,1.23798 16.5848,-0.68787 25.84407,-3.09513c-0.3229,-14.03102 0.32192,-28.19963 2.41487,-42.57462z" clip-rule="evenodd" fill-rule="evenodd"/>
   <path stroke="null" id="svg_56" fill="#C25959" d="m477.21963,116.29273c-12.39841,1.78826 -25.19946,6.32775 -38.56411,11.07357c2.89835,13.13684 4.34752,26.48008 4.26701,40.09849c13.60615,-5.36479 26.24614,-8.25362 38.40306,-8.04723c0.16106,-16.98856 -1.20763,-32.73913 -4.10596,-43.12483z" clip-rule="evenodd" fill-rule="evenodd"/>
  </g>
  <g stroke="null" id="svg_91">
   <path stroke="null" id="svg_61" fill="white" d="m744.4604,142.69044c7.44652,-4.11664 29.71367,-7.06695 35.88377,-1.30359c11.91357,10.97788 28.01149,71.08145 28.22351,93.99782c0.07153,8.37037 -8.43852,17.22189 -16.87705,19.07391c-17.37434,3.84247 -40.49302,8.50796 -53.32878,-3.43053c-18.93432,-17.70136 -30.84797,-46.58715 -27.01853,-71.69901c2.83666,-18.18208 16.66494,-27.65049 33.11709,-36.6386z" clip-rule="evenodd" fill-rule="evenodd"/>
   <path stroke="null" id="svg_62" fill="#B2BFDE" d="m797.5763,252.05704c-1.91506,1.0982 -3.9008,1.92123 -5.88568,2.40154c-17.37434,3.84247 -40.49302,8.50796 -53.32878,-3.43053c-18.93432,-17.70219 -30.84797,-46.5874 -27.01853,-71.69918c2.34022,-15.36903 12.765,-24.56301 25.88432,-32.52195c15.17573,-2.47 30.70568,-4.87138 35.24426,0.06871c17.72943,19.14262 23.26002,74.10064 25.10442,105.18142z" clip-rule="evenodd" fill-rule="evenodd"/>
   <path stroke="null" id="svg_63" fill="#B2BFDE" d="m735.31256,175.48674c23.54358,-5.48894 56.44874,41.16675 38.36508,77.46254c-9.9985,20.1029 -30.35145,24.42567 -38.57796,41.09804c-5.53145,11.18384 4.39724,22.36769 0,37.05044c-10.70782,5.00821 -29.00401,7.273 -44.88905,6.31238c-2.34014,-7.68493 6.59517,-15.09469 18.15433,-15.43741c-6.0278,-8.43958 -9.64445,-24.90598 -5.95687,-35.40355c6.4533,-17.97654 13.89948,-20.03536 25.17526,-35.60952c2.90707,-11.87012 -10.56647,-31.08161 -17.51647,-37.46237c-21.48725,10.63516 -34.53564,15.64337 -52.7609,16.32965c-6.09865,-3.15619 -9.21894,-8.02765 -7.44609,-15.71175c25.52949,-4.87146 41.7691,-19.34867 64.60379,-33.20814c4.96383,-2.95031 15.10454,-4.80283 20.84887,-5.42031z" clip-rule="evenodd" fill-rule="evenodd"/>
   <path stroke="null" id="svg_64" fill="#9DABCC" d="m662.27007,229.62098c-1.56015,0.13675 -3.19114,0.20597 -4.82222,0.27434c-6.09873,-3.15619 -9.21894,-8.02765 -7.44609,-15.71175c1.91472,-0.34355 3.68758,-0.75548 5.46043,-1.23579c0.21279,0.06921 0.4255,0.20597 0.56737,0.27518c4.75129,2.12636 10.06995,7.82169 8.65166,12.69315c-0.35457,1.44009 -1.27651,2.67588 -2.41115,3.70488z" clip-rule="evenodd" fill-rule="evenodd"/>
   <path stroke="null" id="svg_65" fill="#9DABCC" d="m708.43589,322.04112c-4.53858,-6.24401 -7.65888,-17.0843 -7.44609,-26.4845c6.80779,2.81347 13.11923,4.46036 21.84208,2.26479c4.75146,13.24183 5.24704,20.17128 4.11282,29.77744c-4.25503,-4.46036 -10.70782,-5.96966 -18.50882,-5.55773z" clip-rule="evenodd" fill-rule="evenodd"/>
   <path stroke="null" id="svg_66" fill="#C25959" d="m684.53748,224.81873c-1.56015,0.54869 -3.04937,1.02899 -4.53858,1.44092c0.63821,-9.4002 -2.69479,-15.78096 -7.72973,-19.34867c1.84379,-0.89199 3.61665,-1.78398 5.3895,-2.74451c5.67323,4.59695 7.51702,12.69298 6.87881,20.65225z" clip-rule="evenodd" fill-rule="evenodd"/>
   <path stroke="null" id="svg_67" fill="#C25959" d="m737.65252,289.79376c-0.92133,1.30334 -1.77286,2.74426 -2.55285,4.2544c-6.73634,-17.01592 -18.50856,-20.85839 -28.08207,-17.42785c1.27642,-2.19558 2.55293,-4.0476 3.90029,-5.76286c12.26822,-3.36216 22.48047,7.54651 26.73463,18.93632z" clip-rule="evenodd" fill-rule="evenodd"/>
   <path stroke="null" id="svg_68" fill="#C25959" d="m743.18397,283.48054c-0.92133,0.89224 -1.84353,1.78448 -2.62352,2.74509c-4.96434,-16.46723 -14.04151,-22.91637 -22.76359,-23.12234c1.41777,-1.5093 2.8364,-3.15619 4.39638,-4.93984c10.85002,1.9204 19.00586,14.61354 20.99073,25.31708z" clip-rule="evenodd" fill-rule="evenodd"/>
   <path stroke="null" id="svg_69" fill="white" d="m724.10831,124.57683c-19.85643,0 -35.88325,15.57481 -35.88325,34.71743c0,19.14262 16.09766,34.71745 35.88325,34.71745c19.85566,0 35.8829,-15.57483 35.8829,-34.71745c0,-19.14262 -16.02725,-34.71743 -35.8829,-34.71743z" clip-rule="evenodd" fill-rule="evenodd"/>
   <path stroke="null" id="svg_70" fill="#B2BFDE" d="m721.90969,124.64564c-18.79246,1.09779 -33.75565,16.19236 -33.75565,34.64887c0,19.21116 16.09784,34.71736 35.88273,34.71736c4.39724,0 8.58073,-0.75465 12.48153,-2.12695c2.12708,-7.47863 0.21288,-19.34842 0.21288,-31.08103c0.07067,-14.54558 -5.39011,-29.70877 -14.8215,-36.15825z" clip-rule="evenodd" fill-rule="evenodd"/>
   <path stroke="null" id="svg_71" fill="white" d="m780.8406,228.66036c14.82064,29.36635 8.5092,43.15686 11.91357,67.10223c1.98574,13.85973 6.59499,22.2301 4.60926,41.71594c-2.26929,8.50796 -29.99723,8.23362 -36.8051,2.95023c-0.42576,-8.16441 5.46078,-14.06569 11.55934,-13.4478c-0.70932,-17.97654 -22.69292,-30.73806 -17.30367,-57.70203c2.26929,-19.00553 11.48867,-34.03184 26.02661,-40.61857z" clip-rule="evenodd" fill-rule="evenodd"/>
   <path stroke="null" id="svg_72" fill="#D0DAF2" d="m772.11766,326.98096c-0.42576,-10.08564 -7.44566,-18.52522 -12.62288,-28.68007c9.00649,3.91084 17.6579,4.94067 25.52932,-0.13675c4.75146,13.24183 6.80787,24.83761 5.67366,34.44294c-4.3257,-4.45953 -10.77935,-5.96966 -18.58009,-5.62611z" clip-rule="evenodd" fill-rule="evenodd"/>
   <path stroke="null" id="svg_73" fill="#FF9999" d="m791.61909,281.01146c0,1.92123 0.14221,3.77325 0.21288,5.7637c-12.90643,-13.9281 -26.94795,-5.83208 -35.17359,5.28256c-0.56711,-1.57768 -1.13508,-3.29295 -1.55998,-5.07743c13.26066,-17.15267 28.29504,-14.54517 36.52069,-5.96883z" clip-rule="evenodd" fill-rule="evenodd"/>
   <path stroke="null" id="svg_74" fill="#FF9999" d="m791.4062,271.26854c-0.07067,1.85286 0.14221,4.04843 0.14221,5.90045c-13.96998,-17.90733 -28.7208,-9.53695 -37.44288,2.46992c-0.14221,-2.33233 0,-4.80225 0.35423,-7.40976c14.11218,-16.74158 29.35858,-11.38981 36.94645,-0.96062z" clip-rule="evenodd" fill-rule="evenodd"/>
   <path stroke="null" id="svg_75" fill="white" d="m752.40335,177.20209c11.34646,-11.80124 36.94645,13.37925 35.52868,35.54056c-1.4893,22.64203 -22.97647,36.70772 -39.2166,40.00067c-11.0629,2.26395 -22.26715,-9.87967 -12.69355,-15.71175c18.43789,-11.18384 26.09642,-20.17211 23.40223,-30.25792c-3.33283,-12.55589 -17.6579,-18.52514 -7.02076,-29.57156z" clip-rule="evenodd" fill-rule="evenodd"/>
   <path stroke="null" id="svg_76" fill="#D0DAF2" d="m748.71542,252.74332c-11.0629,2.19558 -22.26715,-9.87967 -12.69355,-15.71175c0.77999,-0.48031 1.4893,-0.89224 2.12708,-1.37255c1.27728,0.41193 2.48217,0.89224 3.61725,1.37255c4.75146,2.19558 10.07004,7.82169 8.65141,12.69315c-0.35423,1.23496 -0.9222,2.19558 -1.70218,3.0186z" clip-rule="evenodd" fill-rule="evenodd"/>
   <path stroke="null" id="svg_77" fill="#9DABCC" d="m775.87625,183.17075c1.70218,1.85252 3.33283,3.84222 4.82214,6.03779c-4.46791,3.29336 -8.01362,5.76337 -12.48153,7.34146c-1.27642,-2.2642 -3.40351,-4.87138 -4.60926,-7.13558c4.53858,-1.50947 8.36785,-3.15619 12.26865,-6.24367z" clip-rule="evenodd" fill-rule="evenodd"/>
   <path stroke="null" id="svg_78" fill="#FF9999" d="m779.98907,233.32585c-0.92133,1.16658 -1.84353,2.33316 -2.8364,3.43053c-4.89281,-11.93849 -12.26865,-17.22105 -19.57296,-17.9757c0.99287,-1.71527 1.70218,-3.43137 2.05727,-5.21501c9.43139,1.16658 16.94858,10.36082 20.35209,19.76018z" clip-rule="evenodd" fill-rule="evenodd"/>
   <path stroke="null" id="svg_79" fill="#4D4D4D" d="m688.43776,155.10899c9.71538,7.34146 37.15984,8.09611 56.09417,-3.70504c5.74347,9.67421 5.03502,19.14262 2.8364,28.61103c-9.00649,10.08589 -25.8844,12.41864 -40.13811,10.01726c-11.34637,-5.83199 -19.07618,-17.35872 -19.07618,-30.66935c0,-1.44084 0.07093,-2.88168 0.28373,-4.2539z" clip-rule="evenodd" fill-rule="evenodd"/>
   <path stroke="null" id="svg_80" fill="#1A1A1A" d="m688.43776,155.10916c8.43896,6.38084 30.13909,7.82169 48.15121,0.4116c0.14221,1.78389 0.21288,3.49925 0.21288,5.28314c0,9.46841 1.27642,19.07399 0.63864,26.2782c-8.93582,3.97947 -20.21074,4.59695 -30.13926,2.88168c-11.34646,-5.83199 -19.07618,-17.35872 -19.07618,-30.66935c-0.07093,-1.37221 0,-2.81306 0.21271,-4.18527z" clip-rule="evenodd" fill-rule="evenodd"/>
   <path stroke="null" id="svg_81" fill="#D0DAF2" d="m771.97545,284.3044c-6.02702,0 -10.99137,3.77325 -10.99137,8.50796c0,4.66549 4.89281,8.43875 10.99137,8.43875c6.02789,0 10.92156,-3.77325 10.92156,-8.43875c0.07067,-4.73471 -4.89367,-8.50796 -10.92156,-8.50796z" clip-rule="evenodd" fill-rule="evenodd"/>
   <path stroke="null" id="svg_82" fill="#D0DAF2" d="m712.26533,279.22698c-6.0278,0 -10.92096,3.77409 -10.92096,8.50796c0,4.66549 4.89315,8.43958 10.92096,8.43958c6.02797,0 10.99146,-3.77409 10.99146,-8.43958c-0.07067,-4.73387 -4.96348,-8.50796 -10.99146,-8.50796z" clip-rule="evenodd" fill-rule="evenodd"/>
   <path stroke="null" id="svg_83" fill="white" d="m775.80558,183.99445c-3.26216,2.67588 -6.95008,4.39115 -10.77935,5.62611c0.99287,1.78398 2.62352,3.77367 3.61639,5.55757c3.61725,-1.30367 7.02076,-3.49916 10.63714,-6.24367c-1.06354,-1.71527 -2.55285,-3.15611 -3.47418,-4.94z" clip-rule="evenodd" fill-rule="evenodd"/>
   <path stroke="null" id="svg_84" fill="#FF9999" d="m775.80558,183.99445c-3.26216,2.67588 -6.95008,4.39115 -10.77935,5.62611c0.56711,1.02924 1.3471,2.0584 2.05641,3.15619c3.54571,-1.44084 7.02076,-3.56787 10.56647,-6.17505c-0.70932,-0.82336 -1.3471,-1.64672 -1.84353,-2.60726z" clip-rule="evenodd" fill-rule="evenodd"/>
   <path stroke="null" id="svg_85" fill="#B2BFDE" d="m739.85114,142.69027c-1.63065,0 -2.90707,1.30367 -2.90707,2.81306c0,1.5781 1.3471,2.81306 2.90707,2.81306c1.63151,0 2.90793,-1.23496 2.90793,-2.81306c0,-1.50939 -1.27642,-2.81306 -2.90793,-2.81306z" clip-rule="evenodd" fill-rule="evenodd"/>
   <path stroke="null" id="svg_86" fill="white" d="m740.06402,143.3075c-1.13508,0 -2.05641,0.89191 -2.05641,1.98969c0,1.09779 0.92133,1.98978 2.05641,1.98978c1.13421,0 2.05641,-0.89199 2.05641,-1.98978c0,-1.09779 -0.9222,-1.98969 -2.05641,-1.98969z" clip-rule="evenodd" fill-rule="evenodd"/>
   <path stroke="null" id="svg_87" fill="#9DABCC" d="m731.76684,146.18944c-1.63065,0 -2.90707,1.30359 -2.90707,2.81306c0,1.57801 1.3471,2.81306 2.90707,2.81306c1.63151,0 2.90793,-1.30359 2.90793,-2.81306c0,-1.50947 -1.34796,-2.81306 -2.90793,-2.81306z" clip-rule="evenodd" fill-rule="evenodd"/>
   <path stroke="null" id="svg_88" fill="white" d="m731.97972,146.80708c-1.13508,0 -2.05641,0.89199 -2.05641,1.98978c0,1.09779 0.92133,1.98969 2.05641,1.98969c1.13421,0 2.05641,-0.89191 2.05641,-1.98969c0,-1.09779 -0.9222,-1.98978 -2.05641,-1.98978z" clip-rule="evenodd" fill-rule="evenodd"/>
   <path stroke="null" id="svg_89" fill="white" d="m737.51117,238.60925c4.75146,2.1272 10.07004,7.82169 8.65141,12.69315c-1.4893,5.1458 -9.07717,7.41059 -14.67929,7.68493c-5.74433,0.27434 -13.18999,-1.30417 -16.02725,-6.17563c-1.98522,-3.36132 0.42576,-6.58589 6.95008,-9.46774c-5.31857,-0.41193 -7.87159,-3.98005 -5.60213,-5.42098c5.81501,-3.56729 14.46641,-2.12636 20.70718,0.68627z" clip-rule="evenodd" fill-rule="evenodd"/>
   <path stroke="null" id="svg_90" fill="#B2BFDE" d="m651.91648,213.77164c4.75129,2.1272 10.06995,7.82169 8.65166,12.69315c-1.48922,5.1458 -9.07717,7.47897 -14.67946,7.75331c-5.74416,0.27434 -13.19024,-1.37171 -16.02684,-6.1748c-1.98563,-3.36216 0.42553,-6.58673 6.94972,-9.46858c-5.31863,-0.41193 -7.8716,-3.97922 -5.60231,-5.42014c5.81505,-3.6365 14.46673,-2.19558 20.70724,0.61706z" clip-rule="evenodd" fill-rule="evenodd"/>
  </g>
 </g>
</svg>