<svg width="1368" height="439" viewBox="0 0 1368 439" fill="none" xmlns="http://www.w3.org/2000/svg">
<g opacity="0.4">
<path fill-rule="evenodd" clip-rule="evenodd" d="M826.933 130.004C828.908 130.004 830.471 131.65 830.471 133.542C830.471 135.517 828.908 137.08 826.933 137.08C824.958 137.08 823.395 135.517 823.395 133.542C823.395 131.65 825.041 130.004 826.933 130.004Z" fill="white"/>
<path fill-rule="evenodd" clip-rule="evenodd" d="M304.037 13.4937C306.012 13.4937 307.575 15.1393 307.575 17.0317C307.575 18.9242 305.93 20.5698 304.037 20.5698C302.145 20.5698 300.499 19.0065 300.499 17.0317C300.499 15.057 302.063 13.4937 304.037 13.4937Z" fill="white"/>
<path fill-rule="evenodd" clip-rule="evenodd" d="M44.9344 151.644C46.9092 151.644 48.4725 153.207 48.4725 155.182C48.4725 157.157 46.9092 158.72 44.9344 158.72C42.9597 158.72 41.3963 157.157 41.3963 155.182C41.3963 153.207 42.9597 151.644 44.9344 151.644Z" fill="white"/>
<path fill-rule="evenodd" clip-rule="evenodd" d="M468.599 247.089C470.574 247.089 472.137 248.653 472.137 250.627C472.137 252.602 470.492 254.166 468.599 254.166C466.625 254.166 465.061 252.602 465.061 250.627C465.061 248.735 466.625 247.089 468.599 247.089Z" fill="white"/>
<path fill-rule="evenodd" clip-rule="evenodd" d="M1009.1 64.2617C1011.08 64.2617 1012.64 65.8251 1012.64 67.7998C1012.64 69.7745 1011.08 71.3379 1009.1 71.3379C1007.13 71.3379 1005.57 69.7745 1005.57 67.7998C1005.57 65.8251 1007.13 64.2617 1009.1 64.2617Z" fill="white"/>
<path fill-rule="evenodd" clip-rule="evenodd" d="M1216.37 239.026C1218.34 239.026 1219.91 240.59 1219.91 242.564C1219.91 244.539 1218.34 246.103 1216.37 246.103C1214.39 246.103 1212.83 244.539 1212.83 242.564C1212.75 240.59 1214.39 239.026 1216.37 239.026Z" fill="white"/>
<path fill-rule="evenodd" clip-rule="evenodd" d="M511.797 283.129C512.784 283.129 513.607 283.952 513.607 284.94C513.607 285.927 512.867 286.75 511.797 286.75C510.809 286.75 510.069 285.927 510.069 284.94C510.069 283.952 510.809 283.129 511.797 283.129Z" fill="white"/>
<path fill-rule="evenodd" clip-rule="evenodd" d="M605.762 158.967C606.749 158.967 607.49 159.708 607.49 160.695C607.49 161.683 606.749 162.505 605.762 162.505C604.774 162.505 603.952 161.765 603.952 160.695C603.952 159.708 604.774 158.967 605.762 158.967Z" fill="white"/>
<path fill-rule="evenodd" clip-rule="evenodd" d="M466.542 82.7749C467.53 82.7749 468.27 83.5977 468.27 84.5851C468.27 85.5725 467.53 86.313 466.542 86.313C465.555 86.313 464.732 85.5725 464.732 84.5851C464.814 83.5154 465.637 82.7749 466.542 82.7749Z" fill="white"/>
<path fill-rule="evenodd" clip-rule="evenodd" d="M385.249 191.468C386.236 191.468 387.059 192.208 387.059 193.196C387.059 194.183 386.236 195.006 385.249 195.006C384.261 195.006 383.521 194.183 383.521 193.196C383.521 192.208 384.261 191.468 385.249 191.468Z" fill="white"/>
<path fill-rule="evenodd" clip-rule="evenodd" d="M194.274 51.2607C195.262 51.2607 196.085 52.0836 196.085 53.0709C196.085 54.0583 195.262 54.8811 194.274 54.8811C193.287 54.8811 192.464 54.0583 192.464 53.0709C192.464 52.0836 193.287 51.2607 194.274 51.2607Z" fill="white"/>
<path fill-rule="evenodd" clip-rule="evenodd" d="M32.7568 8.55713C33.7442 8.55713 34.567 9.29766 34.567 10.285C34.567 11.2724 33.7442 12.0952 32.7568 12.0952C31.7695 12.0952 30.9466 11.2724 30.9466 10.285C30.9466 9.37994 31.7695 8.55713 32.7568 8.55713Z" fill="white"/>
<path fill-rule="evenodd" clip-rule="evenodd" d="M146.551 182.335C147.539 182.335 148.362 183.158 148.362 184.145C148.362 185.133 147.539 185.955 146.551 185.955C145.564 185.955 144.741 185.133 144.741 184.145C144.741 183.158 145.564 182.335 146.551 182.335Z" fill="white"/>
<path fill-rule="evenodd" clip-rule="evenodd" d="M8.40164 262.559C9.38901 262.559 10.2118 263.382 10.2118 264.369C10.2118 265.357 9.38901 266.179 8.40164 266.179C7.41427 266.179 6.67374 265.357 6.67374 264.369C6.67374 263.382 7.41427 262.559 8.40164 262.559Z" fill="white"/>
<path fill-rule="evenodd" clip-rule="evenodd" d="M89.3662 327.313C90.3535 327.313 91.0941 328.136 91.0941 329.124C91.0941 330.111 90.3535 330.852 89.3662 330.852C88.3788 330.852 87.556 330.111 87.556 329.124C87.6383 328.136 88.4611 327.313 89.3662 327.313Z" fill="white"/>
<path fill-rule="evenodd" clip-rule="evenodd" d="M509.987 15.4683C510.974 15.4683 511.715 16.2088 511.715 17.1962C511.715 18.1835 510.974 19.0063 509.987 19.0063C508.999 19.0063 508.177 18.2658 508.177 17.1962C508.259 16.2088 508.999 15.4683 509.987 15.4683Z" fill="white"/>
<path fill-rule="evenodd" clip-rule="evenodd" d="M753.785 286.667C754.773 286.667 755.596 287.49 755.596 288.477C755.596 289.465 754.773 290.205 753.785 290.205C752.798 290.205 752.057 289.465 752.057 288.477C752.057 287.49 752.798 286.667 753.785 286.667Z" fill="white"/>
<path fill-rule="evenodd" clip-rule="evenodd" d="M591.28 366.973C592.268 366.973 593.09 367.714 593.09 368.783C593.09 369.771 592.268 370.511 591.28 370.511C590.293 370.511 589.47 369.771 589.47 368.783C589.47 367.714 590.293 366.973 591.28 366.973Z" fill="white"/>
<path fill-rule="evenodd" clip-rule="evenodd" d="M935.709 329.371C936.696 329.371 937.519 330.111 937.519 331.099C937.519 332.086 936.696 332.909 935.709 332.909C934.721 332.909 933.898 332.086 933.898 331.099C933.898 330.111 934.721 329.371 935.709 329.371Z" fill="white"/>
<path fill-rule="evenodd" clip-rule="evenodd" d="M1045.39 215.083C1046.38 215.083 1047.2 215.823 1047.2 216.893C1047.2 217.88 1046.38 218.621 1045.39 218.621C1044.4 218.621 1043.58 217.88 1043.58 216.893C1043.58 215.823 1044.4 215.083 1045.39 215.083Z" fill="white"/>
<path fill-rule="evenodd" clip-rule="evenodd" d="M1342.01 332.909C1343 332.909 1343.82 333.732 1343.82 334.719C1343.82 335.707 1343 336.53 1342.01 336.53C1341.02 336.53 1340.2 335.707 1340.2 334.719C1340.2 333.732 1341.02 332.909 1342.01 332.909Z" fill="white"/>
<path fill-rule="evenodd" clip-rule="evenodd" d="M1355.09 219.608C1355.67 219.608 1356.16 220.102 1356.16 220.678C1356.16 221.254 1355.67 221.747 1355.09 221.747C1354.52 221.747 1354.03 221.254 1354.03 220.678C1354.03 220.102 1354.52 219.608 1355.09 219.608Z" fill="white"/>
<path fill-rule="evenodd" clip-rule="evenodd" d="M1366.45 62.0396C1367.03 62.0396 1367.52 62.5332 1367.52 63.1092C1367.52 63.6852 1367.03 64.1789 1366.45 64.1789C1365.87 64.1789 1365.38 63.6852 1365.38 63.1092C1365.38 62.5332 1365.87 62.0396 1366.45 62.0396Z" fill="white"/>
<path fill-rule="evenodd" clip-rule="evenodd" d="M1291.33 9.21533C1291.9 9.21533 1292.4 9.70902 1292.4 10.285C1292.4 10.861 1291.9 11.3546 1291.33 11.3546C1290.75 11.3546 1290.26 10.861 1290.26 10.285C1290.18 9.62674 1290.67 9.21533 1291.33 9.21533Z" fill="white"/>
<path fill-rule="evenodd" clip-rule="evenodd" d="M1060.69 93.5537C1061.27 93.5537 1061.76 94.0474 1061.76 94.6234C1061.76 95.1993 1061.27 95.693 1060.69 95.693C1060.12 95.693 1059.62 95.1993 1059.62 94.6234C1059.62 93.9651 1060.12 93.5537 1060.69 93.5537Z" fill="white"/>
<path fill-rule="evenodd" clip-rule="evenodd" d="M908.309 19.3359C908.885 19.3359 909.379 19.8296 909.379 20.4056C909.379 20.9816 908.885 21.4752 908.309 21.4752C907.733 21.4752 907.239 20.9816 907.239 20.4056C907.157 19.8296 907.651 19.3359 908.309 19.3359Z" fill="white"/>
<path fill-rule="evenodd" clip-rule="evenodd" d="M874.738 131.074C875.314 131.074 875.808 131.567 875.808 132.143C875.808 132.719 875.314 133.213 874.738 133.213C874.162 133.213 873.669 132.719 873.669 132.143C873.669 131.567 874.162 131.074 874.738 131.074Z" fill="white"/>
<path fill-rule="evenodd" clip-rule="evenodd" d="M944.842 235.735C945.418 235.735 945.911 236.229 945.911 236.805C945.911 237.381 945.418 237.875 944.842 237.875C944.266 237.875 943.772 237.381 943.772 236.805C943.772 236.229 944.266 235.735 944.842 235.735Z" fill="white"/>
<path fill-rule="evenodd" clip-rule="evenodd" d="M862.561 332.25C863.137 332.25 863.63 332.744 863.63 333.32C863.63 333.896 863.137 334.39 862.561 334.39C861.985 334.39 861.491 333.896 861.491 333.32C861.491 332.744 861.985 332.25 862.561 332.25Z" fill="white"/>
<path fill-rule="evenodd" clip-rule="evenodd" d="M965.083 436.83C965.659 436.83 966.153 437.323 966.153 437.899C966.153 438.475 965.659 438.969 965.083 438.969C964.507 438.969 964.013 438.475 964.013 437.899C964.013 437.323 964.507 436.83 965.083 436.83Z" fill="white"/>
<path fill-rule="evenodd" clip-rule="evenodd" d="M1101.34 329.124C1101.92 329.124 1102.41 329.618 1102.41 330.194C1102.41 330.77 1101.92 331.263 1101.34 331.263C1100.76 331.263 1100.27 330.77 1100.27 330.194C1100.27 329.618 1100.76 329.124 1101.34 329.124Z" fill="white"/>
<path fill-rule="evenodd" clip-rule="evenodd" d="M752.798 191.057C753.374 191.057 753.868 191.55 753.868 192.126C753.868 192.702 753.374 193.196 752.798 193.196C752.222 193.196 751.728 192.702 751.728 192.126C751.728 191.55 752.222 191.057 752.798 191.057Z" fill="white"/>
<path fill-rule="evenodd" clip-rule="evenodd" d="M596.382 300.737C596.958 300.737 597.451 301.231 597.451 301.807C597.451 302.383 596.958 302.877 596.382 302.877C595.806 302.877 595.312 302.383 595.312 301.807C595.312 301.231 595.806 300.737 596.382 300.737Z" fill="white"/>
<path fill-rule="evenodd" clip-rule="evenodd" d="M407.465 337.353C408.04 337.353 408.534 337.846 408.534 338.422C408.534 338.998 408.04 339.492 407.465 339.492C406.889 339.492 406.395 338.998 406.395 338.422C406.313 337.846 406.806 337.353 407.465 337.353Z" fill="white"/>
<path fill-rule="evenodd" clip-rule="evenodd" d="M405.408 260.09C405.983 260.09 406.477 260.584 406.477 261.16C406.477 261.736 405.983 262.23 405.408 262.23C404.832 262.23 404.338 261.736 404.338 261.16C404.338 260.584 404.832 260.09 405.408 260.09Z" fill="white"/>
<path fill-rule="evenodd" clip-rule="evenodd" d="M496.822 150.409C497.398 150.409 497.891 150.903 497.891 151.479C497.891 152.055 497.398 152.548 496.822 152.548C496.246 152.548 495.752 152.055 495.752 151.479C495.752 150.903 496.246 150.409 496.822 150.409Z" fill="white"/>
<path fill-rule="evenodd" clip-rule="evenodd" d="M326.171 99.5601C326.747 99.5601 327.241 100.054 327.241 100.63C327.241 101.206 326.747 101.699 326.171 101.699C325.595 101.699 325.101 101.206 325.101 100.63C325.101 100.054 325.513 99.5601 326.171 99.5601Z" fill="white"/>
<path fill-rule="evenodd" clip-rule="evenodd" d="M110.759 77.2617C111.335 77.2617 111.829 77.7554 111.829 78.3314C111.829 78.9073 111.335 79.401 110.759 79.401C110.183 79.401 109.69 78.9073 109.69 78.3314C109.69 77.7554 110.183 77.2617 110.759 77.2617Z" fill="white"/>
<path fill-rule="evenodd" clip-rule="evenodd" d="M1.07864 119.884C1.6546 119.884 2.14829 120.377 2.14829 120.953C2.14829 121.529 1.6546 122.023 1.07864 122.023C0.502668 122.023 0.00897939 121.529 0.00897939 120.953C-0.0733016 120.377 0.420387 119.884 1.07864 119.884Z" fill="white"/>
<path fill-rule="evenodd" clip-rule="evenodd" d="M141.203 300.737C141.779 300.737 142.273 301.231 142.273 301.807C142.273 302.383 141.779 302.877 141.203 302.877C140.627 302.877 140.134 302.383 140.134 301.807C140.216 301.231 140.627 300.737 141.203 300.737Z" fill="white"/>
<path fill-rule="evenodd" clip-rule="evenodd" d="M59.9918 398.322C60.5678 398.322 61.0615 398.816 61.0615 399.392C61.0615 399.968 60.5678 400.462 59.9918 400.462C59.4159 400.462 58.9222 399.968 58.9222 399.392C58.8399 398.816 59.3336 398.322 59.9918 398.322Z" fill="white"/>
<path fill-rule="evenodd" clip-rule="evenodd" d="M135.114 14.2344C135.69 14.2344 136.184 14.7281 136.184 15.304C136.184 15.88 135.69 16.3737 135.114 16.3737C134.538 16.3737 134.045 15.88 134.045 15.304C134.045 14.7281 134.538 14.2344 135.114 14.2344Z" fill="white"/>
<path fill-rule="evenodd" clip-rule="evenodd" d="M647.149 30.5264C647.725 30.5264 648.219 31.02 648.219 31.596C648.219 32.172 647.725 32.6657 647.149 32.6657C646.573 32.6657 646.079 32.172 646.079 31.596C646.079 31.02 646.573 30.5264 647.149 30.5264Z" fill="white"/>
<path fill-rule="evenodd" clip-rule="evenodd" d="M767.033 0C767.609 0 768.102 0.493685 768.102 1.06965C768.102 1.64562 767.609 2.13931 767.033 2.13931C766.457 2.13931 765.963 1.64562 765.963 1.06965C765.963 0.493685 766.457 0 767.033 0Z" fill="white"/>
<path fill-rule="evenodd" clip-rule="evenodd" d="M1191.68 164.645C1192.26 164.645 1192.75 165.138 1192.75 165.714C1192.75 166.29 1192.26 166.784 1191.68 166.784C1191.11 166.784 1190.62 166.29 1190.62 165.714C1190.62 165.138 1191.11 164.645 1191.68 164.645Z" fill="white"/>
<path fill-rule="evenodd" clip-rule="evenodd" d="M1140.92 24.4375C1141.49 24.4375 1141.99 24.9312 1141.99 25.5072C1141.99 26.0831 1141.49 26.5768 1140.92 26.5768C1140.34 26.5768 1139.85 26.0831 1139.85 25.5072C1139.85 24.9312 1140.34 24.4375 1140.92 24.4375Z" fill="white"/>
</g>
</svg>
