<svg width="32" height="32" viewBox="0 0 32 32" fill="none" xmlns="http://www.w3.org/2000/svg">
<path d="M1.04 16C0.465624 16 -0.00352104 15.5338 0.0337841 14.9607C0.215957 12.1617 1.13143 9.45315 2.69649 7.11087C4.45459 4.47969 6.95345 2.42893 9.87707 1.21793C12.8007 0.0069248 16.0178 -0.309928 19.1214 0.307436C22.2251 0.9248 25.0761 2.44865 27.3137 4.68629C29.5514 6.92393 31.0752 9.77486 31.6926 12.8786C32.3099 15.9823 31.9931 19.1993 30.7821 22.1229C29.5711 25.0466 27.5203 27.5454 24.8891 29.3035C22.5468 30.8686 19.8383 31.784 17.0393 31.9662C16.4662 32.0035 16 31.5344 16 30.96C16 30.3856 16.4663 29.924 17.039 29.8812C19.4262 29.7025 21.7334 28.9105 23.7335 27.5741C26.0227 26.0445 27.8068 23.8705 28.8604 21.327C29.914 18.7834 30.1896 15.9846 29.6525 13.2843C29.1154 10.5841 27.7897 8.10382 25.8429 6.15708C23.8962 4.21033 21.4159 2.88458 18.7157 2.34747C16.0154 1.81036 13.2166 2.08602 10.673 3.1396C8.1295 4.19317 5.95549 5.97733 4.42594 8.26646C3.08949 10.2666 2.2975 12.5738 2.11883 14.9609C2.07596 15.5337 1.61438 16 1.04 16Z" fill="#1EABD6"/>
</svg>
