<svg width="741" height="566" viewBox="0 0 741 566" fill="none" xmlns="http://www.w3.org/2000/svg">
<path fill-rule="evenodd" clip-rule="evenodd" d="M315.391 93.3589C310.258 93.3589 306.729 93.7164 304.804 94.4319C302.88 95.1472 301.345 96.3238 300.199 97.9618C299.053 99.5996 298.48 101.526 298.48 103.741C298.48 107.478 299.638 110.154 301.952 111.769C304.266 113.384 308.494 114.192 314.635 114.192L320.685 114.192L320.685 93.3589L315.391 93.3589ZM369.244 88.5235L377.164 88.5235L377.164 96.2826L369.244 96.2826L369.244 88.5235ZM357.628 88.5235L365.548 88.5235L365.548 96.2826L357.628 96.2826L357.628 88.5235ZM319.536 74.5264L339.993 74.5264L339.993 176L320.685 176L320.685 133.024L318.918 133.024L296.108 176L275 176L299.03 130.885C292.594 128.586 287.779 125.194 284.585 120.711C281.39 116.227 279.792 110.651 279.792 103.982C279.792 97.6356 281.239 92.1402 284.132 87.4953C287.025 82.8504 290.848 79.5278 295.601 77.5272C300.354 75.5269 308.332 74.5264 319.536 74.5264ZM520.238 -1.92996e-05L520.366 0.101313L520.493 -1.92773e-05L623.148 81.5268L623.011 81.6982L741 176L685.282 176L520.366 45.0264L355.449 176L339.993 176L339.993 143.486L346.322 138.447L346.011 138.447L346.011 101.862L353.931 101.862L353.931 132.387L357.998 129.148L357.628 129.148L357.628 101.862L365.548 101.862L365.548 122.852L369.244 119.916L369.244 101.862L377.164 101.862L377.164 113.626L380.861 110.691L380.861 82.9443L377.165 82.9443L377.165 82.9444L369.244 82.9444L369.244 82.9443L365.548 82.9443L365.548 82.9444L357.628 82.9444L357.628 82.9443L353.931 82.9443L353.931 82.9444L346.011 82.9444L346.011 88.5235L353.931 88.5235L353.931 96.2826L346.011 96.2826L346.011 74.227L346.011 74.2268L369.244 74.2268L377.165 74.2268L395.645 74.2268L395.645 82.9443L388.781 82.9443L388.781 104.4L520.238 -1.92996e-05Z" fill="#EE2A7B"/>
<path fill-rule="evenodd" clip-rule="evenodd" d="M671.81 182.39H713.45C721.82 182.39 726 186.582 726 194.967V225.966H705.31V199.838H680.03V224.903L721.49 264.05C724.5 266.885 726 270.634 726 275.299V308.335C726 316.778 721.82 321 713.45 321H671.81C663.5 321 659.34 316.778 659.34 308.335V275.299H680.03V303.552H705.31V276.361L663.85 237.037C660.85 234.144 659.34 230.453 659.34 225.966V195.144C659.34 186.641 663.5 182.39 671.81 182.39ZM302.55 182.39H345.78C354.21 182.39 358.43 186.641 358.43 195.144V224.726H337.65V200.192H310.69V303.198H337.65V264.405H322.27V246.78H358.43V308.335C358.43 316.778 354.21 321 345.78 321H302.29C294.1 321 290 316.778 290 308.335V195.144C290 186.641 294.18 182.39 302.55 182.39ZM568.1 155H592.88V225.219L620.4 155H647.51V156.167L613.84 234.977L651.64 321H624.32L592.88 246.963V321H568.1V155Z" fill="white"/>
<path fill-rule="evenodd" clip-rule="evenodd" d="M549 105L459.832 105L459.832 133.57L516.55 133.57L516.55 196.645L467.736 196.645L467.736 224.663L516.55 224.663L516.55 292.43L459 292.43L459 321L549 321L549 105Z" fill="white"/>
<path fill-rule="evenodd" clip-rule="evenodd" d="M376 168H439.41V188.237H399.08V232.915H433.79V252.761H399.08V300.763H440V321H376V168Z" fill="#EE2A7B"/>
<path fill-rule="evenodd" clip-rule="evenodd" d="M112.51 217.571V222.377H229.58V217.571H112.51ZM96.45 201.548V206.355H145.04V201.548H96.45ZM96.45 185.526V190.333H124.55V185.526H96.45ZM112.51 169.504V174.311H199.47V169.504H112.51ZM112.51 153.482V158.288H199.47V153.482H112.51ZM96.45 137.46V142.266H135.03V137.46H96.45ZM80.4 121.437V126.244H156.66V121.437H80.4ZM75.48 105H243.52C251.52 105 258 111.469 258 119.45V218.55C258 226.531 251.52 233 243.52 233H75.48C67.48 233 61 226.531 61 218.55V119.45C61 111.469 67.48 105 75.48 105Z" fill="white"/>
<path fill-rule="evenodd" clip-rule="evenodd" d="M41.598 239.5H278.4L278.5 239.725C278.5 243.467 275.32 246.5 271.4 246.5H48.6C46.639 246.5 44.864 245.742 43.58 244.516L41.5 239.725L41.598 239.5Z" fill="white" stroke="white" stroke-width="2.66667" stroke-miterlimit="10" stroke-linejoin="round"/>
<path d="M275.826 483.385C275.826 488.569 274.133 492.801 270.748 496.081C267.362 499.36 263.078 501 257.894 501H193.941C188.757 501 184.525 499.36 181.246 496.081C177.966 492.801 176.326 488.569 176.326 483.385V270.263C176.326 265.079 177.966 260.847 181.246 257.567C184.525 254.288 188.757 252.648 193.941 252.648H257.894C263.078 252.648 267.362 254.288 270.748 257.567C274.133 260.847 275.826 265.079 275.826 270.263V328.026H253.609V272.167H198.385V481.481H253.609V420.385H275.826V483.385Z" fill="#EE2A7B"/>
<path fill-rule="evenodd" clip-rule="evenodd" d="M251.68 336.034H271.36C272.95 336.034 274.27 336.539 275.31 337.548C276.36 338.557 276.88 339.859 276.88 341.454V359.228H270.04V342.04H253.05V406.444H270.04V387.646H276.88V407.03C276.88 408.625 276.36 409.928 275.31 410.937C274.27 411.946 272.95 412.45 271.36 412.45H251.68C250.09 412.45 248.78 411.946 247.78 410.937C246.77 409.928 246.26 408.625 246.26 407.03V341.454C246.26 339.859 246.77 338.557 247.78 337.548C248.78 336.539 250.09 336.034 251.68 336.034Z" fill="white"/>
<path fill-rule="evenodd" clip-rule="evenodd" d="M390.55 342.04V376.073H407.25V342.04H390.55ZM295.55 342.04V406.444H314.25V342.04H295.55ZM623.76 336.034H648.57V342.04H630.55V370.556H646.95V376.659H630.55V406.444H648.86V412.45H623.76V336.034ZM581.73 336.034H588.47L597.94 396.874C597.94 396.874 598.04 398.534 598.24 401.855C598.27 400.715 598.38 399.055 598.58 396.874L608.05 336.034H614.6L601.36 412.646H594.97L581.73 336.034ZM565.15 336.034H571.94V412.45H565.15V336.034ZM525.56 336.034H556.08V342.04H544.26V412.45H537.48V342.04H525.56V336.034ZM494.76 336.034H519.57V342.04H501.55V370.556H517.95V376.659H501.55V406.444H519.86V412.45H494.76V336.034ZM455.56 336.034H486.08V342.04H474.26V412.45H467.48V342.04H455.56V336.034ZM424.76 336.034H449.57V342.04H431.55V370.556H447.95V376.659H431.55V406.444H449.86V412.45H424.76V336.034ZM383.76 336.034H408.57C410.16 336.034 411.47 336.539 412.5 337.548C413.52 338.557 414.03 339.859 414.03 341.454V376.659C414.03 378.254 413.52 379.565 412.5 380.59C411.47 381.615 410.16 382.128 408.57 382.128H390.55V412.45H383.76V336.034ZM333.76 336.034H340.06L352.46 385.741C352.53 386.002 352.59 386.734 352.66 387.939C352.66 387.45 352.72 386.718 352.85 385.741L365.26 336.034H371.55V412.45H365.16V364.062C365.16 363.378 365.39 361.376 365.84 358.056L353.34 405.273H351.97L339.47 358.056C339.93 361.409 340.16 363.411 340.16 364.062V412.45H333.76V336.034ZM294.18 336.034H315.57C317.16 336.034 318.47 336.539 319.5 337.548C320.52 338.557 321.04 339.859 321.04 341.454V407.03C321.04 408.625 320.52 409.928 319.5 410.937C318.47 411.946 317.16 412.45 315.57 412.45H294.18C292.59 412.45 291.28 411.946 290.28 410.937C289.27 409.928 288.76 408.625 288.76 407.03V341.454C288.76 339.859 289.27 338.557 290.28 337.548C291.28 336.539 292.59 336.034 294.18 336.034Z" fill="#EE2A7B"/>
<path fill-rule="evenodd" clip-rule="evenodd" d="M342.28 425.696V490.1H351.31C353.95 490.1 356.09 489.343 357.73 487.829C359.38 486.316 360.2 484.24 360.2 481.604V434.094C360.2 431.587 359.41 429.561 357.83 428.015C356.25 426.469 354.21 425.696 351.7 425.696H342.28ZM297.28 425.696V490.1H315.98V425.696H297.28ZM447.91 419.69H467.98C469.57 419.69 470.88 420.194 471.88 421.203C472.89 422.212 473.4 423.515 473.4 425.11V442.883H466.56V425.696H449.28V490.1H466.56V463.684H458.41V457.824H473.4V490.686C473.4 492.281 472.89 493.583 471.88 494.592C470.88 495.601 469.57 496.106 467.98 496.106H447.91C446.32 496.106 445.01 495.601 444 494.592C442.99 493.583 442.49 492.281 442.49 490.686V425.11C442.49 423.515 442.99 422.212 444 421.203C445.01 420.194 446.32 419.69 447.91 419.69ZM398.49 419.69H403.57L423.59 474.914V419.69H429.98V496.106H425.3L404.89 439.905V496.106H398.49V419.69ZM378.88 419.69H385.67V496.106H378.88V419.69ZM335.49 419.69H352.97C357.04 419.69 360.39 420.984 363.03 423.572C365.67 426.159 366.98 429.472 366.98 433.508V482.287C366.98 486.324 365.66 489.636 363.01 492.224C360.35 494.812 357.01 496.106 352.97 496.106H335.49V419.69ZM295.91 419.69H317.3C318.89 419.69 320.2 420.194 321.23 421.203C322.25 422.212 322.77 423.515 322.77 425.11V490.686C322.77 492.281 322.25 493.583 321.23 494.592C320.2 495.601 318.89 496.106 317.3 496.106H295.91C294.32 496.106 293.01 495.601 292 494.592C290.99 493.583 290.49 492.281 290.49 490.686V425.11C290.49 423.515 290.99 422.212 292 421.203C293.01 420.194 294.32 419.69 295.91 419.69Z" fill="white"/>
<path fill-rule="evenodd" clip-rule="evenodd" d="M32 228V238.19L30.267 241.827C29.457 244.536 29.01 247.514 29.01 250.64V297.86C29.01 310.364 21.846 320.5 13.01 320.5C21.846 320.5 29.01 330.636 29.01 343.14C29.01 358.88 29.01 374.62 29.01 390.36C29.01 393.486 29.457 396.464 30.267 399.173L32 402.81V413C23.163 413 16 402.864 16 390.36C16 374.62 16 358.88 16 343.14C16 330.636 8.837 320.5 0 320.5C8.837 320.5 16 310.364 16 297.86V250.64C16 238.136 23.163 228 32 228Z" fill="white"/>
<path fill-rule="evenodd" clip-rule="evenodd" d="M118 329L118 339.19L119.733 342.827C120.543 345.536 120.99 348.514 120.99 351.64L120.99 398.86C120.99 411.364 128.154 421.5 136.99 421.5C128.154 421.5 120.99 431.636 120.99 444.14C120.99 459.88 120.99 475.62 120.99 491.36C120.99 494.486 120.543 497.464 119.733 500.173L118 503.81L118 514C126.837 514 134 503.864 134 491.36C134 475.62 134 459.88 134 444.14C134 431.636 141.163 421.5 150 421.5C141.163 421.5 134 411.364 134 398.86L134 351.64C134 339.136 126.837 329 118 329Z" fill="white"/>
<path d="M136.767 249.875L33.3296 493H12.5483V491.75L115.986 248.469H136.767V249.875Z" fill="#EE2A7B"/>
<path fill-rule="evenodd" clip-rule="evenodd" d="M560.56 493.024H728.5V496.5H560.56V493.024ZM537.53 481.437H607.23V484.913H537.53V481.437ZM537.53 469.849H577.84V473.325H537.53V469.849ZM560.56 458.262H685.32V461.738H560.56V458.262ZM560.56 446.675H685.32V450.151H560.56V446.675ZM537.53 435.087H592.87V438.563H537.53V435.087ZM514.5 423.5H623.9V426.976H514.5V423.5Z" fill="white" stroke="white" stroke-width="2.66667" stroke-miterlimit="10" stroke-linecap="round" stroke-linejoin="round"/>
</svg>
