<svg width="710" height="481" viewBox="0 0 710 481" fill="none" xmlns="http://www.w3.org/2000/svg">
<path fill-rule="evenodd" clip-rule="evenodd" d="M250.363 100.823C244.82 100.823 241.009 101.209 238.93 101.982C236.852 102.754 235.194 104.025 233.957 105.794C232.719 107.563 232.1 109.643 232.1 112.035C232.1 116.071 233.351 118.961 235.85 120.705C238.349 122.449 242.915 123.322 249.547 123.322H256.081V100.823H250.363ZM308.522 95.601H317.075V103.98H308.522V95.601ZM295.977 95.601H304.53V103.98H295.977V95.601ZM254.84 80.4848H276.932V190.071H256.081V143.659H254.172L229.539 190.071H206.743L232.694 141.349C225.744 138.867 220.544 135.203 217.094 130.362C213.644 125.519 211.918 119.498 211.918 112.295C211.918 105.442 213.481 99.5069 216.605 94.4906C219.729 89.4743 223.858 85.8861 228.991 83.7255C234.124 81.5653 242.74 80.4848 254.84 80.4848ZM471.588 0L471.726 0.109434L471.863 0L582.726 88.0449L582.578 88.23L710 190.071H649.828L471.726 48.6263L293.624 190.071H276.932V154.958L283.767 149.516H283.431V110.006H291.985V142.971L296.377 139.473H295.977V110.006H304.53V132.674L308.522 129.503V110.006H317.075V122.71L321.068 119.541V89.5757H317.076V89.5759H308.522V89.5757H304.53V89.5759H295.977V89.5757H291.985V89.5759H283.431V95.601H291.985V103.98H283.431V80.1615V80.1613H308.522H317.076H337.034V89.5757H329.621V112.747L471.588 0Z" fill="#EE2A7B"/>
<path fill-rule="evenodd" clip-rule="evenodd" d="M635.276 196.972H680.244C689.282 196.972 693.801 201.5 693.801 210.555V244.032H671.46V215.815H644.154V242.884L688.931 285.161C692.178 288.223 693.801 292.272 693.801 297.31V332.987C693.801 342.105 689.282 346.664 680.244 346.664H635.276C626.302 346.664 621.815 342.105 621.815 332.987V297.31H644.154V327.821H671.46V298.456L626.683 255.988C623.438 252.864 621.815 248.878 621.815 244.032V210.746C621.815 201.563 626.302 196.972 635.276 196.972ZM236.5 196.972H283.186C292.287 196.972 296.839 201.563 296.839 210.746V242.693H274.402V216.198H245.283V327.439H274.402V285.545H257.79V266.51H296.839V332.987C296.839 342.105 292.287 346.664 283.186 346.664H236.213C227.366 346.664 222.942 342.105 222.942 332.987V210.746C222.942 201.563 227.461 196.972 236.5 196.972ZM523.278 167.393H550.033V243.226L579.761 167.393H609.032V168.653L572.672 253.764L613.491 346.664H583.991L550.033 266.708V346.664H523.278V167.393Z" fill="white"/>
<path fill-rule="evenodd" clip-rule="evenodd" d="M315.818 181.432H384.295V203.287H340.738V251.537H378.225V272.969H340.738V324.809H384.935V346.664H315.818V181.432Z" fill="#EE2A7B"/>
<path fill-rule="evenodd" clip-rule="evenodd" d="M502.649 113.395H406.352V144.249H467.605V212.367H414.889V242.625H467.605V315.81H405.454V346.664H502.649V113.395Z" fill="white"/>
<path d="M308.94 478.418H273.873V368.659H283.622V469.791H308.94V478.418Z" fill="#EE2A7B"/>
<path d="M358.314 478.418H322.265V368.659H357.893V377.285H332.014V418.243H355.579V427.01H332.014V469.791H358.314V478.418Z" fill="#EE2A7B"/>
<path d="M417.857 478.418H408.179L404.321 454.011H382.51L378.653 478.418H369.255V478.137L388.822 368.378H398.43L417.857 478.418ZM403.059 445.385L393.451 385.912L383.772 445.385H403.059Z" fill="#EE2A7B"/>
<path d="M477.821 478.418H467.582L447.173 419.646L448.505 417.682H465.899V377.285H440.861V478.418H431.112V368.659H467.862C470.153 368.659 472.024 369.384 473.473 370.833C474.922 372.283 475.647 374.153 475.647 376.444V418.103C475.647 423.386 472.094 426.028 464.987 426.028C464.286 426.028 463.257 426.005 461.901 425.958C460.545 425.865 459.563 425.818 458.955 425.818C465.267 443.304 471.556 460.838 477.821 478.418Z" fill="#EE2A7B"/>
<path d="M537.645 478.418H530.912L501.597 397.694V478.418H492.409V368.659H499.703L528.458 447.98V368.659H537.645V478.418Z" fill="#EE2A7B"/>
<path d="M211.738 350.174C222.276 350.168 232.518 353.666 240.851 360.118C249.184 366.57 255.136 375.608 257.771 385.812H229.557C226.407 385.812 223.385 387.064 221.157 389.292C218.929 391.52 217.678 394.541 217.678 397.692C217.678 400.842 218.929 403.864 221.157 406.092C223.385 408.319 226.407 409.571 229.557 409.571H259.256V430.36H235.497C234.71 430.36 233.954 430.673 233.396 431.23C232.84 431.787 232.527 432.543 232.527 433.33C232.527 434.117 232.84 434.873 233.396 435.431C233.954 435.987 234.71 436.3 235.497 436.3H259.256V451.149C259.256 453.512 258.317 455.779 256.647 457.45C254.976 459.12 252.709 460.059 250.346 460.059H223.617V477.878C223.617 478.665 223.304 479.421 222.748 479.979C222.191 480.535 221.435 480.848 220.648 480.848H211.738V432.498C212.87 431.845 213.755 430.835 214.255 429.628C214.756 428.42 214.844 427.08 214.506 425.817C214.167 424.554 213.422 423.438 212.384 422.642C211.347 421.846 210.076 421.415 208.768 421.415C207.46 421.415 206.189 421.846 205.153 422.642C204.115 423.438 203.37 424.554 203.03 425.817C202.692 427.08 202.78 428.42 203.281 429.628C203.781 430.835 204.667 431.845 205.798 432.498V480.848H196.889V409.155C199.688 408.433 202.129 406.714 203.751 404.32C205.374 401.927 206.068 399.024 205.703 396.156C205.339 393.288 203.942 390.65 201.772 388.739C199.603 386.828 196.81 385.773 193.919 385.773C191.028 385.773 188.235 386.828 186.065 388.739C183.896 390.65 182.498 393.288 182.134 396.156C181.769 399.024 182.464 401.927 184.087 404.32C185.709 406.714 188.15 408.433 190.949 409.155V480.848H183.524V432.498C184.656 431.845 185.542 430.835 186.042 429.628C186.543 428.42 186.63 427.08 186.292 425.817C185.953 424.554 185.208 423.438 184.17 422.642C183.133 421.846 181.862 421.415 180.554 421.415C179.247 421.415 177.976 421.846 176.939 422.642C175.901 423.438 175.156 424.554 174.817 425.817C174.479 427.08 174.566 428.42 175.067 429.628C175.567 430.835 176.453 431.845 177.585 432.498V480.848H167.19C166.403 480.848 165.647 480.535 165.09 479.979C164.533 479.421 164.22 478.665 164.22 477.878V397.692C164.22 385.089 169.227 373.003 178.138 364.091C187.049 355.18 199.135 350.174 211.738 350.174ZM259.256 403.631V397.692C259.238 395.706 259.099 393.722 258.84 391.752H229.557C227.982 391.752 226.471 392.378 225.357 393.492C224.244 394.605 223.617 396.116 223.617 397.692C223.617 399.267 224.244 400.778 225.357 401.892C226.471 403.005 227.982 403.631 229.557 403.631H259.256ZM193.919 403.631C195.094 403.631 196.242 403.284 197.219 402.63C198.195 401.978 198.957 401.05 199.406 399.965C199.856 398.88 199.974 397.685 199.744 396.533C199.515 395.381 198.949 394.322 198.119 393.492C197.288 392.661 196.23 392.095 195.078 391.866C193.925 391.636 192.731 391.754 191.646 392.204C190.56 392.654 189.633 393.415 188.98 394.391C188.327 395.369 187.979 396.517 187.979 397.692C187.979 399.267 188.605 400.778 189.719 401.892C190.832 403.005 192.343 403.631 193.919 403.631Z" fill="white"/>
<path d="M127.097 410.671V430.361C127.097 434.299 128.662 438.076 131.446 440.861C134.231 443.645 138.007 445.21 141.946 445.21H171.645C175.583 445.21 179.36 443.645 182.145 440.861C184.929 438.076 186.494 434.299 186.494 430.361V410.671C198.257 404.097 207.508 393.806 212.795 381.412C218.083 369.017 219.109 355.219 215.712 342.178C212.316 329.138 204.689 317.593 194.028 309.352C183.365 301.111 170.271 296.641 156.795 296.641C143.32 296.641 130.225 301.111 119.563 309.352C108.902 317.593 101.275 329.138 97.8787 342.178C94.4822 355.219 95.5082 369.017 100.796 381.412C106.083 393.806 115.334 404.097 127.097 410.671ZM180.554 411.917V421.451H133.036V411.917H180.554ZM156.795 344.235C156.208 344.235 155.633 344.061 155.145 343.735C154.657 343.407 154.277 342.944 154.051 342.401C153.827 341.859 153.768 341.261 153.883 340.685C153.997 340.109 154.28 339.58 154.695 339.164C155.111 338.749 155.64 338.467 156.215 338.352C156.792 338.238 157.389 338.296 157.933 338.521C158.475 338.745 158.938 339.126 159.265 339.614C159.591 340.103 159.765 340.677 159.765 341.265C159.765 342.052 159.452 342.808 158.896 343.365C158.339 343.921 157.583 344.235 156.795 344.235ZM171.645 439.27H141.946C139.583 439.27 137.316 438.332 135.647 436.66C133.975 434.99 133.036 432.724 133.036 430.361V427.391H180.554V430.361C180.554 432.724 179.616 434.99 177.945 436.66C176.274 438.332 174.008 439.27 171.645 439.27ZM156.795 302.656C169.04 302.642 180.937 306.72 190.597 314.243C200.258 321.766 207.126 332.301 210.113 344.175C213.1 356.049 212.032 368.581 207.08 379.779C202.127 390.977 193.575 400.198 182.781 405.977H177.584V390.001L185.633 381.982C185.909 381.703 186.126 381.375 186.274 381.013C186.422 380.65 186.496 380.264 186.494 379.873V361.519C188.476 360.818 190.145 359.44 191.209 357.627C192.273 355.815 192.661 353.684 192.305 351.613C191.95 349.541 190.874 347.661 189.266 346.307C187.66 344.953 185.626 344.21 183.524 344.21C181.423 344.21 179.388 344.953 177.782 346.307C176.174 347.661 175.098 349.541 174.743 351.613C174.388 353.684 174.775 355.815 175.839 357.627C176.903 359.44 178.573 360.818 180.554 361.519V378.655L172.505 386.673C172.231 386.951 172.013 387.28 171.865 387.642C171.717 388.004 171.643 388.392 171.645 388.783V405.977H159.765V349.55C161.747 348.85 163.417 347.471 164.48 345.659C165.544 343.846 165.932 341.715 165.576 339.644C165.221 337.572 164.146 335.693 162.537 334.339C160.932 332.984 158.897 332.241 156.795 332.241C154.694 332.241 152.659 332.984 151.053 334.339C149.445 335.693 148.37 337.572 148.014 339.644C147.659 341.715 148.047 343.846 149.11 345.659C150.174 347.471 151.844 348.85 153.826 349.55V405.977H141.946V388.783C141.948 388.392 141.874 388.004 141.726 387.642C141.578 387.28 141.361 386.951 141.085 386.673L133.036 378.655V367.459C135.018 366.758 136.688 365.38 137.752 363.567C138.815 361.755 139.203 359.624 138.848 357.552C138.492 355.481 137.417 353.601 135.809 352.247C134.203 350.892 132.168 350.149 130.067 350.149C127.965 350.149 125.93 350.892 124.325 352.247C122.716 353.601 121.641 355.481 121.286 357.552C120.93 359.624 121.318 361.755 122.382 363.567C123.445 365.38 125.115 366.758 127.097 367.459V379.873C127.095 380.264 127.169 380.65 127.317 381.013C127.465 381.375 127.683 381.703 127.957 381.982L136.006 390.001V405.977H130.81C120.015 400.198 111.463 390.977 106.511 379.779C101.559 368.581 100.491 356.049 103.478 344.175C106.464 332.301 113.334 321.766 122.994 314.243C132.654 306.72 144.551 302.642 156.795 302.656ZM183.524 356.114C182.937 356.114 182.362 355.94 181.874 355.614C181.386 355.287 181.006 354.823 180.78 354.28C180.555 353.738 180.497 353.141 180.612 352.564C180.726 351.989 181.009 351.459 181.424 351.044C181.839 350.629 182.369 350.346 182.944 350.232C183.521 350.117 184.118 350.175 184.661 350.4C185.203 350.625 185.667 351.006 185.994 351.494C186.32 351.982 186.494 352.557 186.494 353.144C186.494 353.931 186.181 354.687 185.625 355.245C185.067 355.801 184.311 356.114 183.524 356.114ZM130.067 362.054C129.479 362.054 128.905 361.88 128.416 361.554C127.928 361.226 127.548 360.763 127.322 360.22C127.098 359.678 127.04 359.081 127.154 358.504C127.268 357.928 127.551 357.399 127.966 356.983C128.382 356.569 128.911 356.286 129.487 356.171C130.063 356.057 130.661 356.115 131.204 356.34C131.746 356.564 132.209 356.946 132.536 357.434C132.863 357.922 133.036 358.496 133.036 359.084C133.036 359.871 132.723 360.627 132.167 361.184C131.61 361.741 130.854 362.054 130.067 362.054Z" fill="#EE2A7B"/>
<path d="M82.7365 436.412L82.7365 443.32H30.4791C29.7408 443.32 27.5788 443.074 23.993 442.582L74.9848 456.081V457.558L23.993 471.057C27.614 470.565 29.776 470.319 30.4791 470.319H82.7365V477.227H0.210928L0.210928 470.424L53.8921 457.03C54.1733 456.96 54.9643 456.89 56.265 456.819C55.7377 456.819 54.9467 456.749 53.8921 456.608L0.210928 443.214L0.210928 436.412H82.7365Z" fill="white"/>
<path d="M82.7365 389.955V397.232L64.3857 400.132V416.532L82.7365 419.432V426.498H82.5255L0 411.786L0 404.562L82.7365 389.955ZM57.8997 401.082L13.183 408.306L57.8997 415.583V401.082Z" fill="white"/>
<path d="M76.8832 346.926C78.6058 346.926 80.012 347.488 81.1018 348.613C82.1916 349.738 82.7365 351.162 82.7365 352.885L82.7365 374.136C82.7365 375.858 82.1916 377.264 81.1018 378.354C80.012 379.444 78.6058 379.989 76.8832 379.989H6.06418C4.3416 379.989 2.93541 379.444 1.84562 378.354C0.755825 377.264 0.210928 375.858 0.210928 374.136L0.210928 352.885C0.210928 351.162 0.755825 349.738 1.84562 348.613C2.93541 347.488 4.3416 346.926 6.06418 346.926H25.2586L25.2586 354.308H6.69696L6.69696 372.659H76.2504L76.2504 354.308H55.9486V346.926H76.8832Z" fill="white"/>
<path d="M82.7365 299.573V306.902H43.082V326.782H82.7365V334.112H0.210928L0.210928 326.782H36.4905V306.902H0.210928L0.210928 299.573H82.7365Z" fill="white"/>
<path d="M63.4091 289.427H58.3468L36.3049 228.732V289.427H29.397V206.901H34.8811L56.5012 266.541V206.901H63.4091V289.427Z" fill="white"/>
<path d="M103.749 289.427H76.6448V206.901H103.433V213.387H83.9746V244.183H101.692V250.774H83.9746V282.941H103.749V289.427Z" fill="white"/>
<path d="M13.3917 209.51C15.9228 209.51 18.0848 210.424 19.8777 212.252C21.7057 214.08 22.6198 216.295 22.6198 218.897C22.6198 221.463 21.7233 223.66 19.9304 225.488C18.1375 227.281 15.9931 228.177 13.4971 228.177C10.9308 228.177 8.73368 227.263 6.90564 225.435C5.11275 223.572 4.21631 221.322 4.21631 218.686C4.21631 216.154 5.11275 213.992 6.90564 212.2C8.69853 210.407 10.8605 209.51 13.3917 209.51ZM6.16739 233.134H20.6159V290.507H6.16739V233.134Z" fill="#EE2A7B"/>
<path d="M566.003 478.418H556.255V368.659H566.003V478.418Z" fill="white"/>
<path d="M629.544 478.418H622.812L593.496 397.694V478.418H584.308V368.659H591.602L620.357 447.98V368.659H629.544V478.418Z" fill="white"/>
<path d="M691.542 470.633C691.542 472.924 690.818 474.795 689.368 476.244C687.919 477.693 686.049 478.418 683.758 478.418H654.933C652.642 478.418 650.771 477.693 649.322 476.244C647.873 474.795 647.148 472.924 647.148 470.633V376.444C647.148 374.153 647.873 372.283 649.322 370.833C650.771 369.384 652.642 368.659 654.933 368.659H683.758C686.049 368.659 687.919 369.384 689.368 370.833C690.818 372.283 691.542 374.153 691.542 376.444V401.973H681.724V377.286H656.896V469.792H681.724V431.849H670.011V423.433H691.542V470.633Z" fill="white"/>
</svg>
