<svg width="710" height="461" viewBox="0 0 710 461" fill="none" xmlns="http://www.w3.org/2000/svg">
<path d="M112.434 220.577V140.758C112.434 139.853 113.168 139.118 114.074 139.118H216.086L215.053 139.484L361.419 20.8652C362.021 20.3773 362.883 20.3773 363.485 20.8669L505.415 136.16L504.381 135.792H583.107C584.014 135.792 584.747 136.527 584.747 137.432V201.81C584.747 202.715 584.014 203.45 583.107 203.45C582.201 203.45 581.467 202.715 581.467 201.81V137.432L583.107 139.072H504.381C504.004 139.072 503.639 138.943 503.347 138.706L361.417 23.4121L363.483 23.4138L217.119 142.032C216.827 142.269 216.462 142.398 216.086 142.398H114.074L115.714 140.758V220.577C115.714 221.483 114.98 222.217 114.074 222.217C113.168 222.217 112.434 221.483 112.434 220.577ZM118.994 220.577C118.994 223.294 116.792 225.497 114.074 225.497C111.357 225.497 109.154 223.294 109.154 220.577C109.154 217.859 111.357 215.657 114.074 215.657C116.792 215.657 118.994 217.859 118.994 220.577ZM590.264 192.795L583.107 205.064L575.951 192.795C575.495 192.013 575.759 191.009 576.541 190.553C577.323 190.097 578.328 190.361 578.785 191.143L584.524 200.983H581.691L587.43 191.143C587.887 190.361 588.892 190.097 589.674 190.553C590.456 191.009 590.72 192.013 590.264 192.795Z" fill="white"/>
<path fill-rule="evenodd" clip-rule="evenodd" d="M253.464 276.513H283.154C285.56 276.513 287.55 277.274 289.121 278.796C290.693 280.319 291.478 282.284 291.478 284.69V311.507H281.164V285.574H255.527V382.746H281.164V354.383H291.478V383.63C291.478 386.037 290.693 388.002 289.121 389.523C287.55 391.046 285.56 391.808 283.154 391.808H253.464C251.058 391.808 249.093 391.046 247.57 389.523C246.048 388.002 245.287 386.037 245.287 383.63V284.69C245.287 282.284 246.048 280.319 247.57 278.796C249.093 277.274 251.058 276.513 253.464 276.513ZM191.167 276.513H228.592V285.574H201.408V328.598H226.161V337.807H201.408V382.746H229.034V391.808H191.167V276.513ZM140.328 276.513H150.569V382.746H177.164V391.808H140.328V276.513Z" fill="#EE2A7B"/>
<path fill-rule="evenodd" clip-rule="evenodd" d="M435.788 285.574V382.746H464.004V285.574H435.788ZM660.494 276.513H689.521C691.926 276.513 693.879 277.274 695.377 278.796C696.875 280.319 697.624 282.284 697.624 284.69V311.507H687.384V285.574H662.483V309.885L694.456 348.342C696.568 350.895 697.624 353.769 697.624 356.961V383.63C697.624 386.037 696.875 388.002 695.377 389.523C693.879 391.046 691.926 391.808 689.521 391.808H660.494C658.087 391.808 656.11 391.046 654.564 389.523C653.016 388.002 652.243 386.037 652.243 383.63V354.383H662.483V382.746H687.384V355.267L655.558 316.811C653.348 314.158 652.243 311.236 652.243 308.044V284.69C652.243 282.284 653.016 280.319 654.564 278.796C656.11 277.274 658.087 276.513 660.494 276.513ZM596.083 276.513H625.772C628.179 276.513 630.168 277.274 631.74 278.796C633.311 280.319 634.098 282.284 634.098 284.69V311.507H623.784V285.574H598.146V382.746H623.784V354.383H634.098V383.63C634.098 386.037 633.311 388.002 631.74 389.523C630.168 391.046 628.179 391.808 625.772 391.808H596.083C593.676 391.808 591.712 391.046 590.19 389.523C588.667 388.002 587.906 386.037 587.906 383.63V284.69C587.906 282.284 588.667 280.319 590.19 278.796C591.712 277.274 593.676 276.513 596.083 276.513ZM558.975 276.513H569.216V391.808H558.975V276.513ZM491.967 276.513H499.628L529.834 359.834V276.513H539.485V391.808H532.412L501.618 307.012V391.808H491.967V276.513ZM433.725 276.513H465.993C468.4 276.513 470.377 277.274 471.924 278.796C473.471 280.319 474.244 282.284 474.244 284.69V383.63C474.244 386.037 473.471 388.002 471.924 389.523C470.377 391.046 468.4 391.808 465.993 391.808H433.725C431.319 391.808 429.355 391.046 427.832 389.523C426.309 388.002 425.548 386.037 425.548 383.63V284.69C425.548 282.284 426.309 280.319 427.832 278.796C429.355 277.274 431.319 276.513 433.725 276.513ZM360.769 276.513H399.373C401.779 276.513 403.744 277.274 405.266 278.796C406.789 280.319 407.55 282.284 407.55 284.69V328.451C407.55 334 403.817 336.775 396.352 336.775C395.615 336.775 394.535 336.738 393.11 336.665C391.686 336.592 390.655 336.555 390.017 336.555C396.647 354.923 403.253 373.341 409.834 391.808H399.077L377.64 330.071L379.039 328.009H397.31V285.574H371.009V391.808H360.769V276.513ZM302.774 276.513H348.818V285.574H330.99V391.808H320.75V285.574H302.774V276.513Z" fill="white"/>
<path d="M16.0154 460.013H0V409.885H4.45228V456.074H16.0154V460.013Z" fill="white"/>
<path d="M38.5651 460.013H22.1012V409.885H38.3729V413.825H26.5535V432.531H37.3159V436.535H26.5535V456.074H38.5651V460.013Z" fill="white"/>
<path d="M65.6311 456.458C65.6311 457.504 65.2894 458.359 64.6061 459.02C63.9228 459.682 63.0579 460.013 62.0116 460.013H49.1032C48.0569 460.013 47.2027 459.682 46.5407 459.02C45.8788 458.359 45.5478 457.504 45.5478 456.458V413.441C45.5478 412.394 45.8788 411.54 46.5407 410.878C47.2027 410.216 48.0569 409.885 49.1032 409.885H62.0116C63.0579 409.885 63.9228 410.216 64.6061 410.878C65.2894 411.54 65.6311 412.394 65.6311 413.441V425.1H61.1468V413.825H50.0001V456.074H61.1468V443.742H65.6311V456.458Z" fill="white"/>
<path d="M90.6792 413.825H82.9277V460.013H78.4754V413.825H70.6599V409.885H90.6792V413.825Z" fill="white"/>
<path d="M117.233 460.013H112.556L103.235 433.172L103.844 432.275H111.787V413.825H100.352V460.013H95.9002V409.885H112.684C113.731 409.885 114.585 410.216 115.247 410.878C115.909 411.54 116.24 412.394 116.24 413.441V432.467C116.24 434.88 114.617 436.086 111.371 436.086C111.051 436.086 110.581 436.076 109.962 436.054C109.342 436.012 108.894 435.99 108.616 435.99C111.499 443.977 114.371 451.984 117.233 460.013Z" fill="white"/>
<path d="M145.067 456.458C145.067 457.504 144.726 458.359 144.042 459.02C143.38 459.682 142.526 460.013 141.48 460.013H127.451C126.404 460.013 125.55 459.682 124.888 459.02C124.226 458.359 123.895 457.504 123.895 456.458V413.441C123.895 412.394 124.226 411.54 124.888 410.878C125.55 410.216 126.404 409.885 127.451 409.885H141.48C142.526 409.885 143.38 410.216 144.042 410.878C144.726 411.54 145.067 412.394 145.067 413.441V456.458ZM140.615 456.074V413.825H128.347V456.074H140.615Z" fill="white"/>
<path d="M177.899 460.013H173.703V428.271C173.703 427.822 173.852 426.509 174.151 424.331L165.952 455.305H165.055L156.855 424.331C157.154 426.531 157.303 427.844 157.303 428.271V460.013H153.107V409.885H157.239L165.375 442.493C165.418 442.663 165.46 443.144 165.503 443.934C165.503 443.614 165.546 443.133 165.631 442.493L173.767 409.885H177.899V460.013Z" fill="white"/>
<path d="M207.079 456.458C207.079 457.504 206.737 458.359 206.054 459.02C205.392 459.682 204.538 460.013 203.492 460.013H189.462C188.416 460.013 187.562 459.682 186.9 459.02C186.238 458.359 185.907 457.504 185.907 456.458V413.441C185.907 412.394 186.238 411.54 186.9 410.878C187.562 410.216 188.416 409.885 189.462 409.885H203.492C204.538 409.885 205.392 410.216 206.054 410.878C206.737 411.54 207.079 412.394 207.079 413.441V456.458ZM202.627 456.074V413.825H190.359V456.074H202.627Z" fill="white"/>
<path d="M232.383 413.825H224.632V460.013H220.18V413.825H212.364V409.885H232.383V413.825Z" fill="white"/>
<path d="M242.313 460.013H237.861V409.885H242.313V460.013Z" fill="white"/>
<path d="M270.244 409.885L261.563 460.142H257.367L248.687 409.885H253.107L259.321 449.796C259.321 449.796 259.385 450.885 259.513 453.063C259.535 452.315 259.61 451.226 259.738 449.796L265.952 409.885H270.244Z" fill="white"/>
<path d="M292.761 460.013H276.298V409.885H292.569V413.825H280.75V432.531H291.512V436.535H280.75V456.074H292.761V460.013Z" fill="white"/>
<path d="M328.764 413.825H317.073V432.851H327.835V436.855H317.073V460.013H312.62V409.885H328.764V413.825Z" fill="white"/>
<path d="M356.086 456.458C356.086 457.504 355.745 458.359 355.061 459.02C354.399 459.682 353.545 460.013 352.499 460.013H338.469C337.423 460.013 336.569 459.682 335.907 459.02C335.245 458.359 334.914 457.504 334.914 456.458V413.441C334.914 412.394 335.245 411.54 335.907 410.878C336.569 410.216 337.423 409.885 338.469 409.885H352.499C353.545 409.885 354.399 410.216 355.061 410.878C355.745 411.54 356.086 412.394 356.086 413.441V456.458ZM351.634 456.074V413.825H339.366V456.074H351.634Z" fill="white"/>
<path d="M385.459 460.013H380.782L371.461 433.172L372.07 432.275H380.013V413.825H368.578V460.013H364.126V409.885H380.91C381.956 409.885 382.811 410.216 383.473 410.878C384.135 411.54 384.466 412.394 384.466 413.441V432.467C384.466 434.88 382.843 436.086 379.597 436.086C379.277 436.086 378.807 436.076 378.188 436.054C377.568 436.012 377.12 435.99 376.842 435.99C379.725 443.977 382.597 451.984 385.459 460.013Z" fill="white"/>
<path d="M412.204 456.458C412.204 457.504 411.863 458.359 411.179 459.02C410.496 459.682 409.631 460.013 408.585 460.013H395.676C394.63 460.013 393.776 459.682 393.114 459.02C392.452 458.359 392.121 457.504 392.121 456.458V413.441C392.121 412.394 392.452 411.54 393.114 410.878C393.776 410.216 394.63 409.885 395.676 409.885H408.585C409.631 409.885 410.496 410.216 411.179 410.878C411.863 411.54 412.204 412.394 412.204 413.441V425.1H407.72V413.825H396.573V456.074H407.72V443.742H412.204V456.458Z" fill="white"/>
<path d="M436.452 460.013H419.988V409.885H436.259V413.825H424.44V432.531H435.202V436.535H424.44V456.074H436.452V460.013Z" fill="white"/>
<path d="M138.498 249.057V256.326C138.498 259.319 137.892 261.208 136.681 261.992C135.54 262.776 131.229 264.878 123.746 268.299C116.334 271.72 109.207 275.747 102.365 280.379C105.002 276.531 107.389 273.68 109.527 271.827C111.737 269.974 114.694 267.658 118.4 264.878C115.193 263.596 110.739 262.954 105.038 262.954C96.2002 262.954 86.6503 264.7 76.3876 268.192C66.1962 271.685 57.5014 275.854 50.3033 280.7C43.1765 285.546 39.613 289.609 39.613 292.887C39.613 294.597 40.6821 296.023 42.8201 297.163C45.0295 298.232 48.5216 299.087 53.2966 299.729C58.1429 300.299 64.165 300.691 71.3632 300.905C78.5613 301.118 87.4342 301.225 97.9819 301.225C105.679 301.225 110.632 301.51 112.841 302.081C115.051 302.651 116.155 303.969 116.155 306.036C116.155 308.673 114.837 311.702 112.2 315.123C109.634 318.472 106.213 320.468 101.937 321.109C95.3094 322.178 90.0355 323.105 86.1157 323.889C82.196 324.601 77.5279 325.849 72.1115 327.63C66.7663 329.412 60.8154 331.978 54.2587 335.327C44.4949 340.459 36.8692 345.661 31.3815 350.935C25.8939 356.209 23.15 360.877 23.15 364.939C23.15 368.432 25.1099 371.175 29.0297 373.171C32.9494 375.095 38.5797 376.057 45.9203 376.057C71.2206 376.057 96.9842 364.69 123.211 341.955C123.354 348.94 122.57 355.104 120.859 360.449C119.22 365.723 115.835 370.783 110.703 375.63C106.427 379.692 100.156 383.576 91.8885 387.282C83.6926 390.988 74.7128 393.946 64.949 396.155C55.2565 398.364 46.1341 399.469 37.5819 399.469C27.6756 399.469 19.4797 397.081 12.9943 392.306C6.50883 387.603 3.26611 381.331 3.26611 373.492C3.26611 367.79 4.83402 362.124 7.96983 356.494C11.1056 350.864 15.9163 345.483 22.4017 340.352C28.8871 335.149 37.083 330.445 46.9893 326.241C56.9669 322.036 68.4412 318.722 81.412 316.299C83.265 315.942 84.1915 315.372 84.1915 314.588C84.1915 313.733 83.0868 313.234 80.8775 313.092C78.7395 312.878 74.7484 312.735 68.9044 312.664C63.1317 312.593 58.036 312.343 53.6173 311.916C49.1987 311.488 44.5306 310.562 39.613 309.136C34.553 307.568 30.6332 304.824 27.8537 300.905C25.1455 296.985 23.7914 292.637 23.7914 287.862C23.7914 281.733 26.0008 275.569 30.4194 269.368C34.8381 263.168 41.0741 257.573 49.1274 252.585C57.1807 247.596 66.9089 243.605 78.3118 240.611C89.7861 237.547 102.329 236.015 115.942 236.015C123.781 236.015 129.233 236.478 132.298 237.404C135.434 238.26 137.251 239.436 137.75 240.932C138.249 242.358 138.498 245.066 138.498 249.057Z" fill="#EE2A7B"/>
<path d="M694.098 218.117L585.568 218.117V221.397L694.098 221.397V218.117ZM685.084 226.914L697.353 219.757L685.084 212.601C684.302 212.144 683.298 212.409 682.842 213.191C682.385 213.973 682.649 214.977 683.432 215.434L693.272 221.174V218.341L683.432 224.08C682.65 224.537 682.385 225.541 682.842 226.323C683.298 227.106 684.302 227.37 685.084 226.914ZM585.568 214.837C582.851 214.837 580.648 217.04 580.648 219.757C580.648 222.474 582.851 224.677 585.568 224.677C588.285 224.677 590.488 222.474 590.488 219.757C590.488 217.04 588.285 214.837 585.568 214.837Z" fill="#EE2A7B"/>
<path fill-rule="evenodd" clip-rule="evenodd" d="M672.751 181.217H676.587V258.296H672.751V219.954L612.627 258.296V181.217L672.751 219.561V181.217Z" fill="#EE2A7B"/>
<path d="M450.237 419.523H486.248C486.907 419.523 487.502 419.918 487.758 420.525L496.264 440.686L493.126 441.123L497.705 404.053C497.804 403.251 498.472 402.641 499.28 402.615C500.086 402.589 500.792 403.154 500.944 403.947L508.141 441.666L504.91 441.721L510.799 404.002C510.923 403.203 511.611 402.614 512.419 402.614C513.227 402.614 513.915 403.203 514.039 404.002L519.928 441.721L516.699 441.656L523.896 405.237C524.042 404.501 524.667 403.957 525.417 403.917C526.165 403.877 526.847 404.35 527.07 405.066L532.959 423.926L531.394 422.775H573.268C574.174 422.775 574.908 423.509 574.908 424.415C574.908 425.321 574.174 426.055 573.268 426.055H531.394C530.676 426.055 530.041 425.588 529.828 424.903L523.939 406.044L527.113 405.873L519.916 442.292C519.762 443.073 519.07 443.629 518.275 443.614C517.479 443.597 516.81 443.013 516.687 442.226L510.799 404.507H514.039L508.15 442.226C508.027 443.015 507.356 443.6 506.558 443.614C505.76 443.627 505.069 443.064 504.919 442.281L497.722 404.562L500.961 404.455L496.381 441.524C496.29 442.262 495.714 442.845 494.979 442.948C494.243 443.05 493.531 442.645 493.242 441.961L484.736 421.8L486.248 422.803H450.237C449.331 422.803 448.597 422.069 448.597 421.163C448.597 420.257 449.331 419.523 450.237 419.523ZM459.25 428.319L446.982 421.163L459.25 414.006C460.033 413.551 461.037 413.815 461.494 414.597C461.95 415.379 461.686 416.384 460.903 416.84L451.063 422.579V419.746L460.903 425.486C461.686 425.943 461.95 426.947 461.494 427.729C461.037 428.512 460.033 428.776 459.25 428.319ZM573.268 419.495C575.985 419.495 578.188 421.698 578.188 424.415C578.188 427.132 575.985 429.334 573.268 429.334C570.551 429.334 568.348 427.132 568.348 424.415C568.348 421.698 570.551 419.495 573.268 419.495Z" fill="#EE2A7B"/>
<path d="M706.72 220.577V425.216H595.372V421.936H705.08L703.44 423.576V220.577H706.72ZM700.16 220.577C700.16 217.859 702.363 215.657 705.08 215.657C707.797 215.657 710 217.859 710 220.577C710 223.294 707.797 225.497 705.08 225.497C702.363 225.497 700.16 223.294 700.16 220.577ZM604.648 430.389L592.12 423.698L604.111 416.086C604.876 415.601 605.889 415.827 606.374 416.592C606.859 417.357 606.633 418.37 605.869 418.856L596.251 424.96L596.145 422.13L606.194 427.496C606.992 427.922 607.294 428.916 606.868 429.715C606.44 430.514 605.447 430.816 604.648 430.389Z" fill="white"/>
<path fill-rule="evenodd" clip-rule="evenodd" d="M198.034 76.5532C193.825 76.5532 190.931 76.8463 189.353 77.433C187.775 78.0196 186.516 78.9844 185.577 80.3275C184.637 81.6705 184.167 83.2501 184.167 85.0664C184.167 88.1307 185.117 90.325 187.014 91.6493C188.912 92.9735 192.379 93.6361 197.414 93.6361H202.375V76.5532H198.034ZM242.193 72.5882H248.687V78.9506H242.193V72.5882ZM232.668 72.5882H239.162V78.9506H232.668V72.5882ZM201.433 61.1108H218.207V144.318H202.375V109.078H200.926L182.222 144.318H164.914L184.618 107.324C179.341 105.439 175.392 102.658 172.773 98.9816C170.154 95.3048 168.843 90.7325 168.843 85.264C168.843 80.06 170.03 75.5539 172.402 71.7451C174.774 67.9363 177.909 65.2119 181.806 63.5714C185.704 61.9312 192.246 61.1108 201.433 61.1108ZM366.006 0L366.111 0.083091L366.215 0L450.391 66.851L450.279 66.9916L547.028 144.318H501.341L366.111 36.9211L230.881 144.318H218.207V117.657L223.397 113.525H223.142V83.5256H229.636V108.556L232.971 105.9H232.668V83.5256H239.162V100.737L242.193 98.3297V83.5256H248.687V93.172L251.719 90.7653V68.0133H248.688V68.0134H242.193V68.0133H239.162V68.0134H232.668V68.0133H229.636V68.0134H223.142V72.5882H229.636V78.9506H223.142V60.8653V60.8651H242.193H248.688H263.841V68.0133H258.213V85.6068L366.006 0Z" fill="#EE2A7B"/>
<path fill-rule="evenodd" clip-rule="evenodd" d="M490.291 149.558H524.435C531.297 149.558 534.728 152.995 534.728 159.871V185.289H517.765V163.865H497.033V184.418L531.031 216.518C533.496 218.843 534.728 221.917 534.728 225.742V252.831C534.728 259.754 531.297 263.216 524.435 263.216H490.291C483.477 263.216 480.07 259.754 480.07 252.831V225.742H497.033V248.909H517.765V226.613L483.767 194.368C481.303 191.995 480.07 188.969 480.07 185.289V160.016C480.07 153.043 483.477 149.558 490.291 149.558ZM187.508 149.558H222.956C229.866 149.558 233.322 153.043 233.322 160.016V184.273H216.286V164.155H194.176V248.619H216.286V216.809H203.673V202.357H233.322V252.831C233.322 259.754 229.866 263.216 222.956 263.216H187.289C180.572 263.216 177.213 259.754 177.213 252.831V160.016C177.213 153.043 180.644 149.558 187.508 149.558ZM405.253 127.098H425.568V184.677L448.14 127.098H470.365V128.055L442.758 192.678L473.751 263.216H451.352L425.568 202.507V263.216H405.253V127.098Z" fill="white"/>
<path fill-rule="evenodd" clip-rule="evenodd" d="M389.59 86.0986H316.474V109.526H362.982V161.246H322.955V184.221H362.982V239.789H315.791V263.216H389.59V86.0986Z" fill="white"/>
<path fill-rule="evenodd" clip-rule="evenodd" d="M247.732 137.758H298.914V154.352H266.358V190.987H294.377V207.261H266.358V246.622H299.392V263.216H247.732V137.758Z" fill="#EE2A7B"/>
</svg>
