<svg width="535" height="170" viewBox="0 0 535 170" fill="none" xmlns="http://www.w3.org/2000/svg">
<rect width="535" height="170" fill="white"/>
<path d="M238.747 34.6876H239.759C239.976 34.6876 240.188 34.6817 240.398 34.6661C240.605 34.6507 240.787 34.6108 240.948 34.5398C241.105 34.4718 241.232 34.3605 241.333 34.2123C241.432 34.0645 241.485 33.8603 241.485 33.6013C241.485 33.385 241.439 33.2091 241.349 33.0735C241.26 32.9408 241.145 32.8387 241.006 32.7677C240.868 32.6997 240.713 32.6569 240.546 32.6351C240.376 32.6166 240.207 32.6073 240.04 32.6073H238.747V34.6876ZM237.765 31.8015H240.203C241.711 31.8015 242.463 32.4188 242.463 33.6475C242.463 34.2308 242.3 34.6599 241.973 34.9316C241.648 35.2062 241.238 35.367 240.754 35.4162L242.611 38.2715H241.556L239.802 35.4904H238.747V38.2715H237.765V31.8015ZM235.327 35.0458C235.327 35.7189 235.444 36.3421 235.682 36.9194C235.923 37.4935 236.243 37.9906 236.651 38.4135C237.056 38.833 237.537 39.1668 238.092 39.4104C238.645 39.6514 239.243 39.7749 239.877 39.7749C240.51 39.7749 241.105 39.6514 241.655 39.4104C242.201 39.1668 242.682 38.833 243.093 38.4135C243.507 37.9906 243.834 37.4935 244.069 36.9194C244.307 36.3421 244.427 35.7189 244.427 35.0458C244.427 34.3823 244.307 33.7587 244.069 33.1784C243.834 32.5981 243.507 32.098 243.093 31.6751C242.682 31.2547 242.201 30.9214 241.655 30.6806C241.105 30.4377 240.51 30.3141 239.877 30.3141C239.243 30.3141 238.645 30.4377 238.092 30.6806C237.537 30.9214 237.056 31.2547 236.651 31.6751C236.243 32.098 235.923 32.5981 235.682 33.1784C235.444 33.7587 235.327 34.3823 235.327 35.0458ZM234.345 35.0458C234.345 34.2618 234.49 33.5303 234.783 32.8512C235.074 32.1719 235.475 31.5857 235.981 31.0977C236.487 30.6043 237.074 30.2216 237.741 29.9367C238.41 29.653 239.123 29.5143 239.877 29.5143C240.63 29.5143 241.34 29.653 242.009 29.9367C242.679 30.2216 243.266 30.6043 243.772 31.0977C244.279 31.5857 244.676 32.1719 244.97 32.8512C245.263 33.5303 245.408 34.2618 245.408 35.0458C245.408 35.839 245.263 36.5705 244.97 37.2436C244.676 37.9197 244.279 38.503 243.772 38.9909C243.266 39.4848 242.679 39.8673 242.009 40.1516C241.34 40.4354 240.63 40.5774 239.877 40.5774C239.123 40.5774 238.41 40.4354 237.741 40.1516C237.074 39.8673 236.487 39.4848 235.981 38.9909C235.475 38.503 235.074 37.9197 234.783 37.2436C234.49 36.5705 234.345 35.839 234.345 35.0458Z" fill="#27337A"/>
<path d="M57.1749 120.06H52.2686V117.572H64.9299V120.06H60.0232V133.575H57.1749V120.06Z" fill="#27337A"/>
<path d="M72.4995 122.41C73.2066 122.41 73.8151 122.534 74.3185 122.783C74.8249 123.031 75.2361 123.359 75.5644 123.764C75.886 124.172 76.125 124.64 76.2749 125.169C76.4244 125.695 76.5008 126.237 76.5008 126.794V133.577H73.7865V127.61C73.7865 127.291 73.7671 126.963 73.7197 126.625C73.6748 126.284 73.5794 125.978 73.4392 125.701C73.2926 125.421 73.0919 125.191 72.8274 125.01C72.5628 124.828 72.2127 124.739 71.7763 124.739C71.3396 124.739 70.9638 124.822 70.6451 124.987C70.3297 125.153 70.0652 125.376 69.8548 125.657C69.6449 125.934 69.4852 126.243 69.3803 126.593C69.2748 126.937 69.2208 127.291 69.2208 127.654V133.577H66.5098V116.49H69.2208V124.242H69.2656C69.374 124.016 69.5268 123.796 69.7305 123.576C69.9346 123.356 70.1735 123.159 70.441 122.987C70.7152 122.815 71.0243 122.674 71.3682 122.569C71.7155 122.464 72.0917 122.41 72.4995 122.41Z" fill="#27337A"/>
<path d="M86.7413 127.067C86.7413 126.72 86.6906 126.388 86.5948 126.073C86.4961 125.758 86.3399 125.477 86.1296 125.235C85.9192 124.996 85.6516 124.805 85.33 124.661C85.005 124.518 84.6258 124.445 84.1862 124.445C83.3736 124.445 82.6824 124.69 82.1185 125.181C81.5545 125.672 81.2426 126.296 81.1816 127.067H86.7413ZM89.4528 128.287V128.65C89.4528 128.771 89.446 128.889 89.4305 129.01H81.1816C81.2106 129.402 81.3122 129.762 81.4878 130.081C81.6595 130.409 81.8892 130.686 82.1756 130.922C82.4623 131.154 82.7845 131.339 83.1476 131.473C83.5076 131.61 83.8834 131.677 84.2756 131.677C84.9537 131.677 85.5273 131.553 85.996 131.304C86.4609 131.056 86.8464 130.712 87.1491 130.275L88.9556 131.725C87.8852 133.168 86.3336 133.891 84.3008 133.891C83.4567 133.891 82.6791 133.761 81.9719 133.499C81.2615 133.235 80.6496 132.862 80.1302 132.378C79.6112 131.897 79.2034 131.304 78.9104 130.603C78.6139 129.906 78.4707 129.109 78.4707 128.22C78.4707 127.347 78.6139 126.551 78.9104 125.834C79.2034 125.117 79.6048 124.508 80.1176 124.005C80.6307 123.498 81.2358 123.107 81.94 122.829C82.6379 122.549 83.3963 122.409 84.2084 122.409C84.9634 122.409 85.658 122.536 86.3017 122.782C86.942 123.033 87.493 123.4 87.9617 123.89C88.4269 124.381 88.793 124.99 89.0576 125.722C89.3222 126.452 89.4528 127.306 89.4528 128.287Z" fill="#27337A"/>
<path d="M99.7376 125.528C99.7376 126.388 99.8682 127.175 100.133 127.892C100.397 128.609 100.773 129.23 101.263 129.756C101.751 130.285 102.334 130.696 103.003 130.989C103.672 131.282 104.415 131.432 105.23 131.432C106.046 131.432 106.788 131.282 107.466 130.989C108.146 130.696 108.728 130.285 109.219 129.756C109.71 129.23 110.085 128.609 110.35 127.892C110.611 127.175 110.745 126.388 110.745 125.528C110.745 124.7 110.611 123.932 110.35 123.221C110.085 122.514 109.713 121.9 109.232 121.37C108.751 120.845 108.168 120.427 107.489 120.128C106.814 119.828 106.058 119.676 105.23 119.676C104.402 119.676 103.65 119.828 102.981 120.128C102.312 120.427 101.732 120.845 101.251 121.37C100.77 121.9 100.397 122.514 100.133 123.221C99.8682 123.932 99.7376 124.7 99.7376 125.528ZM96.6406 125.528C96.6406 124.251 96.8573 123.091 97.2843 122.059C97.7143 121.029 98.3102 120.15 99.0715 119.427C99.8299 118.704 100.735 118.146 101.783 117.754C102.831 117.362 103.971 117.168 105.208 117.168C106.457 117.168 107.61 117.362 108.665 117.754C109.719 118.146 110.631 118.704 111.398 119.427C112.169 120.15 112.768 121.029 113.198 122.059C113.625 123.091 113.842 124.251 113.842 125.528C113.842 126.78 113.625 127.921 113.198 128.953C112.768 129.985 112.169 130.874 111.398 131.623C110.631 132.368 109.719 132.948 108.665 133.359C107.61 133.776 106.457 133.984 105.208 133.984C103.971 133.984 102.831 133.776 101.783 133.359C100.735 132.948 99.8299 132.368 99.0715 131.623C98.3102 130.874 97.7143 129.985 97.2843 128.953C96.8573 127.921 96.6406 126.78 96.6406 125.528Z" fill="#27337A"/>
<path d="M124.827 128.107C124.827 127.683 124.763 127.266 124.636 126.852C124.505 126.437 124.314 126.065 124.059 125.734C123.801 125.402 123.479 125.134 123.087 124.931C122.692 124.727 122.233 124.625 121.708 124.625C121.211 124.625 120.765 124.73 120.373 124.94C119.981 125.154 119.646 125.425 119.369 125.756C119.089 126.087 118.879 126.463 118.735 126.887C118.592 127.307 118.518 127.728 118.518 128.151C118.518 128.575 118.592 128.993 118.735 129.407C118.879 129.821 119.089 130.194 119.369 130.525C119.646 130.857 119.981 131.124 120.373 131.328C120.765 131.532 121.211 131.634 121.708 131.634C122.233 131.634 122.692 131.529 123.087 131.315C123.479 131.105 123.801 130.831 124.059 130.503C124.314 130.171 124.505 129.792 124.636 129.372C124.763 128.948 124.827 128.527 124.827 128.107ZM118.496 122.726V124.242H118.566C118.7 124.029 118.879 123.815 119.095 123.596C119.315 123.379 119.583 123.185 119.898 123.009C120.217 122.837 120.574 122.694 120.972 122.579C121.373 122.468 121.819 122.41 122.316 122.41C123.087 122.41 123.795 122.557 124.441 122.853C125.091 123.143 125.649 123.548 126.114 124.061C126.582 124.574 126.942 125.176 127.2 125.87C127.455 126.562 127.583 127.307 127.583 128.107C127.583 128.904 127.459 129.655 127.21 130.353C126.962 131.057 126.608 131.666 126.149 132.185C125.687 132.704 125.13 133.122 124.476 133.431C123.82 133.737 123.078 133.893 122.249 133.893C121.481 133.893 120.778 133.733 120.137 133.415C119.497 133.103 119.003 132.673 118.656 132.128H118.611V139H115.896V122.726H118.496Z" fill="#27337A"/>
<path d="M128.874 124.896V122.726H130.773V119.585H133.44V122.726H136.151V124.896H133.44V129.936C133.44 130.42 133.525 130.819 133.701 131.137C133.873 131.452 134.262 131.612 134.864 131.612C135.045 131.612 135.24 131.589 135.45 131.554C135.663 131.516 135.848 131.459 136.017 131.382L136.106 133.507C135.864 133.6 135.578 133.67 135.249 133.724C134.918 133.775 134.599 133.804 134.296 133.804C133.577 133.804 132.987 133.702 132.535 133.498C132.082 133.294 131.726 133.017 131.461 132.66C131.2 132.306 131.018 131.899 130.919 131.44C130.821 130.981 130.773 130.487 130.773 129.958V124.896H128.874Z" fill="#27337A"/>
<path d="M138.388 122.727H141.099V133.575H138.388V122.727ZM138.006 119.044C138.006 118.608 138.165 118.225 138.49 117.9C138.815 117.575 139.226 117.416 139.723 117.416C140.22 117.416 140.637 117.569 140.975 117.878C141.316 118.187 141.485 118.576 141.485 119.044C141.485 119.509 141.316 119.898 140.975 120.207C140.637 120.516 140.22 120.669 139.723 120.669C139.226 120.669 138.815 120.506 138.49 120.181C138.165 119.86 138.006 119.477 138.006 119.044Z" fill="#27337A"/>
<path d="M151.249 125.733C151.036 125.433 150.72 125.181 150.299 124.974C149.879 124.774 149.449 124.669 149.012 124.669C148.516 124.669 148.076 124.774 147.7 124.974C147.324 125.181 147.011 125.446 146.763 125.777C146.515 126.108 146.33 126.481 146.209 126.895C146.088 127.313 146.027 127.73 146.027 128.154C146.027 128.575 146.091 128.992 146.218 129.406C146.349 129.82 146.54 130.193 146.795 130.524C147.053 130.856 147.372 131.124 147.757 131.327C148.143 131.531 148.589 131.633 149.102 131.633C149.526 131.633 149.946 131.55 150.367 131.385C150.79 131.216 151.128 130.977 151.383 130.662L153.081 132.379C152.629 132.86 152.052 133.236 151.351 133.497C150.65 133.761 149.892 133.892 149.08 133.892C148.28 133.892 147.525 133.765 146.808 133.51C146.091 133.255 145.467 132.876 144.931 132.379C144.396 131.882 143.975 131.279 143.666 130.572C143.357 129.862 143.201 129.055 143.201 128.154C143.201 127.278 143.357 126.488 143.666 125.777C143.975 125.07 144.393 124.468 144.919 123.968C145.447 123.474 146.062 123.088 146.763 122.818C147.464 122.547 148.213 122.41 149.012 122.41C149.809 122.41 150.583 122.563 151.329 122.862C152.074 123.165 152.667 123.579 153.103 124.105L151.249 125.733Z" fill="#27337A"/>
<path d="M161.783 128.627H161.17C160.734 128.627 160.273 128.646 159.791 128.685C159.311 128.719 158.864 128.803 158.459 128.93C158.052 129.06 157.714 129.242 157.44 129.475C157.172 129.707 157.036 130.029 157.036 130.434C157.036 130.692 157.093 130.905 157.204 131.08C157.316 131.252 157.466 131.393 157.644 131.498C157.826 131.603 158.029 131.679 158.256 131.724C158.482 131.768 158.707 131.791 158.934 131.791C159.864 131.791 160.575 131.542 161.06 131.045C161.543 130.549 161.783 129.87 161.783 129.01V128.627ZM161.827 132.199H161.76C161.486 132.68 161.05 133.075 160.451 133.384C159.846 133.693 159.157 133.849 158.393 133.849C157.953 133.849 157.5 133.792 157.023 133.677C156.548 133.565 156.111 133.378 155.713 133.113C155.312 132.848 154.984 132.501 154.719 132.075C154.455 131.644 154.324 131.112 154.324 130.481C154.324 129.669 154.554 129.019 155.012 128.538C155.471 128.054 156.064 127.684 156.787 127.426C157.51 127.174 158.313 127.002 159.196 126.919C160.075 126.837 160.938 126.795 161.783 126.795V126.524C161.783 125.846 161.537 125.345 161.047 125.02C160.555 124.699 159.973 124.536 159.298 124.536C158.724 124.536 158.173 124.658 157.644 124.897C157.115 125.138 156.682 125.431 156.334 125.779L154.933 124.128C155.551 123.558 156.264 123.128 157.07 122.841C157.873 122.555 158.692 122.411 159.52 122.411C160.486 122.411 161.279 122.545 161.907 122.816C162.531 123.09 163.025 123.444 163.385 123.88C163.748 124.317 164 124.807 164.144 125.349C164.287 125.893 164.357 126.435 164.357 126.977V133.578H161.827V132.199Z" fill="#27337A"/>
<path d="M167.343 133.575H170.057V116.489H167.343V133.575Z" fill="#27337A"/>
<path d="M186.845 120.92C186.542 120.527 186.122 120.199 185.568 119.935C185.017 119.67 184.465 119.54 183.907 119.54C183.576 119.54 183.245 119.581 182.914 119.664C182.583 119.747 182.28 119.874 182.009 120.05C181.738 120.225 181.515 120.448 181.343 120.728C181.171 121.005 181.082 121.34 181.082 121.732C181.082 122.095 181.158 122.404 181.308 122.659C181.457 122.917 181.668 123.134 181.932 123.315C182.194 123.497 182.512 123.653 182.891 123.79C183.268 123.924 183.681 124.061 184.134 124.195C184.643 124.36 185.179 124.548 185.73 124.762C186.277 124.972 186.782 125.252 187.241 125.597C187.702 125.947 188.078 126.384 188.372 126.909C188.664 127.438 188.814 128.091 188.814 128.875C188.814 129.732 188.654 130.484 188.339 131.124C188.021 131.764 187.6 132.297 187.071 132.717C186.542 133.141 185.927 133.456 185.221 133.667C184.51 133.877 183.764 133.985 182.984 133.985C181.942 133.985 180.925 133.791 179.929 133.408C178.934 133.023 178.122 132.453 177.487 131.701L179.523 129.802C179.916 130.344 180.438 130.774 181.094 131.093C181.751 131.408 182.395 131.564 183.025 131.564C183.357 131.564 183.698 131.523 184.045 131.439C184.392 131.357 184.704 131.217 184.981 131.022C185.262 130.825 185.485 130.579 185.66 130.286C185.832 129.997 185.922 129.63 185.922 129.194C185.922 128.77 185.82 128.419 185.625 128.142C185.427 127.862 185.163 127.623 184.835 127.419C184.504 127.212 184.111 127.037 183.659 126.887C183.206 126.734 182.732 126.578 182.234 126.412C181.754 126.259 181.269 126.077 180.785 125.87C180.307 125.657 179.874 125.38 179.489 125.033C179.103 124.685 178.791 124.262 178.552 123.758C178.31 123.251 178.189 122.621 178.189 121.869C178.189 121.053 178.361 120.356 178.699 119.766C179.036 119.18 179.479 118.692 180.034 118.307C180.581 117.921 181.206 117.638 181.907 117.45C182.607 117.262 183.318 117.166 184.045 117.166C184.857 117.166 185.682 117.31 186.517 117.596C187.355 117.883 188.081 118.313 188.699 118.883L186.845 120.92Z" fill="#27337A"/>
<path d="M193.087 128.107C193.087 128.528 193.15 128.948 193.278 129.372C193.405 129.793 193.599 130.172 193.854 130.503C194.109 130.831 194.435 131.105 194.826 131.315C195.218 131.529 195.687 131.634 196.225 131.634C196.77 131.634 197.238 131.529 197.63 131.315C198.022 131.105 198.343 130.831 198.601 130.503C198.856 130.172 199.047 129.793 199.179 129.372C199.305 128.948 199.37 128.528 199.37 128.107C199.37 127.684 199.305 127.266 199.179 126.852C199.047 126.438 198.856 126.065 198.601 125.734C198.343 125.403 198.022 125.135 197.63 124.931C197.238 124.727 196.77 124.625 196.225 124.625C195.687 124.625 195.218 124.727 194.826 124.931C194.435 125.135 194.109 125.403 193.854 125.734C193.599 126.065 193.405 126.438 193.278 126.852C193.15 127.266 193.087 127.684 193.087 128.107ZM190.327 128.107C190.327 127.247 190.481 126.467 190.793 125.766C191.099 125.064 191.519 124.469 192.048 123.969C192.574 123.472 193.198 123.089 193.922 122.815C194.644 122.545 195.413 122.411 196.225 122.411C197.04 122.411 197.811 122.545 198.535 122.815C199.255 123.089 199.883 123.472 200.412 123.969C200.937 124.469 201.358 125.064 201.664 125.766C201.972 126.467 202.125 127.247 202.125 128.107C202.125 128.968 201.972 129.748 201.664 130.458C201.358 131.166 200.937 131.771 200.412 132.278C199.883 132.784 199.255 133.176 198.535 133.463C197.811 133.75 197.04 133.893 196.225 133.893C195.413 133.893 194.644 133.75 193.922 133.463C193.198 133.176 192.574 132.784 192.048 132.278C191.519 131.771 191.099 131.166 190.793 130.458C190.481 129.748 190.327 128.968 190.327 128.107Z" fill="#27337A"/>
<path d="M211.596 125.733C211.386 125.433 211.071 125.181 210.647 124.974C210.224 124.774 209.796 124.669 209.359 124.669C208.863 124.669 208.423 124.774 208.047 124.974C207.671 125.181 207.359 125.446 207.11 125.777C206.862 126.108 206.674 126.481 206.556 126.895C206.435 127.313 206.374 127.73 206.374 128.154C206.374 128.575 206.438 128.992 206.565 129.406C206.696 129.82 206.887 130.193 207.143 130.524C207.397 130.856 207.719 131.124 208.105 131.327C208.486 131.531 208.936 131.633 209.448 131.633C209.873 131.633 210.297 131.55 210.714 131.385C211.134 131.216 211.475 130.977 211.73 130.662L213.428 132.379C212.975 132.86 212.399 133.236 211.698 133.497C210.998 133.761 210.239 133.892 209.427 133.892C208.627 133.892 207.868 133.765 207.154 133.51C206.438 133.255 205.814 132.876 205.279 132.379C204.74 131.882 204.32 131.279 204.013 130.572C203.705 129.862 203.548 129.055 203.548 128.154C203.548 127.278 203.705 126.488 204.013 125.777C204.32 125.07 204.737 124.468 205.266 123.968C205.795 123.474 206.409 123.088 207.11 122.818C207.811 122.547 208.559 122.41 209.359 122.41C210.156 122.41 210.928 122.563 211.676 122.862C212.422 123.165 213.014 123.579 213.451 124.105L211.596 125.733Z" fill="#27337A"/>
<path d="M215.483 122.727H218.194V133.575H215.483V122.727ZM215.101 119.044C215.101 118.608 215.261 118.225 215.585 117.9C215.91 117.575 216.319 117.416 216.818 117.416C217.315 117.416 217.733 117.569 218.074 117.878C218.412 118.187 218.58 118.576 218.58 119.044C218.58 119.509 218.412 119.898 218.074 120.207C217.733 120.516 217.315 120.669 216.818 120.669C216.319 120.669 215.91 120.506 215.585 120.181C215.261 119.86 215.101 119.477 215.101 119.044Z" fill="#27337A"/>
<path d="M228.571 127.067C228.571 126.72 228.522 126.388 228.423 126.073C228.328 125.758 228.169 125.477 227.959 125.235C227.748 124.996 227.481 124.805 227.159 124.661C226.834 124.518 226.455 124.445 226.019 124.445C225.203 124.445 224.515 124.69 223.947 125.181C223.384 125.672 223.071 126.296 223.014 127.067H228.571ZM231.285 128.287V128.65C231.285 128.771 231.275 128.889 231.263 129.01H223.014C223.04 129.402 223.141 129.762 223.316 130.081C223.491 130.409 223.721 130.686 224.007 130.922C224.291 131.154 224.617 131.339 224.979 131.473C225.336 131.61 225.716 131.677 226.108 131.677C226.786 131.677 227.356 131.553 227.825 131.304C228.29 131.056 228.675 130.712 228.978 130.275L230.784 131.725C229.715 133.168 228.162 133.891 226.129 133.891C225.286 133.891 224.512 133.761 223.804 133.499C223.097 133.235 222.479 132.862 221.96 132.378C221.44 131.897 221.032 131.304 220.739 130.603C220.446 129.906 220.3 129.109 220.3 128.22C220.3 127.347 220.446 126.551 220.739 125.834C221.032 125.117 221.437 124.508 221.95 124.005C222.463 123.498 223.068 123.107 223.769 122.829C224.47 122.549 225.225 122.409 226.037 122.409C226.793 122.409 227.49 122.536 228.131 122.782C228.771 123.033 229.325 123.4 229.791 123.89C230.258 124.381 230.625 124.99 230.886 125.722C231.151 126.452 231.285 127.306 231.285 128.287Z" fill="#27337A"/>
<path d="M232.347 124.896V122.726H234.245V119.585H236.912V122.726H239.626V124.896H236.912V129.936C236.912 130.42 237.001 130.819 237.17 131.137C237.345 131.452 237.733 131.612 238.335 131.612C238.517 131.612 238.712 131.589 238.926 131.554C239.135 131.516 239.32 131.459 239.489 131.382L239.578 133.507C239.339 133.6 239.052 133.67 238.721 133.724C238.39 133.775 238.071 133.804 237.772 133.804C237.049 133.804 236.46 133.702 236.007 133.498C235.554 133.294 235.198 133.017 234.933 132.66C234.672 132.306 234.49 131.899 234.391 131.44C234.296 130.981 234.245 130.487 234.245 129.958V124.896H232.347Z" fill="#27337A"/>
<path d="M241.094 122.727H244.102L247.128 130.615H247.173L249.865 122.727H252.687L247.559 135.904C247.364 136.401 247.153 136.84 246.924 137.226C246.701 137.612 246.427 137.933 246.112 138.198C245.797 138.462 245.421 138.663 244.991 138.796C244.564 138.934 244.047 138.998 243.442 138.998C243.219 138.998 242.989 138.991 242.754 138.965C242.521 138.947 242.286 138.902 242.043 138.842L242.27 136.49C242.451 136.554 242.627 136.592 242.799 136.615C242.971 136.637 243.136 136.649 243.286 136.649C243.573 136.649 243.815 136.615 244.009 136.551C244.207 136.478 244.372 136.372 244.506 136.232C244.643 136.089 244.761 135.914 244.866 135.7C244.971 135.49 245.086 135.241 245.207 134.955L245.752 133.575L241.094 122.727Z" fill="#27337A"/>
<path d="M282.725 133.3V30.8325H284.669V133.3H282.725Z" fill="#27337A"/>
<path d="M315.096 31.1857V43.8182H324.498V105.869H337.935V31.1857H315.096Z" fill="#27337A"/>
<path fill-rule="evenodd" clip-rule="evenodd" d="M381.991 29.545C403.403 29.545 420.764 46.904 420.764 68.316L420.759 68.9861L420.774 68.9983C421.134 82.7485 432.39 93.7806 446.226 93.7806C460.293 93.7806 471.691 82.3819 471.691 68.316C471.691 54.253 460.293 42.8543 446.226 42.8543C435.587 42.8543 426.471 49.3806 422.666 58.6486C421.399 53.3052 419.108 48.3552 416.008 44.0255C423.116 35.1985 434.011 29.545 446.226 29.545C467.638 29.545 485 46.904 485 68.316C485 89.7309 467.638 107.089 446.226 107.089C425.303 107.089 408.248 90.5115 407.485 69.7701L407.483 69.7672L407.411 69.8C407.438 69.3322 407.453 68.861 407.456 68.3874V68.3634V68.3399V68.316C407.456 54.253 396.053 42.8543 381.991 42.8543C367.928 42.8543 356.526 54.253 356.526 68.316C356.526 82.3819 367.928 93.7806 381.991 93.7806C392.633 93.7806 401.749 87.2512 405.554 77.9803C406.821 83.3263 409.109 88.2733 412.208 92.6065C405.104 101.436 394.209 107.089 381.991 107.089C360.579 107.089 343.217 89.7309 343.217 68.316C343.217 46.904 360.579 29.545 381.991 29.545Z" fill="#27337A"/>
<path d="M351.737 121.052C351.436 120.619 351.039 120.3 350.536 120.1C350.033 119.897 349.506 119.797 348.955 119.797C348.626 119.797 348.307 119.832 348.004 119.91C347.696 119.98 347.419 120.103 347.171 120.264C346.925 120.432 346.725 120.645 346.577 120.906C346.426 121.168 346.355 121.477 346.355 121.839C346.355 122.375 346.538 122.788 346.913 123.071C347.287 123.356 347.751 123.601 348.304 123.811C348.858 124.02 349.461 124.224 350.124 124.417C350.781 124.611 351.385 124.879 351.94 125.224C352.492 125.569 352.956 126.024 353.33 126.592C353.702 127.16 353.889 127.915 353.889 128.857C353.889 129.712 353.734 130.454 353.417 131.09C353.104 131.726 352.682 132.255 352.15 132.671C351.621 133.091 351.004 133.407 350.301 133.617C349.597 133.823 348.858 133.93 348.081 133.93C347.093 133.93 346.145 133.765 345.231 133.433C344.319 133.107 343.534 132.552 342.876 131.774L345.006 129.712C345.351 130.235 345.802 130.642 346.364 130.932C346.925 131.226 347.519 131.371 348.149 131.371C348.478 131.371 348.807 131.326 349.136 131.239C349.461 131.148 349.762 131.013 350.03 130.832C350.301 130.655 350.517 130.425 350.681 130.148C350.846 129.874 350.93 129.554 350.93 129.196C350.93 128.612 350.743 128.163 350.369 127.851C349.995 127.534 349.532 127.27 348.978 127.054C348.426 126.837 347.817 126.631 347.161 126.437C346.503 126.24 345.896 125.976 345.344 125.64C344.789 125.305 344.325 124.853 343.953 124.295C343.579 123.733 343.392 122.981 343.392 122.039C343.392 121.216 343.56 120.506 343.895 119.91C344.232 119.309 344.673 118.812 345.218 118.415C345.767 118.019 346.39 117.725 347.093 117.528C347.797 117.335 348.513 117.238 349.248 117.238C350.085 117.238 350.894 117.367 351.679 117.618C352.466 117.873 353.172 118.293 353.802 118.877L351.737 121.052Z" fill="#27337A"/>
<path d="M356.625 122.758H359.316V133.526H356.625V122.758ZM356.244 119.099C356.244 118.666 356.405 118.289 356.725 117.966C357.048 117.647 357.455 117.485 357.948 117.485C358.441 117.485 358.859 117.64 359.194 117.944C359.529 118.25 359.7 118.637 359.7 119.099C359.7 119.563 359.529 119.95 359.194 120.254C358.859 120.561 358.441 120.715 357.948 120.715C357.455 120.715 357.048 120.554 356.725 120.235C356.405 119.912 356.244 119.534 356.244 119.099Z" fill="#27337A"/>
<path d="M362.415 122.757H364.974V124.484H365.015C365.271 123.945 365.662 123.48 366.184 123.08C366.706 122.686 367.417 122.489 368.314 122.489C369.034 122.489 369.643 122.609 370.143 122.847C370.643 123.086 371.054 123.403 371.366 123.79C371.679 124.177 371.905 124.626 372.04 125.136C372.173 125.642 372.24 126.174 372.24 126.726V133.525H369.55V128.075C369.55 127.775 369.534 127.443 369.505 127.075C369.472 126.71 369.395 126.365 369.269 126.046C369.14 125.723 368.942 125.452 368.675 125.236C368.404 125.019 368.036 124.91 367.575 124.91C367.127 124.91 366.748 124.987 366.442 125.136C366.136 125.284 365.881 125.487 365.678 125.739C365.478 125.997 365.329 126.287 365.242 126.617C365.151 126.946 365.106 127.288 365.106 127.646V133.525H362.415V122.757Z" fill="#27337A"/>
<path d="M382.65 125.987C382.337 125.658 382.005 125.397 381.663 125.203C381.321 125.006 380.969 124.91 380.607 124.91C380.117 124.91 379.675 125.003 379.285 125.18C378.897 125.358 378.565 125.597 378.287 125.897C378.01 126.197 377.8 126.542 377.659 126.93C377.517 127.32 377.446 127.724 377.446 128.14C377.446 128.559 377.517 128.962 377.659 129.353C377.8 129.743 378.01 130.085 378.287 130.385C378.565 130.686 378.897 130.924 379.285 131.102C379.675 131.282 380.117 131.373 380.607 131.373C381.028 131.373 381.418 131.286 381.776 131.115C382.134 130.944 382.44 130.692 382.695 130.363L384.489 132.293C384.218 132.561 383.912 132.793 383.557 132.986C383.205 133.183 382.854 133.338 382.492 133.458C382.134 133.577 381.792 133.664 381.463 133.716C381.134 133.77 380.846 133.796 380.607 133.796C379.801 133.796 379.04 133.661 378.32 133.393C377.604 133.122 376.98 132.741 376.458 132.247C375.935 131.753 375.519 131.16 375.212 130.463C374.905 129.769 374.754 128.995 374.754 128.14C374.754 127.288 374.905 126.513 375.212 125.82C375.519 125.123 375.935 124.529 376.458 124.038C376.98 123.545 377.604 123.161 378.32 122.889C379.04 122.622 379.801 122.489 380.607 122.489C381.295 122.489 381.989 122.619 382.682 122.88C383.38 123.141 383.989 123.558 384.512 124.125L382.65 125.987Z" fill="#27337A"/>
<path d="M393.779 127.064C393.763 126.271 393.515 125.648 393.036 125.193C392.559 124.735 391.895 124.505 391.042 124.505C390.233 124.505 389.594 124.738 389.122 125.202C388.652 125.667 388.365 126.287 388.261 127.064H393.779ZM388.261 129.085C388.348 129.891 388.664 130.52 389.203 130.969C389.743 131.418 390.391 131.64 391.155 131.64C391.827 131.64 392.391 131.501 392.846 131.227C393.305 130.949 393.705 130.601 394.047 130.181L395.977 131.64C395.348 132.418 394.647 132.973 393.87 133.302C393.088 133.631 392.275 133.796 391.424 133.796C390.617 133.796 389.852 133.66 389.135 133.392C388.416 133.121 387.797 132.74 387.273 132.247C386.748 131.753 386.335 131.159 386.029 130.462C385.722 129.769 385.566 128.994 385.566 128.142C385.566 127.287 385.722 126.513 386.029 125.819C386.335 125.122 386.748 124.528 387.273 124.038C387.797 123.541 388.416 123.16 389.135 122.892C389.852 122.621 390.617 122.489 391.424 122.489C392.169 122.489 392.856 122.618 393.476 122.879C394.095 123.144 394.627 123.522 395.066 124.012C395.509 124.505 395.854 125.116 396.102 125.842C396.347 126.568 396.47 127.4 396.47 128.342V129.085H388.261Z" fill="#27337A"/>
<path d="M410.109 120.737L407.124 123.496L405.556 121.634L410.358 117.64H412.8V133.525H410.109V120.737Z" fill="#27337A"/>
<path d="M426.847 122.825C426.847 122.418 426.773 122.044 426.624 121.692C426.473 121.341 426.265 121.034 426.004 120.773C425.743 120.512 425.436 120.305 425.085 120.157C424.733 120.005 424.355 119.931 423.952 119.931C423.549 119.931 423.171 120.005 422.82 120.157C422.467 120.305 422.161 120.512 421.9 120.773C421.638 121.034 421.432 121.341 421.284 121.692C421.132 122.044 421.058 122.418 421.058 122.825C421.058 123.228 421.132 123.606 421.284 123.958C421.432 124.31 421.638 124.616 421.9 124.877C422.161 125.139 422.467 125.345 422.82 125.494C423.171 125.642 423.549 125.719 423.952 125.719C424.355 125.719 424.733 125.642 425.085 125.494C425.436 125.345 425.743 125.139 426.004 124.877C426.265 124.616 426.473 124.31 426.624 123.958C426.773 123.606 426.847 123.228 426.847 122.825ZM420.858 133.525L424.669 127.649L424.627 127.604C424.461 127.694 424.239 127.759 423.965 127.804C423.687 127.849 423.413 127.872 423.146 127.872C422.441 127.872 421.8 127.736 421.216 127.469C420.631 127.197 420.128 126.833 419.699 126.368C419.274 125.907 418.945 125.368 418.711 124.755C418.482 124.142 418.366 123.49 418.366 122.803C418.366 121.98 418.508 121.231 418.792 120.56C419.077 119.885 419.467 119.314 419.97 118.843C420.47 118.372 421.071 118.011 421.764 117.756C422.461 117.501 423.213 117.372 424.02 117.372C424.843 117.372 425.601 117.498 426.294 117.743C426.992 117.992 427.592 118.346 428.092 118.808C428.593 119.272 428.983 119.841 429.257 120.515C429.534 121.186 429.673 121.941 429.673 122.78C429.673 123.619 429.534 124.377 429.257 125.058C428.983 125.736 428.625 126.429 428.192 127.133L424.129 133.525H420.858Z" fill="#27337A"/>
<path d="M437.793 120.737L434.808 123.496L433.239 121.634L438.041 117.64H440.484V133.525H437.793V120.737Z" fill="#27337A"/>
<path d="M448.877 128.343C448.877 128.747 448.951 129.124 449.099 129.476C449.251 129.828 449.459 130.134 449.72 130.396C449.981 130.657 450.287 130.864 450.639 131.012C450.987 131.161 451.369 131.238 451.772 131.238C452.175 131.238 452.552 131.161 452.904 131.012C453.256 130.864 453.563 130.657 453.824 130.396C454.085 130.134 454.292 129.828 454.44 129.476C454.588 129.124 454.666 128.747 454.666 128.343C454.666 127.937 454.588 127.563 454.44 127.211C454.292 126.859 454.085 126.552 453.824 126.291C453.563 126.03 453.256 125.823 452.904 125.675C452.552 125.523 452.175 125.449 451.772 125.449C451.369 125.449 450.987 125.523 450.639 125.675C450.287 125.823 449.981 126.03 449.72 126.291C449.459 126.552 449.251 126.859 449.099 127.211C448.951 127.563 448.877 127.937 448.877 128.343ZM454.866 117.643L451.052 123.519L451.097 123.565C451.262 123.474 451.485 123.406 451.759 123.361C452.036 123.319 452.31 123.297 452.578 123.297C453.282 123.297 453.924 123.429 454.508 123.7C455.092 123.968 455.596 124.336 456.021 124.797C456.45 125.262 456.776 125.801 457.009 126.414C457.241 127.027 457.357 127.679 457.357 128.366C457.357 129.189 457.216 129.937 456.932 130.609C456.647 131.283 456.253 131.854 455.754 132.325C455.254 132.797 454.653 133.158 453.959 133.413C453.263 133.667 452.51 133.793 451.704 133.793C450.868 133.793 450.103 133.671 449.417 133.422C448.729 133.177 448.132 132.822 447.632 132.358C447.131 131.896 446.741 131.325 446.467 130.654C446.189 129.979 446.051 129.228 446.051 128.389C446.051 127.55 446.189 126.791 446.467 126.111C446.741 125.43 447.099 124.739 447.532 124.036L451.594 117.643H454.866Z" fill="#27337A"/>
<path d="M107.757 49.5089C102.757 44.3044 96.022 41.5493 88.9808 41.5493C81.9392 41.5493 75.2047 44.3044 70.1027 49.5089C65.0007 54.7129 62.3472 61.5496 62.3472 68.8972C62.3472 76.2432 65.0007 82.9778 70.1027 88.1827C75.2047 93.3868 81.8377 96.1415 88.9808 96.1415C96.124 96.1415 102.655 93.3868 107.757 88.1827C112.859 82.9778 115.614 76.2432 115.614 68.8972C115.614 61.5496 112.859 54.7129 107.757 49.5089ZM116.532 95.9373C109.084 103.183 99.3893 107.162 88.9808 107.162C78.572 107.162 68.6741 103.183 61.3268 95.9373C53.8779 88.693 50 79.3045 50 68.8972C50 58.4888 53.8779 49.1003 61.3268 41.7529C68.7761 34.5082 78.4704 30.6308 88.9808 30.6308C99.4914 30.6308 109.084 34.5082 116.532 41.7529C123.982 49.1003 127.961 58.5903 127.961 68.8972C127.961 79.3045 123.982 88.693 116.532 95.9373Z" fill="#27337A"/>
<path d="M141.449 86.2431C143.184 92.7741 148.082 96.2435 155.531 96.2435C162.675 96.2435 167.062 91.9583 167.062 85.4273C167.062 78.2849 161.654 76.5502 154.102 72.8764C141.143 66.5499 134 61.652 134 50.6308C134 38.8963 142.674 30.6308 155.939 30.6308C166.756 30.6308 174.205 35.0184 176.96 42.6713L167.674 47.4676C164.817 42.9779 161.449 40.8346 156.858 40.8346C150.429 40.8346 146.449 44.5085 146.449 50.0186C146.449 57.0598 152.164 59.203 160.327 62.9781C173.185 68.8972 179.205 74.1012 179.205 84.6105C179.205 98.1831 170.123 107.162 155.021 107.162C142.572 107.162 134.408 101.244 131.959 90.6313L141.449 86.2431Z" fill="#27337A"/>
<path d="M217.386 52.1625L194.426 105.735H181.977L217.283 29.9179L252.591 105.735H240.039L217.386 52.1625Z" fill="#27337A"/>
<path d="M229.941 85.3956L209.25 75.4696L208.628 93.804L229.941 85.3956Z" fill="#558ED2"/>
</svg>
