<svg width="710" height="518" viewBox="0 0 710 518" fill="none" xmlns="http://www.w3.org/2000/svg">
<path fill-rule="evenodd" clip-rule="evenodd" d="M262.232 113.794C256.832 113.794 253.119 114.17 251.094 114.923C249.07 115.676 247.455 116.913 246.249 118.637C245.044 120.36 244.441 122.386 244.441 124.717C244.441 128.648 245.659 131.464 248.094 133.163C250.528 134.862 254.976 135.712 261.437 135.712H267.802V113.794H262.232ZM318.889 108.707H327.221V116.87H318.889V108.707ZM306.668 108.707H315.001V116.87H306.668V108.707ZM266.593 93.9812H288.115V200.738H267.802V155.524H265.943L241.945 200.738H219.738L245.02 153.274C238.248 150.855 233.183 147.287 229.822 142.57C226.461 137.853 224.78 131.987 224.78 124.97C224.78 118.294 226.302 112.512 229.346 107.625C232.389 102.739 236.412 99.243 241.412 97.1382C246.412 95.0338 254.806 93.9812 266.593 93.9812ZM477.744 15.5747L477.879 15.6813L478.013 15.5747L586.012 101.346L585.868 101.526L710 200.738H651.382L477.879 62.9453L304.376 200.738H288.115V166.531L294.774 161.23H294.447V122.74H302.779V154.854L307.058 151.447H306.668V122.74H315.001V144.823L318.889 141.734V122.74H327.221V135.116L331.111 132.029V102.837H327.223V102.837H318.889V102.837H315.001V102.837H306.668V102.837H302.779V102.837H294.447V108.707H302.779V116.87H294.447V93.6662V93.666H318.889H327.223H346.665V102.837H339.443V125.41L477.744 15.5747Z" fill="#EE2A7B"/>
<path fill-rule="evenodd" clip-rule="evenodd" d="M637.206 206.408H681.012C689.817 206.408 694.219 210.819 694.219 219.64V252.253H672.455V224.765H645.855V251.135L689.475 292.32C692.638 295.302 694.219 299.247 694.219 304.154V338.91C694.219 347.793 689.817 352.235 681.012 352.235H637.206C628.463 352.235 624.092 347.793 624.092 338.91V304.154H645.855V333.878H672.455V305.272L628.834 263.9C625.673 260.857 624.092 256.974 624.092 252.253V219.826C624.092 210.881 628.463 206.408 637.206 206.408ZM248.727 206.408H294.208C303.073 206.408 307.508 210.881 307.508 219.826V250.948H285.65V225.137H257.283V333.506H285.65V292.693H269.467V274.151H307.508V338.91C307.508 347.793 303.073 352.235 294.208 352.235H248.447C239.829 352.235 235.519 347.793 235.519 338.91V219.826C235.519 210.881 239.921 206.408 248.727 206.408ZM528.099 177.592H554.164V251.467L583.124 177.592H611.639V178.82L576.218 261.733L615.983 352.235H587.245L554.164 274.343V352.235H528.099V177.592Z" fill="white"/>
<path fill-rule="evenodd" clip-rule="evenodd" d="M508.004 126.041H415.236V155.959H474.244V222.011H423.46V251.351H474.244V322.316H414.37V352.235H508.004V126.041Z" fill="white"/>
<path fill-rule="evenodd" clip-rule="evenodd" d="M327.049 192.321H392.717V213.473H350.946V260.17H386.894V280.912H350.946V331.083H393.329V352.235H327.049V192.321Z" fill="#EE2A7B"/>
<path fill-rule="evenodd" clip-rule="evenodd" d="M61.3799 259.265H147.518C152.887 259.265 157.271 260.964 160.668 264.361C164.065 267.758 165.765 272.142 165.765 277.512V375.156C165.765 387.54 157.435 393.732 140.778 393.732C139.134 393.732 136.723 393.65 133.545 393.485C130.367 393.321 128.066 393.239 126.64 393.239C141.436 434.225 156.175 475.322 170.861 516.527H146.86L99.0238 378.773L102.147 374.17H142.915V279.484H84.2297V516.527H61.3799V259.265Z" fill="#EE2A7B" stroke="#EE2A7B" stroke-miterlimit="10" stroke-linecap="round" stroke-linejoin="round"/>
<path fill-rule="evenodd" clip-rule="evenodd" d="M295.662 445.069V504.901H328.554V453.765L315.227 445.069H295.662ZM377.723 380.227V504.901H413.924V380.227H377.723ZM295.662 380.227V433.631H315.039L328.177 424.747V380.227H295.662ZM209.392 380.227V504.901H245.594V380.227H209.392ZM375.076 368.601H416.476C419.563 368.601 422.1 369.577 424.085 371.531C426.07 373.485 427.062 376.005 427.062 379.093V506.035C427.062 509.123 426.07 511.643 424.085 513.596C422.1 515.55 419.563 516.526 416.476 516.526H375.076C371.988 516.526 369.467 515.55 367.513 513.596C365.561 511.643 364.583 509.123 364.583 506.035V379.093C364.583 376.005 365.561 373.485 367.513 371.531C369.467 369.577 371.988 368.601 375.076 368.601ZM282.522 368.601H330.917C334.005 368.601 336.526 369.577 338.48 371.531C340.433 373.485 341.41 376.005 341.41 379.093V423.045C341.41 426.952 339.645 430.229 336.117 432.876C332.65 434.955 329.185 437.035 325.719 439.113L336.872 446.297C340.149 448.314 341.787 451.465 341.787 455.75V506.035C341.787 509.123 340.811 511.643 338.857 513.596C336.904 515.55 334.384 516.526 331.296 516.526H282.522V368.601ZM206.745 368.601H248.146C251.233 368.601 253.769 369.577 255.755 371.531C257.74 373.485 258.732 376.005 258.732 379.093V506.035C258.732 509.123 257.74 511.643 255.755 513.596C253.769 515.55 251.233 516.526 248.146 516.526H206.745C203.658 516.526 201.137 515.55 199.183 513.596C197.231 511.643 196.253 509.123 196.253 506.035V379.093C196.253 376.005 197.231 373.485 199.183 371.531C201.137 369.577 203.658 368.601 206.745 368.601Z" fill="#EE2A7B" stroke="#EE2A7B" stroke-miterlimit="10" stroke-linecap="round" stroke-linejoin="round"/>
<path fill-rule="evenodd" clip-rule="evenodd" d="M647.964 368.601H685.206C688.293 368.601 690.798 369.577 692.72 371.531C694.642 373.485 695.602 376.005 695.602 379.093V413.499H682.464V380.227H650.516V411.419L691.538 460.76C694.248 464.036 695.602 467.722 695.602 471.818V506.035C695.602 509.123 694.642 511.643 692.72 513.596C690.798 515.55 688.293 516.526 685.206 516.526H647.964C644.876 516.526 642.34 515.55 640.355 513.596C638.37 511.643 637.378 509.123 637.378 506.035V468.51H650.516V504.901H682.464V469.644L641.632 420.304C638.795 416.901 637.378 413.152 637.378 409.056V379.093C637.378 376.005 638.37 373.485 640.355 371.531C642.34 369.577 644.876 368.601 647.964 368.601ZM566.375 368.601H604.467C607.555 368.601 610.108 369.577 612.124 371.531C614.14 373.485 615.149 376.005 615.149 379.093V413.499H601.916V380.227H569.022V504.901H601.916V468.51H615.149V506.035C615.149 509.123 614.14 511.643 612.124 513.596C610.108 515.55 607.555 516.526 604.467 516.526H566.375C563.288 516.526 560.768 515.55 558.814 513.596C556.861 511.643 555.884 509.123 555.884 506.035V379.093C555.884 376.005 556.861 373.485 558.814 371.531C560.768 369.577 563.288 368.601 566.375 368.601ZM517.713 368.601H530.853V516.526H517.713V368.601ZM442.549 368.601H501.624V380.227H478.75V516.526H465.612V380.227H442.549V368.601Z" fill="white" stroke="white" stroke-miterlimit="10" stroke-linecap="round" stroke-linejoin="round"/>
<path fill-rule="evenodd" clip-rule="evenodd" d="M75.0924 186.544H143L155.889 238.096H62.2046L75.0924 186.544ZM161.501 114.392C152.612 113.614 144.774 120.191 143.996 129.081C143.219 137.971 149.795 145.809 158.685 146.587C167.575 147.364 175.413 140.788 176.191 131.898C176.969 123.007 170.392 115.17 161.501 114.392ZM56.3004 105.188C47.4105 104.411 39.5726 110.987 38.7951 119.877C38.0166 128.768 44.593 136.605 53.484 137.383C62.374 138.161 70.2118 131.584 70.9893 122.693C71.7678 113.803 65.1914 105.966 56.3004 105.188ZM114.902 43.4289C119.931 43.8697 123.651 48.302 123.212 53.3309C122.881 57.1025 120.305 60.1388 116.916 61.235L116.509 61.2803L115.329 74.7761L189.245 81.2432C204.993 82.6203 216.641 96.5034 215.263 112.25L211.258 158.032C209.881 173.78 195.998 185.428 180.251 184.05L26.1283 170.567C10.3816 169.188 -1.26704 155.306 0.110636 139.559L4.11606 93.7775C5.49373 78.0302 19.3761 66.3817 35.1234 67.7589L109.04 74.2259L110.221 60.73L109.827 60.6143C106.681 58.9468 104.671 55.5097 105 51.738C105.44 46.7092 109.874 42.9891 114.902 43.4289Z" fill="white"/>
<path d="M123.053 39.6289L132.291 24.253L140.948 29.4554L150.187 14.0806" stroke="#EE2A7B" stroke-width="2.66667" stroke-miterlimit="10" stroke-linecap="round" stroke-linejoin="bevel"/>
<path d="M135.759 49.5311L150.629 39.5007L156.277 47.8741L171.147 37.8438" stroke="#EE2A7B" stroke-width="2.66667" stroke-miterlimit="10" stroke-linecap="round" stroke-linejoin="bevel"/>
<path d="M75.8298 19.9766L90.7008 30.0069L85.0522 38.3792L99.9231 48.4096" stroke="#EE2A7B" stroke-width="2.66667" stroke-miterlimit="10" stroke-linecap="round" stroke-linejoin="bevel"/>
<path d="M100.565 2L109.803 17.3749L101.146 22.5773L110.384 37.9522" stroke="#EE2A7B" stroke-width="2.66667" stroke-miterlimit="10" stroke-linecap="round" stroke-linejoin="bevel"/>
</svg>
