<svg width="711" height="497" viewBox="0 0 711 497" fill="none" xmlns="http://www.w3.org/2000/svg">
<path fill-rule="evenodd" clip-rule="evenodd" d="M242.952 102.668C237.307 102.668 233.427 103.061 231.31 103.848C229.194 104.635 227.506 105.929 226.245 107.73C224.985 109.531 224.355 111.649 224.355 114.085C224.355 118.195 225.628 121.138 228.173 122.914C230.718 124.69 235.368 125.578 242.121 125.578H248.774V102.668H242.952ZM302.175 97.3504H310.885V105.883H302.175V97.3504ZM289.401 97.3504H298.111V105.883H289.401V97.3504ZM247.511 81.9576H270.007V193.549H248.774V146.288H246.831L221.746 193.549H198.534L224.96 143.936C217.882 141.408 212.587 137.677 209.074 132.747C205.561 127.816 203.804 121.684 203.804 114.35C203.804 107.371 205.395 101.328 208.576 96.2197C211.758 91.1117 215.962 87.4577 221.189 85.2577C226.416 83.0579 235.189 81.9576 247.511 81.9576ZM468.225 0L468.366 0.111436L468.506 0L581.397 89.6561L581.246 89.8446L711 193.549H649.727L468.366 49.5161L287.005 193.549H270.007V157.793L276.967 152.252H276.625V112.019H285.335V145.588L289.808 142.026H289.401V112.019H298.111V135.102L302.175 131.873V112.019H310.885V124.956L314.95 121.728V91.2149H310.886V91.215H302.175V91.2149H298.111V91.215H289.401V91.2149H285.335V91.215H276.625V97.3504H285.335V105.883H276.625V81.6284V81.6282H302.175H310.886H331.209V91.2149H323.66V114.81L468.225 0Z" fill="#EE2A7B"/>
<path fill-rule="evenodd" clip-rule="evenodd" d="M634.909 200.577H680.7C689.903 200.577 694.504 205.187 694.504 214.408V248.498H671.754V219.765H643.949V247.329L689.546 290.379C692.851 293.497 694.504 297.62 694.504 302.75V339.08C694.504 348.365 689.903 353.008 680.7 353.008H634.909C625.77 353.008 621.201 348.365 621.201 339.08V302.75H643.949V333.82H671.754V303.918L626.158 260.673C622.854 257.491 621.201 253.432 621.201 248.498V214.602C621.201 205.252 625.77 200.577 634.909 200.577ZM228.835 200.577H276.376C285.643 200.577 290.278 205.252 290.278 214.602V247.134H267.431V220.154H237.779V333.431H267.431V290.77H250.515V271.387H290.278V339.08C290.278 348.365 285.643 353.008 276.376 353.008H228.543C219.534 353.008 215.029 348.365 215.029 339.08V214.602C215.029 205.252 219.63 200.577 228.835 200.577ZM520.861 170.456H548.106V247.676L578.378 170.456H608.184V171.739L571.159 258.407L612.725 353.008H582.685L548.106 271.588V353.008H520.861V170.456Z" fill="white"/>
<path fill-rule="evenodd" clip-rule="evenodd" d="M309.605 184.752H379.336V207.007H334.981V256.14H373.154V277.965H334.981V330.753H379.987V353.008H309.605V184.752Z" fill="#EE2A7B"/>
<path fill-rule="evenodd" clip-rule="evenodd" d="M499.855 115.47H401.796V146.889H464.17V216.252H410.488V247.065H464.17V321.589H400.881V353.008H499.855V115.47Z" fill="white"/>
<path fill-rule="evenodd" clip-rule="evenodd" d="M65.647 175.563H73.1107V252.994H93.032V175.563H100.496V253.639C100.496 255.393 99.9327 256.825 98.8044 257.934C97.6772 259.044 96.2366 259.599 94.4825 259.599H71.6074C69.8534 259.599 68.4215 259.044 67.3108 257.934C66.2012 256.825 65.647 255.393 65.647 253.639V175.563Z" fill="#EE2A7B" stroke="#EE2A7B" stroke-miterlimit="10" stroke-linecap="round" stroke-linejoin="round"/>
<path d="M120.295 178.153C122.872 178.153 125.074 179.084 126.9 180.946C128.761 182.807 129.692 185.062 129.692 187.711C129.692 190.325 128.779 192.562 126.953 194.423C125.128 196.249 122.944 197.162 120.402 197.162C117.789 197.162 115.552 196.231 113.69 194.37C111.865 192.473 110.952 190.181 110.952 187.497C110.952 184.919 111.865 182.718 113.69 180.892C115.516 179.066 117.717 178.153 120.295 178.153ZM112.938 202.21H127.651V260.632H112.938V202.21Z" fill="white"/>
<path fill-rule="evenodd" clip-rule="evenodd" d="M177.772 385.133V479.332H190.984C194.84 479.332 197.97 478.224 200.375 476.011C202.779 473.797 203.981 470.762 203.981 466.905V397.416C203.981 393.75 202.827 390.786 200.518 388.525C198.209 386.263 195.221 385.133 191.556 385.133H177.772ZM291.985 376.348H320.123C322.456 376.348 324.348 377.086 325.801 378.562C327.253 380.038 327.978 381.942 327.978 384.275V410.271H318.051V385.133H293.913V408.7L324.908 445.98C326.954 448.455 327.978 451.241 327.978 454.335V480.189C327.978 482.521 327.253 484.426 325.801 485.902C324.348 487.377 322.456 488.115 320.123 488.115H291.985C289.651 488.115 287.735 487.377 286.235 485.902C284.735 484.426 283.985 482.521 283.985 480.189V451.836H293.913V479.332H318.051V452.692L287.2 415.413C285.057 412.842 283.985 410.009 283.985 406.915V384.275C283.985 381.942 284.735 380.038 286.235 378.562C287.735 377.086 289.651 376.348 291.985 376.348ZM231.628 376.348H267.908V385.133H241.555V426.84H265.551V435.767H241.555V479.332H268.337V488.115H231.628V376.348ZM167.845 376.348H193.412C199.364 376.348 204.267 378.241 208.124 382.026C211.981 385.811 213.908 390.655 213.908 396.559V467.905C213.908 473.808 211.969 478.653 208.088 482.437C204.208 486.223 199.315 488.115 193.412 488.115H167.845V376.348Z" fill="#EE2A7B" stroke="#EE2A7B" stroke-miterlimit="10" stroke-linecap="round" stroke-linejoin="round"/>
<path d="M356.963 376C360.539 376 363.593 377.275 366.126 379.826C368.709 382.376 370 385.466 370 389.095C370 392.675 368.734 395.741 366.201 398.291C363.668 400.792 360.638 402.043 357.112 402.043C353.486 402.043 350.382 400.768 347.799 398.217C345.266 395.618 344 392.479 344 388.801C344 385.27 345.266 382.253 347.799 379.752C350.332 377.251 353.387 376 356.963 376ZM346.756 408.958H367.169V489H346.756V408.958Z" fill="white"/>
<path fill-rule="evenodd" clip-rule="evenodd" d="M449.921 376.348H457.349L486.63 457.121V376.348H495.985V488.115H489.13L459.277 405.915V488.115H449.921V376.348ZM395.165 376.348H424.517C426.851 376.348 428.755 377.086 430.231 378.562C431.707 380.038 432.445 381.942 432.445 384.275V410.271H422.446V385.133H397.165V479.332H422.446V440.695H410.52V432.124H432.445V480.189C432.445 482.521 431.707 484.426 430.231 485.902C428.755 487.377 426.851 488.115 424.517 488.115H395.165C392.832 488.115 390.927 487.377 389.452 485.902C387.976 484.426 387.238 482.521 387.238 480.189V384.275C387.238 381.942 387.976 380.038 389.452 378.562C390.927 377.086 392.832 376.348 395.165 376.348Z" fill="#EE2A7B" stroke="#EE2A7B" stroke-miterlimit="10" stroke-linecap="round" stroke-linejoin="round"/>
<path fill-rule="evenodd" clip-rule="evenodd" d="M161.299 268.914H169.138L179.233 300.809L189.704 268.914H197.168C197.168 269.164 197.168 269.325 197.168 269.397L183.207 309.509C193.158 338.326 198.098 352.806 198.027 352.95H190.349L179.126 318.422L167.903 352.95H160.44C160.44 352.699 160.44 352.556 160.44 352.52L175.421 309.938C165.97 282.732 161.262 269.057 161.299 268.914ZM116.456 268.914H123.919V346.345H143.841V268.914H151.304V346.989C151.304 348.743 150.74 350.175 149.613 351.285C148.486 352.394 147.044 352.95 145.29 352.95H122.415C120.661 352.95 119.229 352.394 118.119 351.285C117.01 350.175 116.456 348.743 116.456 346.989V268.914Z" fill="#EE2A7B" stroke="#EE2A7B" stroke-miterlimit="10" stroke-linecap="round" stroke-linejoin="round"/>
<path fill-rule="evenodd" clip-rule="evenodd" d="M50.9765 383.778C38.9489 393.773 32.9357 402.508 32.9357 409.984C32.9357 413.479 34.5797 416.689 37.8679 419.614C41.156 422.54 45.3162 424.002 50.3496 424.002C57.5736 424.002 66.6254 420.81 77.5049 414.424C71.2288 408.262 62.386 398.047 50.9765 383.778ZM59.6301 309.424C56.5421 309.424 53.9215 310.521 51.7683 312.715C49.615 314.908 48.5384 317.469 48.5384 320.394C48.5384 326.245 51.4229 332.909 57.192 340.384C66.213 332.664 70.7229 325.839 70.7229 319.907C70.7229 316.819 69.7068 314.299 67.6756 312.349C65.6433 310.399 62.9622 309.424 59.6301 309.424ZM59.3871 278.341C73.4447 278.341 84.2318 282.608 91.7494 291.14C99.266 299.672 103.024 308.286 103.024 316.981C103.024 323.807 101.297 330.348 97.844 336.606C94.3898 342.863 86.4466 352.126 74.0133 364.397C88.5658 381.543 97.9562 392.229 102.183 396.454C104.785 394.505 111.411 388.979 122.062 379.877L142.395 403.158L133.154 411.56L124.033 419.841L152.816 450.33H111.444L99.619 438.141C80.7644 449.275 63.2515 454.841 47.0791 454.841C33.3448 454.841 22.2311 450.819 13.7391 442.773C5.24599 434.729 1 424.409 1 411.813C1 402.306 3.40618 393.326 8.21962 384.874C13.032 376.424 21.271 367.688 32.9357 358.668C21.3964 343.147 15.6273 329.414 15.6273 317.469C15.6273 308.612 19.4466 299.875 27.0852 291.261C34.7238 282.648 45.4911 278.341 59.3871 278.341Z" fill="white" stroke="white" stroke-miterlimit="10" stroke-linecap="round" stroke-linejoin="round"/>
<path fill-rule="evenodd" clip-rule="evenodd" d="M524.049 378.97C524.049 376.778 525.825 375.002 528.017 375.002H672.941C675.133 375.002 676.909 376.778 676.909 378.97V457.912C676.909 460.103 675.133 461.879 672.941 461.879H528.017C525.825 461.879 524.049 460.103 524.049 457.912V378.97Z" fill="#EE2A7B"/>
<path fill-rule="evenodd" clip-rule="evenodd" d="M524.049 481.475C524.049 474.187 529.958 468.278 537.245 468.278C544.533 468.278 550.442 474.187 550.442 481.475C550.442 488.763 544.533 494.671 537.245 494.671C529.958 494.671 524.049 488.763 524.049 481.475Z" fill="white"/>
<path fill-rule="evenodd" clip-rule="evenodd" d="M557.04 485.849C557.04 485.366 557.471 484.974 558.003 484.974H635.257C635.789 484.974 636.22 485.366 636.22 485.849V496.099C636.22 496.582 635.789 496.974 635.257 496.974H558.003C557.471 496.974 557.04 496.582 557.04 496.099V485.849Z" fill="white"/>
<path fill-rule="evenodd" clip-rule="evenodd" d="M557.04 469.153C557.04 468.67 557.471 468.278 558.002 468.278H661.65C662.181 468.278 662.612 468.67 662.612 469.153V479.403C662.612 479.886 662.181 480.278 661.65 480.278H558.002C557.471 480.278 557.04 479.886 557.04 479.403V469.153Z" fill="white"/>
</svg>
