<svg width="711" height="517" viewBox="0 0 711 517" fill="none" xmlns="http://www.w3.org/2000/svg">
<path fill-rule="evenodd" clip-rule="evenodd" d="M269.556 96.8323C264.232 96.8323 260.572 97.2031 258.575 97.9452C256.58 98.6871 254.988 99.9075 253.799 101.606C252.61 103.305 252.016 105.303 252.016 107.601C252.016 111.477 253.217 114.252 255.617 115.927C258.017 117.602 262.403 118.441 268.772 118.441H275.047V96.8323H269.556ZM325.413 91.817H333.628V99.8648H325.413V91.817ZM313.365 91.817H321.579V99.8648H313.365V91.817ZM273.855 77.2991H295.074V182.548H275.047V137.973H273.214L249.556 182.548H227.662L252.587 135.755C245.911 133.37 240.917 129.852 237.604 125.202C234.29 120.551 232.633 114.768 232.633 107.851C232.633 101.268 234.134 95.5683 237.134 90.7506C240.135 85.9328 244.1 82.4866 249.03 80.4116C253.96 78.3369 262.235 77.2991 273.855 77.2991ZM482.025 0L482.157 0.105102L482.289 0L588.763 84.56L588.621 84.7378L711 182.548H653.209L482.157 46.7016L311.105 182.548H295.074V148.824L301.638 143.598H301.315V105.652H309.53V137.312L313.748 133.953H313.365V105.652H321.579V127.423L325.413 124.377V105.652H333.628V117.853L337.462 114.809V86.0302H333.629V86.0303H325.413V86.0302H321.579V86.0303H313.365V86.0302H309.53V86.0303H301.315V91.817H309.53V99.8648H301.315V76.9886V76.9884H325.413H333.629H352.796V86.0302H345.677V108.284L482.025 0Z" fill="#EE2A7B"/>
<path fill-rule="evenodd" clip-rule="evenodd" d="M639.234 189.176H682.422C691.102 189.176 695.442 193.524 695.442 202.221V234.373H673.985V207.273H647.761V233.27L690.765 273.874C693.883 276.814 695.442 280.703 695.442 285.541V319.806C695.442 328.564 691.102 332.943 682.422 332.943H639.234C630.615 332.943 626.305 328.564 626.305 319.806V285.541H647.761V314.845H673.985V286.643L630.981 245.856C627.864 242.855 626.305 239.027 626.305 234.373V202.404C626.305 193.585 630.615 189.176 639.234 189.176ZM256.242 189.176H301.08C309.821 189.176 314.192 193.585 314.192 202.404V233.087H292.644V207.64H264.677V314.478H292.644V274.242H276.689V255.961H314.192V319.806C314.192 328.564 309.821 332.943 301.08 332.943H255.966C247.469 332.943 243.221 328.564 243.221 319.806V202.404C243.221 193.585 247.56 189.176 256.242 189.176ZM531.668 160.767H557.365V233.598L585.916 160.767H614.029V161.977L579.108 243.719L618.311 332.943H589.979L557.365 256.151V332.943H531.668V160.767Z" fill="white"/>
<path fill-rule="evenodd" clip-rule="evenodd" d="M332.42 174.25H398.188V195.24H356.354V241.581H392.357V262.165H356.354V311.953H398.802V332.943H332.42V174.25Z" fill="#EE2A7B"/>
<path fill-rule="evenodd" clip-rule="evenodd" d="M511.857 108.907H419.372V138.54H478.2V203.961H427.57V233.022H478.2V303.31H418.508V332.943H511.857V108.907Z" fill="white"/>
<path fill-rule="evenodd" clip-rule="evenodd" d="M151.939 230.201V262.259H169.563V234.86L162.422 230.201H151.939ZM151.939 195.459V224.072H162.32L169.361 219.313V195.459H151.939ZM144.899 189.229H170.83C172.484 189.229 173.834 189.752 174.881 190.799C175.927 191.846 176.45 193.197 176.45 194.851V218.401C176.45 220.494 175.505 222.25 173.614 223.668C171.758 224.782 169.9 225.896 168.044 227.011L174.02 230.859C175.775 231.94 176.653 233.628 176.653 235.923V262.867C176.653 264.521 176.13 265.872 175.083 266.918C174.037 267.965 172.686 268.489 171.032 268.489H144.899V189.229ZM107.56 189.229H133.287V195.459H114.6V225.035H131.616V231.366H114.6V262.259H133.591V268.489H107.56V189.229ZM47.2725 189.229H54.2612L60.9968 246.408C61.031 247.691 61.0984 249.581 61.199 252.079C61.1658 250.796 61.2332 248.906 61.4023 246.408L69.6066 189.229H75.6328L83.7873 246.408C83.8547 247.691 83.9221 249.581 83.9895 252.079C83.9895 250.796 84.0735 248.906 84.2426 246.408L90.9782 189.229H97.9171L87.1291 268.691H81.4069L72.7971 208.93C72.7628 207.884 72.6954 206.33 72.5948 204.271C72.5948 205.351 72.5274 206.905 72.3915 208.93L63.7827 268.691H58.0594L47.2725 189.229Z" fill="#EE2A7B" stroke="#EE2A7B" stroke-miterlimit="10" stroke-linecap="round" stroke-linejoin="round"/>
<path fill-rule="evenodd" clip-rule="evenodd" d="M161.599 368.893V422.333H169.094C171.282 422.333 173.058 421.706 174.422 420.45C175.786 419.194 176.468 417.472 176.468 415.285V375.862C176.468 373.782 175.813 372.1 174.503 370.817C173.193 369.534 171.498 368.893 169.418 368.893H161.599ZM218.799 363.91H224.39L232.25 414.393C232.25 414.393 232.331 415.77 232.493 418.526C232.52 417.58 232.614 416.202 232.777 414.393L240.637 363.91H246.066L235.086 427.479H229.778L218.799 363.91ZM192.269 363.91H212.851V368.893H197.901V392.554H211.514V397.619H197.901V422.333H213.094V427.317H192.269V363.91ZM155.967 363.91H170.471C173.847 363.91 176.63 364.983 178.817 367.131C181.006 369.278 182.099 372.027 182.099 375.376V415.851C182.099 419.201 180.999 421.949 178.798 424.097C176.596 426.244 173.82 427.317 170.471 427.317H155.967V363.91Z" fill="#EE2A7B" stroke="#EE2A7B" stroke-miterlimit="10" stroke-linecap="round" stroke-linejoin="round"/>
<path fill-rule="evenodd" clip-rule="evenodd" d="M389.59 349.175V386.946H408.124V349.175H389.59ZM339.804 349.175V420.652H360.56V349.175H339.804ZM565.132 342.51H599.001V349.175H585.887V427.317H578.354V349.175H565.132V342.51ZM522.081 342.51H527.717L549.935 403.799V342.51H557.034V427.317H551.831L529.179 364.945V427.317H522.081V342.51ZM482.667 342.51H510.195V349.175H490.199V380.823H508.407V387.597H490.199V420.652H510.521V427.317H482.667V342.51ZM426.658 342.51H433.649L447.412 397.675C447.485 397.964 447.558 398.778 447.629 400.115C447.629 399.572 447.702 398.759 447.846 397.675L461.611 342.51H468.601V427.317H461.502V373.615C461.502 372.857 461.755 370.635 462.261 366.95L448.388 419.352H446.871L432.998 366.95C433.504 370.67 433.757 372.893 433.757 373.615V427.317H426.658V342.51ZM382.058 342.51H409.587C411.357 342.51 412.811 343.07 413.949 344.191C415.087 345.31 415.656 346.756 415.656 348.525V387.597C415.656 389.366 415.087 390.82 413.949 391.958C412.811 393.097 411.357 393.665 409.587 393.665H389.59V427.317H382.058V342.51ZM338.287 342.51H362.022C363.793 342.51 365.247 343.07 366.385 344.191C367.523 345.31 368.092 346.756 368.092 348.525V421.303C368.092 423.072 367.523 424.518 366.385 425.637C365.247 426.757 363.793 427.317 362.022 427.317H338.287C336.518 427.317 335.073 426.757 333.952 425.637C332.832 424.518 332.272 423.072 332.272 421.303V348.525C332.272 346.756 332.832 345.31 333.952 344.191C335.073 343.07 336.518 342.51 338.287 342.51ZM294.933 342.51H302.465V420.652H322.028V427.317H294.933V342.51ZM255.519 342.51H283.048V349.175H263.051V380.823H281.259V387.597H263.051V420.652H283.373V427.317H255.519V342.51Z" fill="white" stroke="white" stroke-miterlimit="10" stroke-linecap="round" stroke-linejoin="round"/>
<path fill-rule="evenodd" clip-rule="evenodd" d="M523.85 442.862H698.035V439.256H523.85V442.862ZM499.961 454.88H572.251V451.275H499.961V454.88ZM499.962 466.898H541.766V463.293H499.962V466.898ZM523.85 478.917H653.244V475.311H523.85V478.917ZM523.85 490.935H653.244V487.33H523.85V490.935ZM499.962 502.954H557.358V499.348H499.962V502.954ZM476.073 514.972H589.542V511.367H476.073V514.972Z" fill="#EE2A7B" stroke="#EE2A7B" stroke-width="2.66667" stroke-miterlimit="10" stroke-linecap="round" stroke-linejoin="round"/>
<path fill-rule="evenodd" clip-rule="evenodd" d="M111.361 290.553L104.372 333.5H118.3L111.361 290.553ZM188.082 284.324V319.623H205.402V284.324H188.082ZM145.556 284.324V319.623H162.877V284.324H145.556ZM181.042 278.094H206.77C208.425 278.094 209.783 278.618 210.846 279.665C211.911 280.711 212.442 282.062 212.442 283.716V320.231C212.442 321.885 211.911 323.244 210.846 324.308C209.783 325.371 208.425 325.903 206.77 325.903H188.082V357.353H181.042V278.094ZM138.517 278.094H164.245C165.899 278.094 167.258 278.618 168.321 279.665C169.385 280.711 169.916 282.062 169.916 283.716V320.231C169.916 321.885 169.385 323.244 168.321 324.308C167.258 325.371 165.899 325.903 164.245 325.903H145.556V357.353H138.517V278.094ZM108.019 277.892H114.957L128.985 357.353H121.996L119.211 339.729H103.461L100.675 357.353H93.8892V357.151L108.019 277.892Z" fill="#EE2A7B" stroke="#EE2A7B" stroke-miterlimit="10" stroke-linecap="round" stroke-linejoin="round"/>
<path fill-rule="evenodd" clip-rule="evenodd" d="M48.1347 371.111C36.7919 380.538 31.1204 388.776 31.1204 395.827C31.1204 399.123 32.671 402.151 35.7723 404.91C38.8725 407.669 42.7973 409.048 47.5435 409.048C54.358 409.048 62.8952 406.037 73.1552 400.014C67.2359 394.203 58.8957 384.568 48.1347 371.111ZM56.2975 300.983C53.3851 300.983 50.9134 302.017 48.8826 304.086C46.8507 306.156 45.8353 308.57 45.8353 311.329C45.8353 316.847 48.5569 323.133 53.9981 330.184C62.5052 322.902 66.7588 316.464 66.7588 310.87C66.7588 307.957 65.8015 305.581 63.8847 303.742C61.969 301.902 59.4392 300.983 56.2975 300.983ZM56.0673 271.667C69.3269 271.667 79.5009 275.691 86.5902 283.739C93.6795 291.785 97.2246 299.91 97.2246 308.111C97.2246 314.549 95.5962 320.718 92.3383 326.62C89.0815 332.521 81.5898 341.258 69.8631 352.831C83.5885 369.003 92.4441 379.082 96.4322 383.066C98.8862 381.227 105.135 376.016 115.181 367.432L134.358 389.389L125.642 397.314L117.039 405.124L144.187 433.88H105.165L94.0124 422.384C76.2305 432.884 59.7131 438.134 44.4599 438.134C31.5063 438.134 21.0243 434.341 13.0139 426.753C5.00464 419.165 1 409.431 1 397.552C1 388.584 3.2694 380.116 7.80821 372.145C12.3481 364.175 20.1188 355.935 31.1204 347.428C20.237 332.789 14.7959 319.836 14.7959 308.57C14.7959 300.217 18.3981 291.977 25.6025 283.853C32.8059 275.729 42.9612 271.667 56.0673 271.667Z" fill="white" stroke="white" stroke-miterlimit="10" stroke-linecap="round" stroke-linejoin="round"/>
<path d="M348.133 507.974L309.139 491.019V481.629L348.133 464.751V475.809L320.934 486.208L348.133 496.994V507.974Z" fill="#EE2A7B"/>
<path d="M421.891 508.013V497.033L449.128 486.324L421.891 475.732V464.829L460.923 481.707V491.019L421.891 508.013Z" fill="#EE2A7B"/>
<path d="M373.792 456.604H381.824L396.063 515.424H387.876L373.792 456.604Z" fill="white"/>
</svg>
