<svg width="184" height="294" viewBox="0 0 184 294" fill="none" xmlns="http://www.w3.org/2000/svg">
<path d="M16.2789 139.615C17.4994 140.841 21.5272 142.312 21.5272 142.312L25.555 147.828C25.555 147.828 27.1417 158.615 28.9725 161.066C30.8033 163.518 35.6854 164.008 35.6854 164.008C35.6854 164.008 28.3622 198.33 28.9725 199.923C29.5827 201.517 28.9725 209.484 28.9725 209.484C28.9725 209.484 21.8934 228.852 21.8934 231.793C21.8934 234.735 26.4094 239.271 26.4094 239.271C26.4094 239.271 19.9405 266.115 20.3067 267.831C20.6728 269.425 23.1139 271.999 23.1139 271.999C23.1139 271.999 21.4052 276.044 20.7949 281.315H44.4733L49.3554 264.154C49.3554 264.154 52.6508 262.07 53.3832 257.902C54.1155 253.735 57.4109 238.045 57.4109 238.045L63.5136 220.271L69.9824 185.214L76.4513 220.271L82.554 238.045C82.554 238.045 85.8494 253.735 86.5817 257.902C87.4361 262.07 90.6095 264.154 90.6095 264.154L95.4916 281.315H118.926C118.438 276.044 116.607 271.999 116.607 271.999C116.607 271.999 119.048 269.547 119.414 267.831C119.78 266.238 113.311 239.271 113.311 239.271C113.311 239.271 117.827 234.735 117.827 231.793C117.827 228.852 110.748 209.484 110.748 209.484C110.748 209.484 110.138 201.639 110.748 199.923C111.359 198.33 104.035 164.008 104.035 164.008C104.035 164.008 108.918 163.64 110.748 161.066C112.579 158.615 114.166 147.828 114.166 147.828L118.194 142.312C118.194 142.312 122.221 140.841 123.442 139.615C124.662 138.39 124.296 135.938 124.296 135.938C124.296 135.938 138.943 123.926 138.943 119.022C138.943 114.119 130.399 93.4038 130.399 93.4038C130.399 93.4038 130.399 88.5007 130.399 86.4169C130.399 84.3331 118.56 69.869 118.56 69.869L115.753 57.8564L105.134 55.5274L102.083 45.4761H99.0312C100.74 41.5537 101.716 37.1409 101.716 32.4829C101.716 14.5867 87.4361 0 69.7384 0C52.0406 0 37.7603 14.4641 37.7603 32.4829C37.7603 37.1409 38.7368 41.5537 40.4455 45.4761H37.3942L34.3428 55.5274L23.7242 57.8564L20.917 69.869C20.917 69.869 9.07774 84.3331 9.07774 86.4169C9.07774 88.5007 9.07774 93.4038 9.07774 93.4038C9.07774 93.4038 0.533997 113.997 0.533997 119.022C0.533997 123.926 15.1804 135.938 15.1804 135.938C15.1804 135.938 15.0584 138.267 16.2789 139.615Z" fill="#EE2A7B"/>
<path d="M129.3 97.2037C128.568 97.4489 127.958 97.5714 127.592 97.5714C126.737 97.5714 124.174 96.5908 124.174 96.5908C124.174 96.5908 126.005 96.4683 126.737 96.3457C127.104 96.2231 127.958 95.9779 128.812 95.6102C128.568 94.8747 128.324 94.3844 128.202 93.8941C126.981 93.8941 125.273 93.7715 124.54 93.5264C123.442 93.1586 120.757 90.7071 120.757 90.7071C120.757 90.7071 123.076 91.4426 124.052 91.5652C124.662 91.6878 126.615 91.6878 127.958 91.5652C127.958 89.9717 127.958 87.6427 127.958 86.4169C127.958 84.8234 120.635 75.1398 117.827 71.5851L109.894 74.8947L116.363 68.6432L114.044 58.3468L103.913 56.0178L100.984 46.2116H98.0548C99.6415 42.2892 100.618 37.9989 100.618 33.4636C100.618 15.8125 86.9479 1.59351 70.2266 1.59351C53.5053 1.59351 39.8353 15.8125 39.8353 33.4636C39.8353 37.9989 40.8117 42.2892 42.3984 46.2116H39.4691L36.5398 56.0178L26.4094 58.3468L24.0903 68.6432L30.5592 74.8947L22.6257 71.5851C19.8185 75.1398 12.4953 84.8234 12.4953 86.4169C12.4953 87.6427 12.4953 89.9717 12.4953 91.5652C13.8378 91.5652 15.9128 91.5652 16.401 91.5652C17.3774 91.4426 19.6964 90.7071 19.6964 90.7071C19.6964 90.7071 17.0113 93.1586 15.9128 93.5264C15.1805 93.7715 13.5938 93.8941 12.2512 93.8941C12.1291 94.2619 11.885 94.8747 11.6409 95.6102C12.4953 95.9779 13.3496 96.2231 13.7158 96.3457C14.4481 96.4683 16.2789 96.5908 16.2789 96.5908C16.2789 96.5908 13.7158 97.5714 12.8614 97.5714C12.4953 97.5714 11.763 97.3263 11.1527 97.2037C8.83368 103.333 4.43976 115.1 4.43976 118.655C4.43976 122.087 11.5188 129.074 15.5466 132.874L28.8505 134.345C28.8505 134.345 26.0432 135.08 23.7242 135.325C21.4052 135.57 18.2318 135.325 18.2318 135.325C18.2318 135.325 17.8656 137.777 18.9641 139.003C20.1847 140.228 23.9683 141.699 23.9683 141.699L27.7519 146.97L31.6577 144.886L28.3622 149.667C28.9725 152.976 30.071 158.492 31.2915 160.208C33.0003 162.66 37.6383 163.028 37.6383 163.028C37.6383 163.028 30.6813 196.736 31.2915 198.33C31.6577 199.433 31.5356 203.356 31.4136 205.684L36.7839 203.601L31.0474 208.259C29.8269 211.568 24.4565 227.013 24.4565 229.587C24.4565 229.71 24.4565 229.832 24.4565 229.832L28.3622 228.484L24.9447 231.671C25.4329 232.774 26.2873 233.877 26.8976 234.858L32.1459 232.284L28.6063 236.819C28.6063 236.819 22.3816 263.173 22.7478 264.889C22.8698 265.625 23.6021 266.605 24.0903 267.341C25.0668 266.973 26.4094 266.36 26.7755 265.992C27.2637 265.625 29.8269 263.051 29.8269 263.051C29.8269 263.051 28.2402 266.973 27.5079 267.586C27.0196 267.954 26.0432 268.567 25.4329 268.812C25.4329 268.812 23.1139 274.45 23.1139 280.947H44.8394L50.2098 261.089C50.2098 261.089 53.2611 259.006 54.1155 254.961C54.9699 250.915 58.0212 235.471 58.0212 235.471L63.8798 217.942L70.1045 183.375L76.3293 217.942L82.1878 235.471C82.1878 235.471 85.2392 250.915 86.0935 254.961C86.9479 259.006 89.9992 261.089 89.9992 261.089L95.3696 280.947H117.095C117.095 274.45 114.776 268.812 114.776 268.812C114.044 268.444 113.067 267.954 112.701 267.586C111.969 266.973 110.382 263.051 110.382 263.051C110.382 263.051 112.823 265.625 113.434 265.992C113.8 266.238 115.142 266.851 116.119 267.341C116.729 266.605 117.339 265.625 117.461 264.889C117.827 263.296 111.603 236.819 111.603 236.819L108.063 232.284L113.311 234.858C114.044 234 114.776 232.774 115.264 231.671L111.969 228.361L115.875 229.71C115.875 229.587 115.875 229.464 115.875 229.464C115.875 226.89 110.504 211.568 109.284 208.136L103.547 203.478L108.918 205.562C108.795 203.11 108.673 199.311 109.04 198.207C109.65 196.614 102.693 162.905 102.693 162.905C102.693 162.905 107.331 162.537 109.04 160.086C110.26 158.37 111.359 152.854 111.969 149.544L108.673 144.764L112.579 146.847L116.363 141.577C116.363 141.577 120.269 140.106 121.367 138.88C122.588 137.654 122.099 135.203 122.099 135.203C122.099 135.203 118.926 135.448 116.607 135.203C114.288 134.957 111.481 134.222 111.481 134.222L124.784 132.751C128.812 129.074 135.891 122.087 135.891 118.532C135.891 114.977 131.619 103.21 129.3 97.2037Z" fill="url(#paint1_linear)"/>
<defs>
<linearGradient id="paint0_linear" x1="93.0932" y1="294.278" x2="93.0932" y2="276.616" gradientUnits="userSpaceOnUse">
<stop stop-color="#000018"/>
<stop offset="1" stop-color="#091433"/>
</linearGradient>
<linearGradient id="paint1_linear" x1="70.0374" y1="382.555" x2="70.0374" y2="82.8622" gradientUnits="userSpaceOnUse">
<stop stop-color="#000018"/>
<stop offset="1" stop-color="#091433"/>
</linearGradient>
</defs>
</svg>
