<svg width="166" height="114" viewBox="0 0 166 114" fill="none" xmlns="http://www.w3.org/2000/svg">
<path fill-rule="evenodd" clip-rule="evenodd" d="M14.3398 33.1579C12.5172 33.1579 11.2644 33.2848 10.5811 33.5391C9.89793 33.7932 9.35289 34.211 8.94597 34.7927C8.53926 35.3745 8.3359 36.0587 8.3359 36.8453C8.3359 38.1726 8.74685 39.123 9.56854 39.6966C10.39 40.2702 11.891 40.5571 14.0712 40.5571L16.2189 40.5571L16.2189 33.1579L14.3398 33.1579ZM33.4584 31.4407L36.2702 31.4407L36.2702 34.1964L33.4584 34.1964L33.4584 31.4407ZM29.3343 31.4407L32.1461 31.4407L32.1461 34.1964L29.3343 34.1964L29.3343 31.4407ZM15.8111 26.4692L23.0739 26.4692L23.0739 62.5093L16.2189 62.5093L16.2189 47.2456L15.5917 47.2456L7.49366 62.5093L9.79578e-06 62.5093L8.531 46.4861C6.24621 45.6695 4.53697 44.4649 3.40284 42.8723C2.26849 41.2799 1.70141 39.2993 1.70141 36.9309C1.70141 34.677 2.2149 32.7252 3.24205 31.0754C4.26921 29.4258 5.6264 28.2455 7.31361 27.535C9.00105 26.8245 11.8334 26.4692 15.8111 26.4692ZM87.064 -6.85388e-06L87.1092 0.0359828L87.1545 -6.84596e-06L123.599 28.9556L123.55 29.0164L165.438 62.5093L145.658 62.5093L87.1092 15.9919L28.5609 62.5093L23.0739 62.5093L23.0739 50.9614L25.3206 49.1717L25.2102 49.1717L25.2102 36.1778L28.022 36.1778L28.022 47.0193L29.4658 45.8691L29.3343 45.8691L29.3343 36.1778L32.1461 36.1778L32.1461 43.633L33.4584 42.5902L33.4584 36.1778L36.2702 36.1778L36.2702 40.3562L37.5825 39.3135L37.5825 29.459L36.2702 29.459L33.4584 29.459L32.1461 29.459L29.3343 29.459L28.022 29.459L25.2102 29.459L25.2102 31.4407L28.022 31.4407L28.022 34.1964L25.2102 34.1964L25.2102 26.363L25.2102 26.3628L33.4584 26.3628L36.2702 26.3628L42.8312 26.3628L42.8312 29.459L40.3943 29.459L40.3943 37.0794L87.064 -6.85388e-06Z" fill="#EE2A7B"/>
<path fill-rule="evenodd" clip-rule="evenodd" d="M141.055 64.8127H155.885C158.865 64.8127 160.355 66.3004 160.355 69.2756V80.276H152.987V71.0043H143.982V79.8988L158.749 93.7909C159.819 94.7966 160.355 96.1271 160.355 97.7824V109.506C160.355 112.502 158.865 114 155.885 114H141.055C138.096 114 136.617 112.502 136.617 109.506V97.7824H143.982V107.808H152.987V98.1596L138.223 84.2048C137.151 83.1781 136.617 81.8684 136.617 80.276V69.3386C136.617 66.3214 138.096 64.8127 141.055 64.8127ZM9.55456 64.8127H24.9499C27.9513 64.8127 29.4521 66.3214 29.4521 69.3386V79.8361H22.0533V71.1301H12.4509V107.683H22.0533V93.9166H16.5754V87.6621H29.4521V109.506C29.4521 112.502 27.9513 114 24.9499 114H9.46009C6.54257 114 5.08391 112.502 5.08391 109.506V69.3386C5.08391 66.3214 6.57413 64.8127 9.55456 64.8127ZM104.122 55.093H112.945V80.0109L122.749 55.093H132.402V55.5071L120.412 83.4739L133.872 114H124.144L112.945 87.7273V114H104.122V55.093Z" fill="white"/>
<path fill-rule="evenodd" clip-rule="evenodd" d="M97.2295 37.2937L65.749 37.2937L65.749 47.4396L85.7731 47.4396L85.7731 69.8388L68.5396 69.8388L68.5396 79.7886L85.7731 79.7886L85.7731 103.854L65.4552 103.854L65.4551 114L97.2295 114L97.2295 37.2937Z" fill="white"/>
<path fill-rule="evenodd" clip-rule="evenodd" d="M35.7991 59.7547H58.2551V66.9297H43.9712V82.77H56.2639V89.8062H43.9712V106.825H58.4648V114H35.7991V59.7547Z" fill="#EE2A7B"/>
</svg>
