<svg width="472" height="373" viewBox="0 0 472 373" fill="none" xmlns="http://www.w3.org/2000/svg">
<path d="M314.133 372.26C487.431 372.26 627.917 231.171 627.917 57.1299C627.917 -116.912 487.431 -258 314.133 -258C140.835 -258 0.349609 -116.912 0.349609 57.1299C0.349609 231.171 140.835 372.26 314.133 372.26Z" fill="url(#paint0_linear)"/>
<path d="M21.7595 171.519L100.205 -19.2444C100.205 -19.2444 76.2264 91.3607 120.759 57.3019C150.733 34.252 227.809 -142.235 275.082 -255.248C259.667 -253.356 244.765 -250.259 230.206 -246.303C185.503 -151.007 125.897 -34.3817 125.897 -34.3817C125.897 -34.3817 146.451 -163.22 98.4927 -76.6971C66.6347 -19.2444 28.782 68.4828 7.02954 120.947C10.4551 138.493 15.4222 155.178 21.7595 171.519Z" fill="url(#paint1_linear)"/>
<path d="M175.74 339.921C206.399 247.377 276.109 45.2608 322.868 -34.3817C368.429 -111.96 427.178 -189.538 454.754 -224.629C448.93 -227.554 442.935 -230.306 436.769 -233.058C404.569 -177.325 350.273 -88.0501 331.432 -83.5777C311.564 -78.9333 367.572 -186.786 399.602 -246.131C390.01 -248.883 380.247 -251.119 370.313 -253.012C360.379 -218.781 348.047 -181.626 339.996 -177.153C331.261 -172.337 338.626 -217.061 346.505 -256.452C340.51 -257.14 334.344 -257.484 328.178 -257.828C310.365 -178.013 275.424 -34.5537 244.08 22.555C212.565 79.8357 124.184 197.665 75.3699 261.483C79.4806 266.299 83.5913 270.943 88.0445 275.416C117.676 233.444 157.413 181.152 177.281 172.207C201.26 161.37 165.634 260.279 141.998 320.483C152.788 327.708 164.093 334.245 175.74 339.921Z" fill="url(#paint2_linear)"/>
<path d="M340.339 371.228C357.124 280.92 393.949 94.6289 425.636 13.9543C455.096 -60.6998 500.999 -135.526 526.52 -174.745C516.585 -183.862 506.137 -192.463 495.175 -200.203C469.141 -142.407 381.96 53.8616 353.185 156.21C331.604 232.928 314.99 319.107 305.569 372.088C308.481 372.088 311.222 372.26 314.133 372.26C323.04 372.26 331.604 371.916 340.339 371.228Z" fill="url(#paint3_linear)"/>
<path d="M345.135 13.9543C326.465 24.6192 249.047 254.258 215.305 356.263C228.494 360.563 241.853 364.175 255.727 366.755C290.154 252.882 363.633 3.28943 345.135 13.9543Z" fill="url(#paint4_linear)"/>
<path d="M512.988 300.874C521.381 199.558 540.736 12.4062 578.246 -113.164C570.367 -125.549 561.461 -137.418 551.869 -148.427C527.376 -60.3558 479.76 106.154 447.902 193.193C420.84 267.159 400.801 327.364 389.154 363.143C403.198 359.703 416.901 355.23 430.261 349.898C444.819 289.521 474.279 174.788 494.148 149.845C514.016 124.903 492.435 252.882 479.075 325.128C490.893 317.903 502.198 309.819 512.988 300.874Z" fill="url(#paint5_linear)"/>
<defs>
<linearGradient id="paint0_linear" x1="64.5764" y1="307.877" x2="574.288" y2="-199.657" gradientUnits="userSpaceOnUse">
<stop stop-color="#EE2A7B"/>
<stop offset="1" stop-color="#091433"/>
</linearGradient>
<linearGradient id="paint1_linear" x1="55.3272" y1="194.984" x2="246.922" y2="-385.937" gradientUnits="userSpaceOnUse">
<stop stop-color="#EE2A7B"/>
<stop offset="1" stop-color="#091433"/>
</linearGradient>
<linearGradient id="paint2_linear" x1="192.496" y1="240.224" x2="384.09" y2="-340.697" gradientUnits="userSpaceOnUse">
<stop stop-color="#EE2A7B"/>
<stop offset="1" stop-color="#091433"/>
</linearGradient>
<linearGradient id="paint3_linear" x1="341.954" y1="289.517" x2="533.548" y2="-291.404" gradientUnits="userSpaceOnUse">
<stop stop-color="#EE2A7B"/>
<stop offset="1" stop-color="#091433"/>
</linearGradient>
<linearGradient id="paint4_linear" x1="267.139" y1="264.842" x2="458.733" y2="-316.079" gradientUnits="userSpaceOnUse">
<stop stop-color="#EE2A7B"/>
<stop offset="1" stop-color="#091433"/>
</linearGradient>
<linearGradient id="paint5_linear" x1="450.907" y1="325.451" x2="642.501" y2="-255.47" gradientUnits="userSpaceOnUse">
<stop stop-color="#EE2A7B"/>
<stop offset="1" stop-color="#091433"/>
</linearGradient>
</defs>
</svg>
