<svg width="1343" height="356" viewBox="0 0 1343 356" fill="none" xmlns="http://www.w3.org/2000/svg">
<path d="M90.9418 3.49997V353H62.4418V189H29.4418V353H0.941834V3.49997H29.4418V168H62.4418V3.49997H90.9418ZM151.805 356C146.805 356 141.805 355 136.805 353C131.805 351.333 127.305 348.667 123.305 345C119.305 341.333 115.972 336.5 113.305 330.5C110.972 324.5 109.805 317.333 109.805 309V48C109.805 39.6666 110.972 32.5 113.305 26.5C115.972 20.5 119.305 15.6667 123.305 12C127.305 7.99999 131.805 5.16665 136.805 3.49997C141.805 1.49998 146.805 0.499979 151.805 0.499979H159.805C164.805 0.499979 169.805 1.49998 174.805 3.49997C179.805 5.16665 184.305 7.99999 188.305 12C192.305 15.6667 195.472 20.5 197.805 26.5C200.472 32.5 201.805 39.6666 201.805 48V309C201.805 317.333 200.472 324.5 197.805 330.5C195.472 336.5 192.305 341.333 188.305 345C184.305 348.667 179.805 351.333 174.805 353C169.805 355 164.805 356 159.805 356H151.805ZM154.305 24.5C149.972 24.5 146.138 26.6667 142.805 31C139.805 35.3333 138.305 42.3333 138.305 52V304.5C138.305 314.5 139.805 321.667 142.805 326C146.138 330 149.972 332 154.305 332H157.305C161.638 332 165.305 330 168.305 326C171.638 321.667 173.305 314.5 173.305 304.5V52C173.305 42.3333 171.638 35.3333 168.305 31C165.305 26.6667 161.638 24.5 157.305 24.5H154.305ZM262.668 356C257.668 356 252.668 355 247.668 353C242.668 351.333 238.168 348.667 234.168 345C230.168 341.333 226.835 336.5 224.168 330.5C221.835 324.5 220.668 317.333 220.668 309V3.49997H249.168V304.5C249.168 314.5 250.668 321.667 253.668 326C257.002 330 260.835 332 265.168 332H268.168C272.502 332 276.168 330 279.168 326C282.502 321.667 284.168 314.5 284.168 304.5V3.49997H312.668V309C312.668 317.333 311.335 324.5 308.668 330.5C306.335 336.5 303.168 341.333 299.168 345C295.168 348.667 290.668 351.333 285.668 353C280.668 355 275.668 356 270.668 356H262.668ZM394.008 144.5V52C394.008 42 392.342 35 389.008 31C386.008 26.6667 382.342 24.5 378.008 24.5H375.008C370.675 24.5 366.842 26.6667 363.508 31C360.508 35 359.008 42 359.008 52V99C359.008 115 362.342 129 369.008 141C375.675 153 382.842 164.667 390.508 176C398.508 187 405.842 198.667 412.508 211C419.175 223 422.508 237 422.508 253V309C422.508 317.333 421.342 324.5 419.008 330.5C416.675 336.5 413.508 341.333 409.508 345C405.508 348.667 401.008 351.333 396.008 353C391.008 355 385.842 356 380.508 356H373.508C368.508 356 363.342 355 358.008 353C353.008 351.333 348.342 348.667 344.008 345C340.008 341.333 336.675 336.5 334.008 330.5C331.675 324.5 330.508 317.333 330.508 309V212H356.508V304.5C356.508 314.5 358.175 321.667 361.508 326C365.175 330 369.342 332 374.008 332H377.008C381.675 332 385.675 330 389.008 326C392.342 321.667 394.008 314.5 394.008 304.5V257.5C394.008 241.833 390.675 228 384.008 216C377.342 204 370.008 192.5 362.008 181.5C354.342 170.167 347.175 158.5 340.508 146.5C333.842 134.167 330.508 119.833 330.508 103.5V48C330.508 39.6666 331.675 32.5 334.008 26.5C336.675 20.5 340.008 15.6667 344.008 12C348.008 7.99999 352.508 5.16665 357.508 3.49997C362.842 1.49998 368.008 0.499979 373.008 0.499979H378.008C383.008 0.499979 388.008 1.49998 393.008 3.49997C398.008 5.16665 402.508 7.99999 406.508 12C410.508 15.6667 413.675 20.5 416.008 26.5C418.675 32.5 420.008 39.6666 420.008 48V144.5H394.008ZM469.872 27.5V167.5H504.872V189H469.872V329H517.372V353H441.372V3.49997H515.372V27.5H469.872ZM633.25 356C628.25 356 623.25 355 618.25 353C613.25 351.333 608.75 348.667 604.75 345C600.75 341.333 597.417 336.5 594.75 330.5C592.417 324.5 591.25 317.333 591.25 309V48C591.25 39.6666 592.417 32.5 594.75 26.5C597.417 20.5 600.75 15.6667 604.75 12C608.75 7.99999 613.25 5.16665 618.25 3.49997C623.25 1.49998 628.25 0.499979 633.25 0.499979H641.25C646.25 0.499979 651.25 1.49998 656.25 3.49997C661.25 5.16665 665.75 7.99999 669.75 12C673.75 15.6667 676.917 20.5 679.25 26.5C681.917 32.5 683.25 39.6666 683.25 48V309C683.25 317.333 681.917 324.5 679.25 330.5C676.917 336.5 673.75 341.333 669.75 345C665.75 348.667 661.25 351.333 656.25 353C651.25 355 646.25 356 641.25 356H633.25ZM635.75 24.5C631.417 24.5 627.584 26.6667 624.25 31C621.25 35.3333 619.75 42.3333 619.75 52V304.5C619.75 314.5 621.25 321.667 624.25 326C627.584 330 631.417 332 635.75 332H638.75C643.084 332 646.75 330 649.75 326C653.084 321.667 654.75 314.5 654.75 304.5V52C654.75 42.3333 653.084 35.3333 649.75 31C646.75 26.6667 643.084 24.5 638.75 24.5H635.75ZM730.614 27.5V167.5H765.614V189H730.614V353H702.114V3.49997H776.114V27.5H730.614ZM892.039 356C887.039 356 882.039 355 877.039 353C872.039 351.333 867.539 348.667 863.539 345C859.539 341.333 856.206 336.5 853.539 330.5C851.206 324.5 850.039 317.333 850.039 309V48C850.039 39.6666 851.206 32.5 853.539 26.5C856.206 20.5 859.539 15.6667 863.539 12C867.539 7.99999 872.039 5.16665 877.039 3.49997C882.039 1.49998 887.039 0.499979 892.039 0.499979H900.039C905.039 0.499979 910.039 1.49998 915.039 3.49997C920.039 5.16665 924.539 7.99999 928.539 12C932.539 15.6667 935.706 20.5 938.039 26.5C940.706 32.5 942.039 39.6666 942.039 48V144.5H913.539V52C913.539 42 911.873 35 908.539 31C905.539 26.6667 901.873 24.5 897.539 24.5H894.539C890.206 24.5 886.373 26.6667 883.039 31C880.039 35 878.539 42 878.539 52V304.5C878.539 314.5 880.039 321.667 883.039 326C886.373 330 890.206 332 894.539 332H897.539C901.873 332 905.539 330 908.539 326C911.873 321.667 913.539 314.5 913.539 304.5V235.5H896.539V211.5H942.039V353H928.039L924.539 341C914.539 351 904.873 356 895.539 356H892.039ZM989.403 27.5V167.5H1024.4V189H989.403V329H1036.9V353H960.903V3.49997H1034.9V27.5H989.403ZM1080.22 27.5V167.5H1115.22V189H1080.22V329H1127.72V353H1051.72V3.49997H1125.72V27.5H1080.22ZM1191.04 171.5L1239.04 353H1213.04L1171.54 209.5H1171.04V353H1142.54V3.49997H1171.04V145H1171.54L1214.04 3.49997H1240.04L1191.04 171.5ZM1313.93 144.5V52C1313.93 42 1312.26 35 1308.93 31C1305.93 26.6667 1302.26 24.5 1297.93 24.5H1294.93C1290.6 24.5 1286.76 26.6667 1283.43 31C1280.43 35 1278.93 42 1278.93 52V99C1278.93 115 1282.26 129 1288.93 141C1295.6 153 1302.76 164.667 1310.43 176C1318.43 187 1325.76 198.667 1332.43 211C1339.1 223 1342.43 237 1342.43 253V309C1342.43 317.333 1341.26 324.5 1338.93 330.5C1336.6 336.5 1333.43 341.333 1329.43 345C1325.43 348.667 1320.93 351.333 1315.93 353C1310.93 355 1305.76 356 1300.43 356H1293.43C1288.43 356 1283.26 355 1277.93 353C1272.93 351.333 1268.26 348.667 1263.93 345C1259.93 341.333 1256.6 336.5 1253.93 330.5C1251.6 324.5 1250.43 317.333 1250.43 309V212H1276.43V304.5C1276.43 314.5 1278.1 321.667 1281.43 326C1285.1 330 1289.26 332 1293.93 332H1296.93C1301.6 332 1305.6 330 1308.93 326C1312.26 321.667 1313.93 314.5 1313.93 304.5V257.5C1313.93 241.833 1310.6 228 1303.93 216C1297.26 204 1289.93 192.5 1281.93 181.5C1274.26 170.167 1267.1 158.5 1260.43 146.5C1253.76 134.167 1250.43 119.833 1250.43 103.5V48C1250.43 39.6666 1251.6 32.5 1253.93 26.5C1256.6 20.5 1259.93 15.6667 1263.93 12C1267.93 7.99999 1272.43 5.16665 1277.43 3.49997C1282.76 1.49998 1287.93 0.499979 1292.93 0.499979H1297.93C1302.93 0.499979 1307.93 1.49998 1312.93 3.49997C1317.93 5.16665 1322.43 7.99999 1326.43 12C1330.43 15.6667 1333.6 20.5 1335.93 26.5C1338.6 32.5 1339.93 39.6666 1339.93 48V144.5H1313.93Z" fill="url(#paint0_linear)"/>
<defs>
<linearGradient id="paint0_linear" x1="670.499" y1="-22" x2="670.499" y2="478" gradientUnits="userSpaceOnUse">
<stop offset="0.390625" stop-color="#EE2A7B"/>
<stop offset="0.755208" stop-color="#091433"/>
</linearGradient>
</defs>
</svg>
