<svg width="535" height="170" viewBox="0 0 535 170" fill="none" xmlns="http://www.w3.org/2000/svg">
<rect width="535" height="170" fill="white"/>
<g opacity="0.9">
<path fill-rule="evenodd" clip-rule="evenodd" d="M237.126 80.7437C254.317 80.7437 268.253 66.9223 268.253 49.8726C268.253 32.8229 254.317 19.0015 237.126 19.0015C219.936 19.0015 206 32.8229 206 49.8726C206 66.9223 219.936 80.7437 237.126 80.7437ZM237.079 68.9042C247.704 68.9042 256.317 60.3619 256.317 49.8244C256.317 39.2869 247.704 30.7446 237.079 30.7446C226.455 30.7446 217.842 39.2869 217.842 49.8244C217.842 60.3619 226.455 68.9042 237.079 68.9042Z" fill="#4B82C3"/>
<path fill-rule="evenodd" clip-rule="evenodd" d="M268.027 80.7423C285.217 80.7423 299.153 66.9208 299.153 49.8711C299.153 32.8215 285.217 19 268.027 19C250.836 19 236.9 32.8215 236.9 49.8711C236.9 66.9208 250.836 80.7423 268.027 80.7423ZM267.978 68.9042C278.603 68.9042 287.216 60.3619 287.216 49.8244C287.216 39.2869 278.603 30.7446 267.978 30.7446C257.354 30.7446 248.741 39.2869 248.741 49.8244C248.741 60.3619 257.354 68.9042 267.978 68.9042Z" fill="#FFD51E"/>
<path fill-rule="evenodd" clip-rule="evenodd" d="M299.154 80.7423C316.344 80.7423 330.28 66.9208 330.28 49.8711C330.28 32.8215 316.344 19 299.154 19C281.963 19 268.027 32.8215 268.027 49.8711C268.027 66.9208 281.963 80.7423 299.154 80.7423ZM299.105 68.9042C309.73 68.9042 318.343 60.3619 318.343 49.8244C318.343 39.2869 309.73 30.7446 299.105 30.7446C288.481 30.7446 279.868 39.2869 279.868 49.8244C279.868 60.3619 288.481 68.9042 299.105 68.9042Z" fill="#B12B1A"/>
<path fill-rule="evenodd" clip-rule="evenodd" d="M297.827 40.8548C302.849 57.1607 293.592 74.4169 277.151 79.3976C269.222 81.7997 261.07 80.9079 254.191 77.5115L262.909 68.2443C266.306 69.1719 270 69.1858 273.619 68.0895C283.78 65.0112 289.501 54.346 286.398 44.2682C286.321 44.0205 286.241 43.7755 286.155 43.5332L294.903 34.2338C296.111 36.2768 297.099 38.4909 297.827 40.8548Z" fill="#FFD51E"/>
<path fill-rule="evenodd" clip-rule="evenodd" d="M268.228 49.6699C268.228 66.7196 254.292 80.5411 237.102 80.5411C228.811 80.5411 221.277 77.3261 215.698 72.0845L226.767 65.7462C229.743 67.6184 233.273 68.7025 237.058 68.7025C247.682 68.7025 256.295 60.1602 256.295 49.6227C256.295 49.3629 256.29 49.1042 256.28 48.8469L267.382 42.4897C267.935 44.7938 268.228 47.1979 268.228 49.6699Z" fill="#4B82C3"/>
</g>
<path d="M112.8 113.604C112.562 113.461 111.704 113.223 110.227 112.89C108.798 112.509 107.226 112.318 105.511 112.318C101.319 112.318 98.1032 113.676 95.8641 116.391C93.6727 119.059 92.577 122.846 92.577 127.753C92.577 132.803 93.6965 136.686 95.9356 139.401C98.2223 142.069 101.414 143.403 105.511 143.403C107.274 143.403 108.846 143.164 110.227 142.688C111.657 142.164 112.514 141.854 112.8 141.759L114.301 135.471L121.161 137.114L119.017 147.19C119.017 147.19 118.445 147.452 117.302 147.976C116.159 148.5 114.563 149.024 112.514 149.548C110.513 150.072 108.179 150.334 105.511 150.334C101.224 150.334 97.46 149.524 94.2205 147.905C91.0287 146.237 88.5276 143.736 86.7173 140.401C84.907 137.019 84.0019 132.803 84.0019 127.753C83.9542 123.084 84.8118 119.083 86.5744 115.748C88.3847 112.413 90.8858 109.865 94.0776 108.102C97.3171 106.292 101.104 105.386 105.44 105.386C108.441 105.386 110.966 105.696 113.014 106.315C115.063 106.935 116.611 107.554 117.659 108.173C118.755 108.745 119.303 109.031 119.303 109.031L121.232 119.107L114.301 120.607L112.8 113.604Z" fill="#3F3F3F"/>
<path d="M125.837 148.905V142.474H131.768V109.745L124.98 107.459L127.124 100.956L139.843 105.315V118.321C142.845 116.558 146.275 115.677 150.133 115.677C153.992 115.677 156.946 116.796 158.994 119.035C161.043 121.227 162.067 124.442 162.067 128.682V142.474H168.07V148.905H150.991V142.474H153.992V129.825C153.992 127.253 153.468 125.371 152.42 124.18C151.42 122.989 149.848 122.394 147.704 122.394C146.56 122.394 145.25 122.584 143.774 122.965C142.344 123.299 141.058 123.751 139.915 124.323V142.474H142.845V148.905H125.837Z" fill="#3F3F3F"/>
<path d="M202.378 144.975C200.282 146.785 198.091 148.119 195.804 148.977C193.565 149.834 191.279 150.263 188.944 150.263C185.324 150.263 182.179 149.548 179.512 148.119C176.844 146.642 174.771 144.618 173.295 142.045C171.818 139.472 171.079 136.471 171.079 133.041C171.079 129.563 171.77 126.538 173.152 123.966C174.581 121.346 176.534 119.321 179.011 117.892C181.489 116.415 184.347 115.677 187.586 115.677C190.874 115.677 193.732 116.343 196.162 117.677C198.591 118.964 200.449 120.822 201.735 123.251C203.069 125.681 203.736 128.492 203.736 131.683C203.736 132.255 203.712 132.898 203.665 133.613C203.617 134.327 203.546 134.994 203.45 135.614L178.868 135.685C179.107 138.496 180.179 140.568 182.084 141.902C184.037 143.188 186.3 143.831 188.873 143.831C190.921 143.831 192.827 143.522 194.589 142.902C196.4 142.236 198.067 141.33 199.592 140.187L202.378 144.975ZM195.733 130.111C195.733 127.777 195.018 125.871 193.589 124.395C192.207 122.918 190.278 122.179 187.801 122.179C185.514 122.179 183.513 122.918 181.798 124.395C180.131 125.871 179.202 127.777 179.011 130.111H195.733Z" fill="#3F3F3F"/>
<path d="M214.85 113.89C214.85 109.602 215.97 106.315 218.209 104.029C220.448 101.742 223.759 100.599 228.142 100.599C232.286 100.599 235.597 101.599 238.075 103.6L235.288 109.245C233.096 107.911 230.976 107.244 228.928 107.244C226.975 107.244 225.426 107.816 224.283 108.959C223.187 110.055 222.639 111.77 222.639 114.104V116.963H231.5V123.394H222.639V142.474H229.071V148.905H208.848V142.474H214.85V123.394H208.848V116.963H214.85V113.89Z" fill="#3F3F3F"/>
<path d="M240.739 120.893C240.739 120.893 240.954 120.607 241.382 120.036C241.811 119.464 242.288 118.749 242.812 117.892C243.336 117.034 243.788 116.201 244.169 115.391C242.692 115.057 241.597 114.414 240.882 113.461C240.215 112.461 239.882 111.413 239.882 110.317C239.882 108.697 240.406 107.387 241.454 106.387C242.55 105.386 243.931 104.886 245.598 104.886C247.075 104.886 248.409 105.458 249.6 106.601C250.791 107.745 251.387 109.126 251.387 110.746C251.387 112.27 251.029 113.747 250.315 115.176C249.648 116.558 248.838 117.844 247.885 119.035C246.932 120.178 246.027 121.155 245.17 121.965C244.312 122.775 243.717 123.346 243.383 123.68L240.739 120.893Z" fill="#3F3F3F"/>
<path d="M274.545 122.465C273.688 122.179 272.806 121.965 271.901 121.822C271.044 121.631 270.091 121.536 269.043 121.536C267.375 121.536 265.898 121.87 264.612 122.537C263.326 123.156 262.683 124.109 262.683 125.395C262.683 126.491 263.064 127.372 263.826 128.039C264.588 128.706 266.065 129.182 268.257 129.468L272.544 130.04C276.212 130.564 278.88 131.612 280.548 133.184C282.263 134.708 283.12 136.828 283.12 139.544C283.12 141.974 282.453 143.998 281.119 145.618C279.833 147.19 278.118 148.357 275.974 149.119C273.878 149.882 271.591 150.263 269.114 150.263C266.399 150.263 263.993 149.977 261.897 149.405C259.801 148.834 257.871 148.048 256.109 147.047L254.822 139.615L261.539 138.401L262.326 142.331C264.374 143.331 266.494 143.831 268.685 143.831C270.639 143.831 272.33 143.498 273.759 142.831C275.188 142.164 275.903 141.14 275.903 139.758C275.903 138.758 275.545 137.948 274.831 137.329C274.116 136.709 272.663 136.281 270.472 136.042L266.47 135.399C263.04 134.875 260.348 133.803 258.395 132.184C256.442 130.564 255.465 128.42 255.465 125.752C255.465 122.608 256.728 120.155 259.253 118.392C261.778 116.582 265.017 115.677 268.971 115.677C271.163 115.677 273.211 115.939 275.117 116.463C277.022 116.939 278.809 117.725 280.476 118.821L281.762 125.752L275.688 126.824L274.545 122.465Z" fill="#3F3F3F"/>
<path d="M334.435 113.604C334.197 113.461 333.339 113.223 331.863 112.89C330.433 112.509 328.861 112.318 327.146 112.318C322.954 112.318 319.738 113.676 317.499 116.391C315.308 119.059 314.212 122.846 314.212 127.753C314.212 132.803 315.332 136.686 317.571 139.401C319.857 142.069 323.049 143.403 327.146 143.403C328.909 143.403 330.481 143.164 331.863 142.688C333.292 142.164 334.149 141.854 334.435 141.759L335.936 135.471L342.796 137.114L340.652 147.19C340.652 147.19 340.08 147.452 338.937 147.976C337.794 148.5 336.198 149.024 334.149 149.548C332.148 150.072 329.814 150.334 327.146 150.334C322.859 150.334 319.095 149.524 315.856 147.905C312.664 146.237 310.163 143.736 308.352 140.401C306.542 137.019 305.637 132.803 305.637 127.753C305.589 123.084 306.447 119.083 308.21 115.748C310.02 112.413 312.521 109.865 315.713 108.102C318.952 106.292 322.74 105.386 327.075 105.386C330.076 105.386 332.601 105.696 334.649 106.315C336.698 106.935 338.246 107.554 339.294 108.173C340.39 108.745 340.938 109.031 340.938 109.031L342.867 119.107L335.936 120.607L334.435 113.604Z" fill="#3F3F3F"/>
<path d="M347.973 148.905V142.474H353.975V109.531L347.044 107.459L349.116 100.956L362.05 104.958V142.474H368.053V148.905H347.973Z" fill="#3F3F3F"/>
<path d="M401.78 147.19C400.161 148.143 398.398 148.881 396.492 149.405C394.634 149.977 392.872 150.263 391.204 150.263C386.345 150.263 382.772 149.191 380.486 147.047C378.246 144.903 377.127 141.569 377.127 137.043V123.394H371.482V116.963H385.202V135.828C385.202 138.401 385.678 140.282 386.631 141.473C387.631 142.617 389.251 143.188 391.49 143.188C392.586 143.188 393.848 143.022 395.278 142.688C396.754 142.307 398.088 141.831 399.279 141.259V123.394H393.634V116.963H407.354V141.259L413.714 143.474L411.499 150.406L401.78 147.19Z" fill="#3F3F3F"/>
<path d="M434.492 150.263C431.729 150.263 429.085 149.929 426.56 149.262C424.083 148.595 421.82 147.595 419.771 146.261V110.174L412.697 107.745L414.984 100.956L427.775 105.315V117.82C430.252 116.391 432.848 115.677 435.564 115.677C446.044 115.677 451.285 121.322 451.285 132.612C451.285 144.379 445.687 150.263 434.492 150.263ZM434.42 143.76C440.185 143.76 443.067 140.044 443.067 132.612C443.067 125.657 440.542 122.179 435.492 122.179C432.491 122.179 429.919 122.989 427.775 124.609V142.617C429.585 143.379 431.8 143.76 434.42 143.76Z" fill="#3F3F3F"/>
</svg>
