<?xml version="1.0" encoding="iso-8859-1"?>
<!-- Generator: Adobe Illustrator 19.0.0, SVG Export Plug-In . SVG Version: 6.00 Build 0)  -->
<svg version="1.1" id="Capa_1" xmlns="http://www.w3.org/2000/svg" xmlns:xlink="http://www.w3.org/1999/xlink" x="0px" y="0px"
	 viewBox="0 0 470 470" style="enable-background:new 0 0 470 470;" xml:space="preserve">
<g>
	<path d="M425.843,44.191C397.346,15.694,359.457,0,319.154,0c-40.302,0-78.191,15.694-106.689,44.191
		c-51.382,51.383-57.882,130.907-19.508,189.415l-20.988,20.988c-0.797-0.282-1.641-0.439-2.502-0.439
		c-1.989,0-3.897,0.79-5.303,2.196L2.232,418.282c-2.929,2.93-2.929,7.678,0,10.607l38.914,38.914
		C42.552,469.21,44.46,470,46.449,470s3.897-0.79,5.303-2.196l161.931-161.931c2.112-2.112,2.693-5.167,1.759-7.807l20.968-20.968
		c24.368,16.046,52.892,24.666,82.743,24.666c40.303,0,78.192-15.695,106.69-44.192C484.671,198.742,484.671,103.021,425.843,44.191
		z M46.449,451.894l-28.307-28.308l151.324-151.324l28.307,28.308L46.449,451.894z M205.356,286.939l-22.259-22.259l18.817-18.817
		c3.278,4.04,6.792,7.951,10.551,11.709c3.743,3.743,7.653,7.259,11.704,10.554L205.356,286.939z M415.237,246.964
		c-25.664,25.665-59.787,39.8-96.083,39.8c-28.688,0-56.015-8.838-78.885-25.213c-0.213-0.174-0.434-0.332-0.661-0.479
		c-5.821-4.221-11.354-8.925-16.537-14.108c-52.98-52.979-52.98-139.186,0-192.165C248.736,29.134,282.859,15,319.154,15
		c36.296,0,70.419,14.134,96.083,39.799C468.216,107.778,468.216,193.984,415.237,246.964z"/>
	<path d="M305.226,56c4.1-0.592,6.943-4.396,6.351-8.495c-0.593-4.101-4.402-6.943-8.495-6.351
		c-23.714,3.426-45.268,14.257-62.333,31.322c-16.994,16.994-27.805,38.546-31.263,62.326c-0.596,4.099,2.244,7.905,6.342,8.501
		c0.366,0.054,0.729,0.079,1.089,0.079c3.664,0,6.87-2.688,7.413-6.422c2.99-20.556,12.335-39.187,27.026-53.878
		C266.114,68.324,284.742,58.96,305.226,56z"/>
	<path d="M333.082,56c15.662,2.263,30.641,8.466,43.316,17.94c1.348,1.008,2.922,1.493,4.484,1.493c2.284,0,4.54-1.039,6.013-3.01
		c2.48-3.317,1.801-8.018-1.517-10.497c-14.677-10.971-32.019-18.153-50.152-20.772c-4.09-0.597-7.903,2.25-8.495,6.351
		C326.139,51.604,328.982,55.408,333.082,56z"/>
	<path d="M386.954,218.68c-18.11,18.109-42.189,28.083-67.8,28.083s-49.688-9.974-67.799-28.083
		c-2.928-2.928-7.677-2.929-10.606,0.001c-2.929,2.929-2.929,7.678,0.001,10.606c20.943,20.942,48.788,32.476,78.404,32.476
		c29.617,0,57.462-11.533,78.405-32.476c2.93-2.929,2.93-7.678,0.001-10.606S389.882,215.751,386.954,218.68z"/>
</g>
<g>
</g>
<g>
</g>
<g>
</g>
<g>
</g>
<g>
</g>
<g>
</g>
<g>
</g>
<g>
</g>
<g>
</g>
<g>
</g>
<g>
</g>
<g>
</g>
<g>
</g>
<g>
</g>
<g>
</g>
</svg>
