<svg width="196" height="203" viewBox="0 0 196 203" fill="none" xmlns="http://www.w3.org/2000/svg">
<path fill-rule="evenodd" clip-rule="evenodd" d="M75.151 36.5243C77.7729 31.1009 89.4583 20.486 95.3989 21.4845C106.808 23.3219 140.818 52.9053 150.354 66.5393C153.833 71.5221 152.539 80.2022 148.412 84.6647C139.927 93.8691 128.454 105.849 116.116 103.803C97.8788 100.73 79.1144 88.1726 71.0182 71.6179C65.1933 59.6062 69.3136 48.4428 75.151 36.5243Z" fill="white"/>
<path fill-rule="evenodd" clip-rule="evenodd" d="M150.835 80.8881C150.177 82.3062 149.365 83.5881 148.412 84.6647C139.927 93.869 128.454 105.849 116.116 103.803C97.8787 100.73 79.1142 88.1725 71.0181 71.6179C66.061 61.4875 68.3226 51.841 72.6523 41.8631C80.4275 34.3538 88.4363 26.7446 93.094 27.8984C111.225 32.3127 137.001 63.0145 150.835 80.8881Z" fill="#B2BFDE"/>
<path fill-rule="evenodd" clip-rule="evenodd" d="M83.3229 59.7928C94.7048 47.1509 132.926 62.0051 137.36 90.9191C139.825 106.927 129.812 117.603 131.896 130.852C133.286 139.746 143.629 142.495 147.113 153.032C142.969 160.286 133.302 168.912 123.707 174.649C119.195 170.979 121.327 162.992 127.881 158.193C120.923 155.537 112.065 147.116 109.889 139.367C106.244 126.041 109.711 121.85 109.845 108.045C106.653 99.7843 90.9588 93.638 84.3128 92.5799C76.2355 107.485 70.7352 115.669 60.4611 123.322C55.6324 123.856 51.8244 122.18 49.695 116.875C62.4806 103.814 65.9403 88.6938 73.4735 71.3228C75.1369 67.584 80.2495 62.4451 83.3229 59.7928Z" fill="#B2BFDE"/>
<path fill-rule="evenodd" clip-rule="evenodd" d="M63.2518 121.226C62.4046 121.928 61.4881 122.617 60.5716 123.306C55.7429 123.841 51.9349 122.164 49.8055 116.86C50.7735 115.893 51.6313 114.942 52.4609 113.95C52.6123 113.907 52.7918 113.905 52.9022 113.889C56.5277 113.274 61.9472 114.57 63.1266 118.05C63.513 119.053 63.4863 120.159 63.2518 121.226Z" fill="#9DABCC"/>
<path fill-rule="evenodd" clip-rule="evenodd" d="M127.95 158.206C122.757 156.272 116.497 151.022 112.76 145.311C117.858 144.29 122.19 142.767 126.34 137.987C134.531 144.026 137.665 147.977 140.953 154.178C136.657 153.199 132.299 154.86 127.95 158.206Z" fill="#9DABCC"/>
<path fill-rule="evenodd" clip-rule="evenodd" d="M74.1762 109.502C73.4981 110.451 72.8328 111.33 72.1393 112.168C68.6482 106.287 64.097 103.792 59.7154 103.657C60.4169 102.39 61.0774 101.152 61.7097 99.8724C66.8837 100.37 71.2769 104.484 74.1762 109.502Z" fill="#C25959"/>
<path fill-rule="evenodd" clip-rule="evenodd" d="M131.627 127.291C131.629 128.438 131.728 129.639 131.896 130.852C121.005 123.343 112.609 125.721 108.473 131.579C108.31 129.758 108.289 128.141 108.365 126.579C114.09 119.691 124.485 122.164 131.627 127.291Z" fill="#C25959"/>
<path fill-rule="evenodd" clip-rule="evenodd" d="M132.239 121.314C132.071 122.215 131.903 123.115 131.846 124C122.207 116.115 114.301 115.861 109.165 119.204C109.366 117.737 109.511 116.188 109.682 114.5C116.755 111.338 126.692 115.696 132.239 121.314Z" fill="#C25959"/>
<path fill-rule="evenodd" clip-rule="evenodd" d="M55.9233 33.7688C44.4227 41.6594 41.5371 57.3519 49.3996 68.8114C57.262 80.2709 72.9827 83.1976 84.4422 75.3352C95.9428 67.4446 98.8284 51.7521 90.9659 40.2926C83.1035 28.833 67.4239 25.8782 55.9233 33.7688Z" fill="white"/>
<path fill-rule="evenodd" clip-rule="evenodd" d="M54.6782 34.6834C44.2446 42.8085 41.7778 57.7908 49.3584 68.8395C57.249 80.3401 72.9416 83.2257 84.4011 75.3633C86.9476 73.6161 89.061 71.5016 90.7564 69.1302C88.9169 63.8078 82.9327 57.463 78.1138 50.4394C72.1806 41.7036 62.79 34.7963 54.6782 34.6834Z" fill="#B2BFDE"/>
<path fill-rule="evenodd" clip-rule="evenodd" d="M131.532 73.5328C152.178 85.2225 154.187 95.9864 165.993 108.968C172.836 116.476 178.944 119.655 185.797 132.109C187.977 138.104 171.804 148.959 165.691 148.501C162.092 143.783 163.077 137.911 166.863 135.857C159.069 125.378 141.095 126.474 133.141 108.191C126.649 95.9115 125.817 83.2529 131.532 73.5328Z" fill="white"/>
<path fill-rule="evenodd" clip-rule="evenodd" d="M166.863 135.857C162.474 129.989 154.942 127.726 147.772 123.705C154.595 122.467 160.029 119.645 162.503 113.478C170.693 119.517 176.647 125.641 179.935 131.842C175.598 130.891 171.24 132.552 166.863 135.857Z" fill="#D0DAF2"/>
<path fill-rule="evenodd" clip-rule="evenodd" d="M159.277 100.588C160.066 101.739 160.909 102.791 161.768 103.954C148.572 100.745 143.764 111.171 143.565 121.094C142.588 120.375 141.555 119.574 140.576 118.675C141.212 103.137 150.99 98.7232 159.277 100.588Z" fill="#FF9999"/>
<path fill-rule="evenodd" clip-rule="evenodd" d="M155.152 94.8406C155.872 95.9777 156.897 97.2076 157.658 98.3165C142.211 93.1479 137.106 104.02 136.986 114.675C135.945 113.334 135.013 111.799 134.148 110.098C135.445 94.4678 146.474 91.6127 155.152 94.8406Z" fill="#FF9999"/>
<path fill-rule="evenodd" clip-rule="evenodd" d="M93.9262 54.028C95.6509 42.4545 120.821 47.3553 129.102 61.1856C137.539 75.3317 130.87 92.2905 122.817 100.715C117.34 106.467 105.862 103.65 109.012 96.3539C115.097 82.3319 115.842 73.9078 110.138 68.9408C103.051 62.7489 92.3022 64.868 93.9262 54.028Z" fill="white"/>
<path fill-rule="evenodd" clip-rule="evenodd" d="M122.817 100.715C117.312 106.426 105.862 103.649 109.012 96.3538C109.266 95.7563 109.508 95.2281 109.68 94.6869C110.589 94.4261 111.484 94.2346 112.339 94.0712C115.992 93.4974 121.384 94.7519 122.563 98.2318C122.865 99.112 122.931 99.9125 122.817 100.715Z" fill="#D0DAF2"/>
<path fill-rule="evenodd" clip-rule="evenodd" d="M109.973 48.2737C111.72 48.7063 113.482 49.2493 115.246 49.9718C114.011 53.7187 112.972 56.6064 111.032 59.3265C109.363 58.4783 107.06 57.763 105.432 56.8866C107.441 54.1795 108.982 51.6719 109.973 48.2737Z" fill="#9DABCC"/>
<path fill-rule="evenodd" clip-rule="evenodd" d="M132.956 76.6639C132.901 77.7285 132.846 78.7931 132.722 79.8448C124.984 74.6425 118.543 74.4107 114.002 76.8615C113.873 75.4401 113.579 74.1314 113.051 72.9226C118.993 69.8728 127.123 72.3895 132.956 76.6639Z" fill="#FF9999"/>
<path fill-rule="evenodd" clip-rule="evenodd" d="M47.8037 66.2213C56.4461 66.7555 72.6516 56.3013 78.7712 41.7124C86.0716 45.2212 89.5498 51.1711 92.1654 57.7129C91.0917 67.3296 82.2743 75.4331 73.0322 79.6599C64.0651 80.6775 54.8537 76.8489 49.3866 68.8806C48.7948 68.0181 48.2441 67.1274 47.8037 66.2213Z" fill="#4D4D4D"/>
<path fill-rule="evenodd" clip-rule="evenodd" d="M47.8037 66.2214C55.3122 66.6878 68.4725 58.927 75.8616 47.3332C76.6765 48.3447 77.4221 49.3434 78.1548 50.4113C82.0437 56.0794 86.7284 61.3225 89.3177 65.8888C85.7769 71.8218 79.4998 76.6723 73.045 79.5907C64.0779 80.6084 54.8665 76.7797 49.3995 68.8114C48.7948 68.0181 48.2441 67.1274 47.8037 66.2214Z" fill="#1A1A1A"/>
<path fill-rule="evenodd" clip-rule="evenodd" d="M149.252 110.366C145.761 112.761 144.436 116.993 146.38 119.827C148.297 122.62 152.681 122.935 156.213 120.511C159.704 118.116 160.988 113.912 159.072 111.119C157.169 108.257 152.744 107.971 149.252 110.366Z" fill="#D0DAF2"/>
<path fill-rule="evenodd" clip-rule="evenodd" d="M112.583 131.055C109.092 133.45 107.808 137.653 109.752 140.488C111.669 143.281 116.053 143.595 119.544 141.2C123.035 138.804 124.36 134.573 122.444 131.78C120.458 128.974 116.074 128.659 112.583 131.055Z" fill="#D0DAF2"/>
<path fill-rule="evenodd" clip-rule="evenodd" d="M110.27 48.7948C109.48 51.6929 108.049 54.1852 106.338 56.4463C107.646 57.1197 109.408 57.6626 110.715 58.336C112.275 56.1184 113.344 53.4514 114.312 50.3712C112.991 49.7671 111.537 49.4963 110.27 48.7948Z" fill="white"/>
<path fill-rule="evenodd" clip-rule="evenodd" d="M110.27 48.7948C109.48 51.6929 108.049 54.1852 106.338 56.4463C107.089 56.8369 107.964 57.143 108.825 57.5184C110.287 55.2468 111.426 52.5927 112.409 49.6229C111.66 49.4118 110.952 49.1725 110.27 48.7948Z" fill="#FF9999"/>
<path fill-rule="evenodd" clip-rule="evenodd" d="M72.4814 38.3561C71.5367 39.0042 71.3328 40.2919 71.9528 41.1955C72.6009 42.1402 73.8886 42.3441 74.7922 41.7241C75.7369 41.076 75.969 39.8294 75.3208 38.8847C74.7009 37.9811 73.4261 37.7079 72.4814 38.3561Z" fill="#B2BFDE"/>
<path fill-rule="evenodd" clip-rule="evenodd" d="M72.8581 38.6412C72.201 39.0921 72.0333 39.9924 72.4842 40.6496C72.9351 41.3068 73.8354 41.4744 74.4926 41.0235C75.1498 40.5726 75.3174 39.6723 74.8665 39.0151C74.4156 38.3579 73.5153 38.1904 72.8581 38.6412Z" fill="white"/>
<path fill-rule="evenodd" clip-rule="evenodd" d="M69.2363 43.6634C68.2916 44.3116 68.0877 45.5992 68.7076 46.5029C69.3558 47.4475 70.6434 47.6514 71.5471 47.0315C72.4917 46.3833 72.6957 45.0957 72.0757 44.192C71.4557 43.2884 70.1399 43.0435 69.2363 43.6634Z" fill="#9DABCC"/>
<path fill-rule="evenodd" clip-rule="evenodd" d="M69.613 43.9485C68.9558 44.3994 68.7882 45.2997 69.2391 45.9569C69.69 46.6141 70.5903 46.7817 71.2475 46.3308C71.9046 45.8799 72.0723 44.9796 71.6214 44.3224C71.1705 43.6652 70.2702 43.4976 69.613 43.9485Z" fill="white"/>
<path fill-rule="evenodd" clip-rule="evenodd" d="M110.522 96.7069C114.148 96.092 119.567 97.3876 120.747 100.867C121.998 104.54 118.533 108.911 115.401 111.301C112.186 113.748 107.226 115.762 103.582 113.973C101.051 112.75 101.123 109.861 103.718 105.543C100.469 107.411 97.5245 106.289 98.247 104.525C100.15 100.078 105.752 97.5028 110.522 96.7069Z" fill="white"/>
<path fill-rule="evenodd" clip-rule="evenodd" d="M50.7454 115.852C54.3709 115.237 59.7904 116.533 60.9698 120.013C62.2208 123.685 58.7841 128.097 55.652 130.488C52.4377 132.934 47.4487 134.908 43.8331 133.16C41.3022 131.936 41.3742 129.048 43.9694 124.73C40.7198 126.597 37.7757 125.476 38.4983 123.711C40.3727 119.224 45.9755 116.648 50.7454 115.852Z" fill="#B2BFDE"/>
</svg>
