<svg width="240" height="97" viewBox="0 0 240 97" fill="none" xmlns="http://www.w3.org/2000/svg">
<g filter="url(#filter0_d)">
<path d="M52.6985 55.4588L53.3425 64.0748L23.4858 66.3064L20.3105 23.8249L49.6287 21.6335L50.2727 30.2495L30.7671 31.7074L31.3843 39.9644L48.1376 38.7122L48.7324 46.67L31.9791 47.9222L32.6544 56.957L52.6985 55.4588ZM59.3038 63.6292L56.1285 21.1477L75.2751 19.7166C77.2696 19.5675 79.1358 19.8492 80.8737 20.5616C82.6485 21.2312 84.2064 22.2178 85.5473 23.5215C86.8852 24.7853 87.9574 26.2494 88.7637 27.914C89.6099 29.5755 90.0986 31.2839 90.2298 33.039C90.4265 35.6716 89.9702 38.1525 88.8607 40.4817C87.7881 42.768 86.238 44.5686 84.2104 45.8834L94.725 60.9816L83.8952 61.7911L74.7338 48.6975L68.0923 49.194L69.1165 62.8957L59.3038 63.6292ZM67.4528 40.6378L76.4278 39.967C77.5845 39.8805 78.5415 39.2675 79.2987 38.1279C80.0528 36.9484 80.3658 35.501 80.2376 33.7858C80.1094 32.0706 79.5279 30.7302 78.493 29.7647C77.4552 28.7592 76.3779 28.2983 75.261 28.3817L66.5852 29.0302L67.4528 40.6378ZM99.3873 60.6331L96.212 18.1516L115.359 16.7205C117.353 16.5714 119.219 16.8531 120.957 17.5656C122.732 18.2351 124.29 19.2218 125.631 20.5254C126.969 21.7892 128.041 23.2534 128.847 24.9179C129.693 26.5795 130.182 28.2878 130.313 30.0429C130.51 32.6756 130.054 35.1565 128.944 37.4857C127.872 39.772 126.322 41.5725 124.294 42.8873L134.809 57.9856L123.979 58.795L114.817 45.7015L108.176 46.1979L109.2 59.8997L99.3873 60.6331ZM107.536 37.6418L116.511 36.9709C117.668 36.8845 118.625 36.2714 119.382 35.1318C120.136 33.9523 120.449 32.505 120.321 30.7898C120.193 29.0746 119.611 27.7342 118.577 26.7686C117.539 25.7632 116.461 25.3022 115.344 25.3857L106.669 26.0342L107.536 37.6418ZM157.755 56.6314C154.604 56.867 151.687 56.4833 149.005 55.4804C146.36 54.4347 144.024 52.9647 141.997 51.0705C139.967 49.1365 138.358 46.9302 137.17 44.4519C135.979 41.9337 135.281 39.2984 135.075 36.5461C134.866 33.7539 135.185 31.0426 136.031 28.4122C136.915 25.7389 138.219 23.335 139.945 21.2004C141.707 19.023 143.842 17.259 146.348 15.9084C148.854 14.5578 151.643 13.7678 154.715 13.5382C157.866 13.3026 160.764 13.7077 163.409 14.7535C166.092 15.7563 168.428 17.2263 170.418 19.1634C172.447 21.0975 174.058 23.3236 175.249 25.8418C176.437 28.3202 177.131 30.8956 177.331 33.5682C177.539 36.3604 177.202 39.0931 176.319 41.7664C175.473 44.3968 174.168 46.8007 172.405 48.9781C170.68 51.1127 168.565 52.8752 166.062 54.2657C163.596 55.6133 160.827 56.4019 157.755 56.6314ZM145.076 35.9189C145.24 38.1128 145.814 40.1557 146.798 42.0476C147.778 43.8996 149.153 45.3813 150.92 46.4927C152.688 47.604 154.769 48.0702 157.162 47.8913C159.635 47.7065 161.642 46.9147 163.182 45.516C164.762 44.1144 165.877 42.4064 166.529 40.3923C167.218 38.3352 167.483 36.2496 167.325 34.1355C167.161 31.9417 166.569 29.9202 165.548 28.0711C164.564 26.1792 163.19 24.6975 161.425 23.6261C159.7 22.5516 157.641 22.1039 155.248 22.2828C152.775 22.4676 150.748 23.2609 149.168 24.6625C147.625 26.0213 146.508 27.7093 145.817 29.7265C145.165 31.7406 144.918 33.8048 145.076 35.9189ZM184.579 54.2654L181.404 11.7839L200.551 10.3528C202.545 10.2038 204.411 10.4854 206.149 11.1979C207.924 11.8674 209.482 12.8541 210.823 14.1578C212.161 15.4215 213.233 16.8857 214.039 18.5502C214.885 20.2118 215.374 21.9201 215.505 23.6752C215.702 26.3079 215.246 28.7888 214.136 31.118C213.064 33.4043 211.514 35.2048 209.486 36.5196L220.001 51.6179L209.171 52.4274L200.009 39.3338L193.368 39.8302L194.392 53.532L184.579 54.2654ZM192.728 31.2741L201.703 30.6032C202.86 30.5168 203.817 29.9037 204.574 28.7641C205.328 27.5846 205.641 26.1373 205.513 24.4221C205.385 22.7069 204.803 21.3665 203.769 20.4009C202.731 19.3955 201.653 18.9345 200.537 19.018L191.861 19.6665L192.728 31.2741Z" fill="#FCFDFF"/>
</g>
<defs>
<filter id="filter0_d" x="0.310547" y="0.314148" width="239.69" height="95.9923" filterUnits="userSpaceOnUse" color-interpolation-filters="sRGB">
<feFlood flood-opacity="0" result="BackgroundImageFix"/>
<feColorMatrix in="SourceAlpha" type="matrix" values="0 0 0 0 0 0 0 0 0 0 0 0 0 0 0 0 0 0 127 0"/>
<feOffset dy="10"/>
<feGaussianBlur stdDeviation="10"/>
<feColorMatrix type="matrix" values="0 0 0 0 0 0 0 0 0 0 0 0 0 0 0 0 0 0 0.25 0"/>
<feBlend mode="normal" in2="BackgroundImageFix" result="effect1_dropShadow"/>
<feBlend mode="normal" in="SourceGraphic" in2="effect1_dropShadow" result="shape"/>
</filter>
</defs>
</svg>
