<svg width="594" height="150" viewBox="0 0 594 150" fill="none" xmlns="http://www.w3.org/2000/svg">
<g filter="url(#filter0_dd)">
<path d="M40.113 78.8386L42.4058 36.3003L60.5594 37.2788C62.5965 37.3886 64.4312 37.9081 66.0635 38.8373C67.738 39.7287 69.1566 40.9068 70.3195 42.3715C71.4845 43.7963 72.3602 45.3857 72.9466 47.1398C73.5331 48.8939 73.7789 50.6497 73.6842 52.4071C73.5507 54.8836 72.8456 57.1889 71.5689 59.3233C70.3321 61.4599 68.6575 63.1722 66.5451 64.4604C64.4349 65.7086 62.0217 66.2595 59.3057 66.1131L50.6782 65.6481L49.9387 79.3682L40.113 78.8386ZM51.14 57.0805L59.1683 57.5133C60.3267 57.5757 61.3521 57.1303 62.2447 56.1769C63.1373 55.2236 63.6353 53.7883 63.7386 51.8711C63.8441 49.9139 63.4224 48.4491 62.4733 47.4766C61.5664 46.4663 60.5537 45.931 59.4354 45.8708L51.7665 45.4574L51.14 57.0805ZM87.3579 38.7233L97.9625 39.2949L110.288 82.6211L100.223 82.0785L97.4413 72.3747L84.2005 71.6611L80.4517 81.0129L70.3864 80.4703L87.3579 38.7233ZM96.1886 65.5174L92.0974 48.8931L86.1232 64.9749L96.1886 65.5174ZM130.799 84.027C128.003 83.8763 125.394 83.215 122.974 82.043C120.596 80.8332 118.5 79.2181 116.686 77.1975C114.914 75.1392 113.56 72.7628 112.624 70.0685C111.729 67.3365 111.37 64.3328 111.547 61.0575C111.706 58.1018 112.374 55.3738 113.55 52.8735C114.767 50.3753 116.386 48.1994 118.409 46.3455C120.471 44.4939 122.81 43.0977 125.424 42.1571C128.081 41.1786 130.907 40.7701 133.903 40.9316C137.817 41.1426 141.207 42.1665 144.072 44.0034C146.977 45.8424 149.092 48.2197 150.417 51.1353L142.811 56.2533C141.953 54.3243 140.635 52.7711 138.856 51.5937C137.077 50.4162 135.149 49.7715 133.072 49.6595C130.915 49.5433 128.986 50.0202 127.286 51.0902C125.588 52.1203 124.227 53.5892 123.203 55.4968C122.179 57.4045 121.602 59.5566 121.473 61.9531C121.342 64.3896 121.703 66.6122 122.556 68.621C123.411 70.5899 124.647 72.1788 126.265 73.3876C127.924 74.5586 129.872 75.2044 132.109 75.3249C135.943 75.5316 139.493 73.9604 142.758 70.6112L142.832 69.2332L134.564 68.7876L134.949 61.6579L151.365 62.5428L150.167 84.7705L142.018 84.3313L142.245 80.1374C138.848 82.9587 135.032 84.2552 130.799 84.027ZM187.024 78.1046L186.559 86.7321L156.663 85.1206L158.955 42.5824L188.313 44.1648L187.848 52.7922L168.316 51.7395L167.87 60.0075L184.646 60.9117L184.217 68.8801L167.441 67.9759L166.953 77.0228L187.024 78.1046ZM217.649 64.0125L216.338 88.3372L206.512 87.8076L208.805 45.2693L216.594 45.6891L234.955 71.7952L236.305 46.7516L246.131 47.2812L243.838 89.8194L235.81 89.3867L217.649 64.0125ZM270.587 91.6217C267.432 91.4517 264.588 90.6975 262.056 89.3593C259.567 87.9833 257.438 86.2262 255.671 84.088C253.906 81.9098 252.592 79.5157 251.732 76.9056C250.873 74.2555 250.518 71.5525 250.667 68.7965C250.817 66.0006 251.481 63.3524 252.657 60.8521C253.875 58.314 255.477 56.097 257.462 54.2011C259.489 52.2674 261.832 50.7913 264.491 49.773C267.149 48.7546 270.016 48.3283 273.092 48.494C276.247 48.6641 279.07 49.4372 281.559 50.8131C284.091 52.1513 286.219 53.9084 287.945 56.0845C289.71 58.2626 291.022 60.6767 291.881 63.3268C292.741 65.9369 293.1 68.58 292.956 71.2561C292.805 74.0521 292.12 76.7191 290.902 79.2572C289.726 81.7575 288.124 83.9745 286.097 85.9082C284.112 87.8042 281.789 89.2813 279.128 90.3396C276.51 91.3601 273.663 91.7875 270.587 91.6217ZM260.666 69.4556C260.547 71.6524 260.855 73.752 261.588 75.7544C262.323 77.7168 263.497 79.3623 265.107 80.691C266.718 82.0196 268.722 82.7485 271.118 82.8777C273.595 83.0111 275.686 82.4829 277.393 81.2931C279.139 80.1053 280.465 78.5544 281.369 76.6403C282.315 74.6884 282.846 72.654 282.96 70.5371C283.078 68.3403 282.75 66.2596 281.974 64.295C281.241 62.2926 280.068 60.6471 278.455 59.3584C276.882 58.0719 274.897 57.3641 272.501 57.2349C270.024 57.1014 267.913 57.6285 266.166 58.8163C264.462 59.9662 263.138 61.4971 262.193 63.4091C261.289 65.3232 260.78 67.3387 260.666 69.4556ZM330.915 60.5036L317.974 59.8061L316.146 93.7169L306.32 93.1872L308.148 59.2765L295.147 58.5757L295.612 49.9482L331.38 51.8761L330.915 60.5036ZM346.114 95.3322L348.407 52.7939L377.285 54.3504L376.82 62.9779L357.768 61.951L357.274 71.1177L372.971 71.9638L372.541 79.9322L356.844 79.0861L355.94 95.8618L346.114 95.3322ZM398.253 98.503C395.098 98.3329 392.254 97.5788 389.723 96.2406C387.233 94.8646 385.105 93.1075 383.337 90.9693C381.572 88.7911 380.259 86.3969 379.398 83.7868C378.539 81.1368 378.184 78.4338 378.333 75.6778C378.484 72.8818 379.147 70.2337 380.323 67.7334C381.542 65.1953 383.143 62.9783 385.128 61.0823C387.155 59.1486 389.498 57.6726 392.157 56.6542C394.815 55.6358 397.683 55.2095 400.758 55.3753C403.913 55.5454 406.736 56.3184 409.226 57.6944C411.757 59.0326 413.886 60.7897 415.611 62.9657C417.376 65.1439 418.688 67.558 419.547 70.2081C420.408 72.8182 420.766 75.4613 420.622 78.1374C420.471 80.9333 419.787 83.6004 418.568 86.1385C417.392 88.6388 415.79 90.8558 413.763 92.7895C411.778 94.6854 409.455 96.1625 406.795 97.2209C404.176 98.2414 401.329 98.6688 398.253 98.503ZM388.332 76.3369C388.213 78.5337 388.521 80.6333 389.254 82.6356C389.99 84.5981 391.163 86.2436 392.774 87.5722C394.384 88.9008 396.388 89.6297 398.785 89.7589C401.261 89.8924 403.352 89.3642 405.059 88.1743C406.805 86.9866 408.131 85.4357 409.035 83.5216C409.982 81.5697 410.512 79.5353 410.626 77.4184C410.744 75.2216 410.416 73.1409 409.641 71.1763C408.907 69.1739 407.734 67.5284 406.121 66.2397C404.548 64.9532 402.563 64.2453 400.167 64.1161C397.69 63.9827 395.579 64.5098 393.832 65.6975C392.128 66.8474 390.804 68.3784 389.86 70.2903C388.955 72.2044 388.446 74.2199 388.332 76.3369ZM443.414 100.937C440.019 100.754 437.153 100.039 434.817 98.7913C432.483 97.5038 430.609 95.8406 429.197 93.8016C427.827 91.7249 426.85 89.409 426.267 86.8539C425.726 84.261 425.53 81.5666 425.681 78.7706L426.853 57.0222L436.679 57.5518L435.507 79.3002C435.39 81.4571 435.561 83.4892 436.019 85.3967C436.517 87.3062 437.393 88.8957 438.646 90.165C439.902 91.3943 441.648 92.0693 443.885 92.1899C446.162 92.3126 447.991 91.8103 449.374 90.6831C450.757 89.5559 451.778 88.0687 452.439 86.2216C453.099 84.3744 453.486 82.3924 453.6 80.2755L454.773 58.5271L464.598 59.0567L463.426 80.8051C463.215 84.7194 462.365 88.2387 460.874 91.363C459.384 94.4874 457.189 96.9328 454.29 98.6993C451.433 100.428 447.807 101.174 443.414 100.937ZM481.056 78.2102L479.744 102.535L469.919 102.005L472.212 59.467L480 59.8868L498.362 85.9929L499.712 60.9493L509.537 61.4789L507.245 104.017L499.216 103.584L481.056 78.2102ZM515.38 104.456L517.673 61.9174L533.55 62.7732C538.223 63.0251 542.066 64.1936 545.078 66.2787C548.132 68.3261 550.371 71.0105 551.794 74.3319C553.22 77.6134 553.827 81.2113 553.616 85.1256C553.383 89.4393 552.302 93.1465 550.373 96.2471C548.443 99.3478 545.833 101.691 542.543 103.276C539.293 104.863 535.531 105.542 531.257 105.311L515.38 104.456ZM543.61 84.5863C543.813 80.8317 542.998 77.7434 541.166 75.3213C539.333 72.8991 536.64 71.5923 533.085 71.4007L527.034 71.0745L525.671 96.3578L531.722 96.684C534.119 96.8131 536.185 96.3837 537.92 95.3957C539.658 94.3677 540.998 92.9178 541.94 91.0458C542.922 89.1759 543.479 87.0227 543.61 84.5863Z" fill="#FCFDFF"/>
</g>
<defs>
<filter id="filter0_dd" x="0.113037" y="0.300293" width="593.544" height="149.055" filterUnits="userSpaceOnUse" color-interpolation-filters="sRGB">
<feFlood flood-opacity="0" result="BackgroundImageFix"/>
<feColorMatrix in="SourceAlpha" type="matrix" values="0 0 0 0 0 0 0 0 0 0 0 0 0 0 0 0 0 0 127 0"/>
<feOffset dx="2" dy="10"/>
<feGaussianBlur stdDeviation="2.5"/>
<feColorMatrix type="matrix" values="0 0 0 0 0 0 0 0 0 0 0 0 0 0 0 0 0 0 0.1 0"/>
<feBlend mode="normal" in2="BackgroundImageFix" result="effect1_dropShadow"/>
<feColorMatrix in="SourceAlpha" type="matrix" values="0 0 0 0 0 0 0 0 0 0 0 0 0 0 0 0 0 0 127 0"/>
<feOffset dy="4"/>
<feGaussianBlur stdDeviation="20"/>
<feColorMatrix type="matrix" values="0 0 0 0 0 0 0 0 0 0 0 0 0 0 0 0 0 0 0.25 0"/>
<feBlend mode="normal" in2="effect1_dropShadow" result="effect2_dropShadow"/>
<feBlend mode="normal" in="SourceGraphic" in2="effect2_dropShadow" result="shape"/>
</filter>
</defs>
</svg>
