<svg width="1440" height="732" viewBox="0 0 1440 732" fill="none" xmlns="http://www.w3.org/2000/svg">
<path d="M1042.49 335.84L1131.26 383.551C1172.01 405.473 1187.42 456.761 1165.52 497.508L1125.68 571.58C1103.77 612.328 1052.5 627.742 1011.74 605.833L922.987 558.095C882.233 536.207 866.819 484.932 888.734 444.158L928.547 370.106C950.462 329.365 1001.74 313.951 1042.49 335.84Z" fill="#D6D6D6"/>
<path d="M452.035 600.341L397.17 626.413C334.453 656.165 258.835 629.22 229.043 566.517C199.305 503.84 226.256 428.175 288.959 398.417L343.838 372.385C406.528 342.619 482.146 369.564 511.931 432.248C541.696 494.938 514.738 570.582 452.035 600.341Z" fill="#D6D6D6"/>
<path d="M1498.61 1569.94C1289.08 1994.09 775.352 2168.12 351.174 1958.58C-73.0028 1749.04 -246.974 1235.3 -37.4493 811.151C172.088 386.974 685.801 212.956 1109.98 422.494C1534.16 632.031 1708.15 1145.76 1498.61 1569.94Z" fill="#F6F6F6"/>
<g opacity="0.149994">
<g opacity="0.149994">
<path opacity="0.149994" d="M508.51 1640.09C138.962 1457.54 -40.6068 1044.08 57.8332 660.12C21.6204 706.147 -10.4706 756.515 -37.4568 811.144C-246.981 1235.29 -72.9968 1749.04 351.18 1958.58C775.358 2168.12 1289.09 1994.09 1498.62 1569.94C1525.6 1515.31 1546.11 1459.23 1560.66 1402.5C1315.55 1714 878.071 1822.65 508.51 1640.09Z" fill="#230753"/>
</g>
</g>
<path d="M764.04 657.003C761.616 694.659 714.501 722.288 658.755 718.702C603.029 715.11 559.826 681.668 562.243 643.992C564.687 606.329 611.815 578.706 667.535 582.279C723.274 585.878 766.463 619.313 764.04 657.003Z" fill="#E3E3E3"/>
<path d="M518.05 656.827C521.685 600.077 592.731 558.428 676.739 563.825C738.828 567.826 790.541 596.454 811.818 634.049C797.675 588.757 740.481 552.265 669.763 547.715C585.788 542.284 514.741 583.934 511.094 640.71C510.141 655.489 513.939 669.814 521.44 683.05C518.774 674.556 517.469 665.789 518.05 656.827Z" fill="#E3E3E3"/>
<g opacity="0.149994">
<g opacity="0.149994">
<path opacity="0.149994" d="M764.04 657.003C764.634 647.815 762.491 638.899 758.131 630.613C751.886 665.569 706.679 690.511 653.585 687.092C611.422 684.397 576.467 664.594 562.963 638.812C562.666 640.521 562.382 642.237 562.244 643.993C559.827 681.669 603.029 715.11 658.756 718.703C714.475 722.276 761.617 694.659 764.04 657.003Z" fill="#230753"/>
</g>
</g>
<path d="M1115.93 610.747C1108.78 630.408 1074.52 635.99 1039.39 623.213C1004.26 610.449 981.571 584.159 988.714 564.498C995.87 544.844 1030.12 539.256 1065.25 552.033C1100.39 564.797 1123.08 591.093 1115.93 610.747Z" fill="#E3E3E3"/>
<g opacity="0.149994">
<g opacity="0.149994">
<path opacity="0.149994" d="M961.292 562.576C972.711 531.104 1027.58 522.173 1083.83 542.618C1107.61 551.283 1127.8 563.807 1142.35 577.774C1128 559.134 1103.48 541.732 1073.03 530.654C1016.79 510.229 961.933 519.133 950.507 550.619C943.902 568.755 953.271 590.423 973.089 609.429C960.916 593.669 956.044 576.991 961.292 562.576Z" fill="#230753"/>
</g>
</g>
<g opacity="0.149994">
<g opacity="0.149994">
<path opacity="0.149994" d="M1115.93 610.749C1122.13 593.771 1105.94 571.803 1078.75 557.924C1091.58 569.932 1097.71 583.766 1093.53 595.291C1086.38 614.932 1052.09 620.521 1016.96 607.757C1012.24 606.038 1007.73 604.046 1003.5 601.873C1012.54 610.35 1024.88 617.954 1039.39 623.214C1074.52 635.991 1108.78 630.409 1115.93 610.749Z" fill="#230753"/>
</g>
</g>
<path d="M253.902 750.459C273.743 782.571 251.982 831.958 205.305 860.815C158.642 889.645 104.715 887.008 84.8934 854.889C65.0523 822.777 86.7931 773.363 133.477 744.526C180.141 715.696 234.061 718.347 253.902 750.459Z" fill="#E3E3E3"/>
<g opacity="0.149994">
<g opacity="0.149994">
<path opacity="0.149994" d="M281.101 737.245C302.248 771.511 285.641 821.372 244.257 857.833C293.181 824.831 315.356 771.687 293.726 736.686C282.513 718.549 261.689 708.727 237.085 707.496C256.009 712.004 271.643 721.965 281.101 737.245Z" fill="#230753"/>
</g>
</g>
<g opacity="0.149994">
<g opacity="0.149994">
<path opacity="0.149994" d="M57.6363 861.342C30.4404 817.375 56.0432 751.52 114.679 708.05C109.402 710.747 104.106 713.617 98.917 716.839C29.7694 759.543 -2.47742 832.74 26.9225 880.332C56.3222 927.89 136.196 931.825 205.337 889.102C210.545 885.873 215.48 882.427 220.255 878.901C155.141 911.928 84.799 905.342 57.6363 861.342Z" fill="#230753"/>
</g>
</g>
<g opacity="0.149994">
<g opacity="0.149994">
<path opacity="0.149994" d="M253.901 750.462C234.06 718.35 180.14 715.699 133.476 744.53C126.147 749.064 119.545 754.108 113.523 759.487C153.921 743.474 194.891 749.491 211.631 776.573C228.35 803.662 215.427 843.011 183.007 871.965C190.509 868.991 198.015 865.34 205.304 860.818C251.995 831.968 273.742 782.574 253.901 750.462Z" fill="#230753"/>
</g>
</g>
</svg>
