<svg width="1440" height="732" viewBox="0 0 1440 732" fill="none" xmlns="http://www.w3.org/2000/svg">
<path d="M1132.49 335.84L1221.26 383.551C1262.01 405.473 1277.42 456.761 1255.52 497.508L1215.68 571.58C1193.77 612.328 1142.5 627.742 1101.74 605.833L1012.99 558.095C972.233 536.207 956.819 484.932 978.734 444.158L1018.55 370.106C1040.46 329.365 1091.74 313.951 1132.49 335.84Z" fill="#D6D6D6"/>
<path d="M542.035 600.341L487.17 626.413C424.453 656.165 348.835 629.22 319.043 566.517C289.305 503.84 316.256 428.175 378.959 398.417L433.838 372.385C496.528 342.619 572.146 369.564 601.931 432.248C631.696 494.938 604.738 570.582 542.035 600.341Z" fill="#D6D6D6"/>
<path d="M1588.61 1569.94C1379.08 1994.09 865.352 2168.12 441.174 1958.58C16.9972 1749.04 -156.974 1235.3 52.5507 811.151C262.088 386.974 775.801 212.956 1199.98 422.494C1624.16 632.031 1798.15 1145.76 1588.61 1569.94Z" fill="#F6F6F6"/>
<g opacity="0.149994">
<g opacity="0.149994">
<path opacity="0.149994" d="M598.51 1640.09C228.962 1457.54 49.3932 1044.08 147.833 660.12C111.62 706.147 79.5294 756.515 52.5432 811.144C-156.981 1235.29 17.0032 1749.04 441.18 1958.58C865.358 2168.12 1379.09 1994.09 1588.62 1569.94C1615.6 1515.31 1636.11 1459.23 1650.66 1402.5C1405.55 1714 968.071 1822.65 598.51 1640.09Z" fill="#230753"/>
</g>
</g>
<path d="M854.04 657.003C851.616 694.659 804.501 722.288 748.755 718.702C693.029 715.11 649.826 681.668 652.243 643.992C654.687 606.329 701.815 578.706 757.535 582.279C813.274 585.878 856.463 619.313 854.04 657.003Z" fill="#E3E3E3"/>
<path d="M608.05 656.827C611.685 600.077 682.731 558.428 766.739 563.825C828.828 567.826 880.541 596.454 901.818 634.049C887.675 588.757 830.481 552.265 759.763 547.715C675.788 542.284 604.741 583.934 601.094 640.71C600.141 655.489 603.939 669.814 611.44 683.05C608.774 674.556 607.469 665.789 608.05 656.827Z" fill="#E3E3E3"/>
<g opacity="0.149994">
<g opacity="0.149994">
<path opacity="0.149994" d="M854.04 657.003C854.634 647.815 852.491 638.899 848.131 630.613C841.886 665.569 796.679 690.511 743.585 687.092C701.422 684.397 666.467 664.594 652.963 638.812C652.666 640.521 652.382 642.237 652.244 643.993C649.827 681.669 693.029 715.11 748.756 718.703C804.475 722.276 851.617 694.659 854.04 657.003Z" fill="#230753"/>
</g>
</g>
<path d="M1205.93 610.747C1198.78 630.408 1164.52 635.99 1129.39 623.213C1094.26 610.449 1071.57 584.159 1078.71 564.498C1085.87 544.844 1120.12 539.256 1155.25 552.033C1190.39 564.797 1213.08 591.093 1205.93 610.747Z" fill="#E3E3E3"/>
<g opacity="0.149994">
<g opacity="0.149994">
<path opacity="0.149994" d="M1051.29 562.576C1062.71 531.104 1117.58 522.173 1173.83 542.618C1197.61 551.283 1217.8 563.807 1232.35 577.774C1218 559.134 1193.48 541.732 1163.03 530.654C1106.79 510.229 1051.93 519.133 1040.51 550.619C1033.9 568.755 1043.27 590.423 1063.09 609.429C1050.92 593.669 1046.04 576.991 1051.29 562.576Z" fill="#230753"/>
</g>
</g>
<g opacity="0.149994">
<g opacity="0.149994">
<path opacity="0.149994" d="M1205.93 610.749C1212.13 593.771 1195.94 571.803 1168.75 557.924C1181.58 569.932 1187.71 583.766 1183.53 595.291C1176.38 614.932 1142.09 620.521 1106.96 607.757C1102.24 606.038 1097.73 604.046 1093.5 601.873C1102.54 610.35 1114.88 617.954 1129.39 623.214C1164.52 635.991 1198.78 630.409 1205.93 610.749Z" fill="#230753"/>
</g>
</g>
<path d="M343.902 750.459C363.743 782.571 341.982 831.958 295.305 860.815C248.642 889.645 194.715 887.008 174.893 854.889C155.052 822.777 176.793 773.363 223.477 744.526C270.141 715.696 324.061 718.347 343.902 750.459Z" fill="#E3E3E3"/>
<g opacity="0.149994">
<g opacity="0.149994">
<path opacity="0.149994" d="M371.101 737.245C392.248 771.511 375.641 821.372 334.257 857.833C383.181 824.831 405.356 771.687 383.726 736.686C372.513 718.549 351.689 708.727 327.085 707.496C346.009 712.004 361.643 721.965 371.101 737.245Z" fill="#230753"/>
</g>
</g>
<g opacity="0.149994">
<g opacity="0.149994">
<path opacity="0.149994" d="M147.636 861.342C120.44 817.375 146.043 751.52 204.679 708.05C199.402 710.747 194.106 713.617 188.917 716.839C119.769 759.543 87.5226 832.74 116.922 880.332C146.322 927.89 226.196 931.825 295.337 889.102C300.545 885.873 305.48 882.427 310.255 878.901C245.141 911.928 174.799 905.342 147.636 861.342Z" fill="#230753"/>
</g>
</g>
<g opacity="0.149994">
<g opacity="0.149994">
<path opacity="0.149994" d="M343.901 750.462C324.06 718.35 270.14 715.699 223.476 744.53C216.147 749.064 209.545 754.108 203.523 759.487C243.921 743.474 284.891 749.491 301.631 776.573C318.35 803.662 305.427 843.011 273.007 871.965C280.509 868.991 288.015 865.34 295.304 860.818C341.995 831.968 363.742 782.574 343.901 750.462Z" fill="#230753"/>
</g>
</g>
</svg>
